<?xml version="1.0" encoding="UTF-8" standalone="no"?>
<svg width="63px" height="83px" viewBox="0 0 63 83" version="1.1" xmlns="http://www.w3.org/2000/svg" xmlns:xlink="http://www.w3.org/1999/xlink">
    <!-- Generator: Sketch 41.2 (35397) - http://www.bohemiancoding.com/sketch -->
    <title>Page 1</title>
    <desc>Created with Sketch.</desc>
    <defs>
        <polygon id="path-1" points="0 82.3941606 62.7988846 82.3941606 62.7988846 0.491335766 0 0.491335766"></polygon>
    </defs>
    <g id="Page-1" stroke="none" stroke-width="1" fill="none" fill-rule="evenodd">
        <g>
            <polygon id="Fill-1" fill="#B2DED7" points="0 82.5086642 62.7988846 82.5086642 62.7988846 0.605839416 0 0.605839416"></polygon>
            <polygon id="Fill-2" fill="#FFFFFF" points="6.922125 13.744073 40.8676154 13.744073 40.8676154 10.4174088 6.922125 10.4174088"></polygon>
            <g id="Group-24" transform="translate(0.000000, 0.114504)">
                <path d="M17.0604606,53.4006854 C14.7700471,53.4006854 12.906701,55.2642474 12.906701,57.5549263 C12.906701,59.8462109 14.7700471,61.709773 17.0604606,61.709773 C19.350874,61.709773 21.2142202,59.8462109 21.2142202,57.5549263 C21.2142202,55.2642474 19.350874,53.4006854 17.0604606,53.4006854 Z M17.0604606,64.1331307 C13.434326,64.1331307 10.483624,61.1820869 10.483624,57.5549263 C10.483624,53.9283715 13.434326,50.9773277 17.0604606,50.9773277 C20.6865952,50.9773277 23.6372971,53.9283715 23.6372971,57.5549263 C23.6372971,61.1820869 20.6865952,64.1331307 17.0604606,64.1331307 Z" id="Fill-3" fill="#FFFFFF"></path>
                <path d="M23.6375394,57.5552292 L21.2144625,57.5552292 C21.2144625,55.2645504 19.3511163,53.4009883 17.0607029,53.4009883 L17.0607029,50.9776307 C20.6868375,50.9776307 23.6375394,53.9286745 23.6375394,57.5552292" id="Fill-5" fill="#FFFFFF"></path>
                <mask id="mask-2" fill="white">
                    <use xlink:href="#path-1"></use>
                </mask>
                <g id="Clip-8"></g>
                <polygon id="Fill-7" fill="#FFFFFF" mask="url(#mask-2)" points="34.8208269 64.038438 37.2439038 64.038438 37.2439038 56.5478394 34.8208269 56.5478394"></polygon>
                <polygon id="Fill-9" fill="#FFFFFF" mask="url(#mask-2)" points="49.3380865 64.038438 51.7611635 64.038438 51.7611635 53.3459781 49.3380865 53.3459781"></polygon>
                <polygon id="Fill-10" fill="#FFFFFF" mask="url(#mask-2)" points="39.6597115 64.038438 42.0827885 64.038438 42.0827885 54.2753358 39.6597115 54.2753358"></polygon>
                <polygon id="Fill-11" fill="#FFFFFF" mask="url(#mask-2)" points="44.4992019 64.038438 46.9222788 64.038438 46.9222788 50.4009927 44.4992019 50.4009927"></polygon>
                <polygon id="Fill-12" fill="#2FB9A0" mask="url(#mask-2)" points="35.6065096 62.9212701 38.0295865 62.9212701 38.0295865 55.4306715 35.6065096 55.4306715"></polygon>
                <polygon id="Fill-13" fill="#2FB9A0" mask="url(#mask-2)" points="50.1237692 62.9212701 52.5468462 62.9212701 52.5468462 52.2282044 50.1237692 52.2282044"></polygon>
                <polygon id="Fill-14" fill="#2FB9A0" mask="url(#mask-2)" points="40.4453942 62.9212701 42.8684712 62.9212701 42.8684712 53.1581679 40.4453942 53.1581679"></polygon>
                <polygon id="Fill-15" fill="#13967D" mask="url(#mask-2)" points="45.2848846 62.9212701 47.7079615 62.9212701 47.7079615 49.2838248 45.2848846 49.2838248"></polygon>
                <path d="M17.8697077,63.1254985 C14.2435731,63.1254985 11.2928712,60.1744547 11.2928712,56.5479 C11.2928712,52.9207394 14.2435731,49.9696956 17.8697077,49.9696956 L17.8697077,52.3930533 C15.5792942,52.3930533 13.7159481,54.2566153 13.7159481,56.5479 C13.7159481,58.8385788 15.5792942,60.7021409 17.8697077,60.7021409 C20.1601212,60.7021409 22.0234673,58.8385788 22.0234673,56.5479 L24.4465442,56.5479 C24.4465442,60.1744547 21.4958423,63.1254985 17.8697077,63.1254985" id="Fill-16" fill="#2FB9A0" mask="url(#mask-2)"></path>
                <path d="M24.4468471,56.5476577 L22.0237702,56.5476577 C22.0237702,54.2569788 20.160424,52.3934168 17.8700106,52.3934168 L17.8700106,49.9700591 C21.4961452,49.9700591 24.4468471,52.9211029 24.4468471,56.5476577" id="Fill-17" fill="#13967D" mask="url(#mask-2)"></path>
                <polygon id="Fill-18" fill="#2FB9A0" mask="url(#mask-2)" points="7.61209615 20.753635 55.1873942 20.753635 55.1873942 19.09 7.61209615 19.09"></polygon>
                <polygon id="Fill-19" fill="#2FB9A0" mask="url(#mask-2)" points="7.61209615 24.6788686 55.1873942 24.6788686 55.1873942 23.0152336 7.61209615 23.0152336"></polygon>
                <polygon id="Fill-20" fill="#2FB9A0" mask="url(#mask-2)" points="7.61209615 28.604708 55.1873942 28.604708 55.1873942 26.941073 7.61209615 26.941073"></polygon>
                <polygon id="Fill-21" fill="#2FB9A0" mask="url(#mask-2)" points="7.61209615 32.5293358 55.1873942 32.5293358 55.1873942 30.8663066 7.61209615 30.8663066"></polygon>
                <polygon id="Fill-22" fill="#2FB9A0" mask="url(#mask-2)" points="7.61209615 36.4551752 55.1873942 36.4551752 55.1873942 34.7915401 7.61209615 34.7915401"></polygon>
                <polygon id="Fill-23" fill="#2FB9A0" mask="url(#mask-2)" points="7.61209615 12.8244088 41.5575865 12.8244088 41.5575865 9.49713869 7.61209615 9.49713869"></polygon>
            </g>
        </g>
    </g>
</svg>