<?xml version="1.0" encoding="UTF-8" standalone="no"?>
<svg width="265px" height="156px" viewBox="0 0 265 156" version="1.1" xmlns="http://www.w3.org/2000/svg" xmlns:xlink="http://www.w3.org/1999/xlink">
    <!-- Generator: Sketch 3.7.2 (28276) - http://www.bohemiancoding.com/sketch -->
    <title>Page 1</title>
    <desc>Created with Sketch.</desc>
    <defs>
        <polygon id="path-1" points="0 155.14486 265 155.14486 265 0.00115441176 0 0.00115441176"></polygon>
    </defs>
    <g id="Page-1" stroke="none" stroke-width="1" fill="none" fill-rule="evenodd">
        <g>
            <path d="M213.51027,67.4451221 C213.51027,64.1827544 210.761183,61.5391515 207.369183,61.5391515 L160.9504,61.5391515 L160.9504,61.5622397 C157.560704,61.5622397 154.809313,64.2058426 154.809313,67.4659015 L154.770139,67.4659015 L154.770139,128.896769 C154.724052,129.187681 154.694096,129.480901 154.694096,129.783357 C154.694096,133.043416 157.443183,135.689328 160.835183,135.689328 C160.874357,135.689328 160.911226,135.682401 160.9504,135.682401 L160.9504,135.730887 L207.369183,135.730887 L207.369183,135.689328 C210.761183,135.689328 213.51027,133.043416 213.51027,129.783357 C213.51027,129.748725 213.505661,129.716401 213.505661,129.684078 L213.51027,129.684078 L213.51027,67.4659015 L213.507965,67.4659015 C213.507965,67.458975 213.51027,67.4520485 213.51027,67.4451221 L213.51027,67.4451221 Z" id="Fill-1" fill="#575756"></path>
            <path d="M233.043535,109.698671 L233.050448,109.698671 L233.034317,109.668656 C232.891448,109.310788 232.714013,108.971391 232.497404,108.657391 L210.527752,67.2809647 L210.511622,67.2925088 C207.596622,61.7882735 202.211361,58.0826118 195.328274,58.0826118 L184.113013,58.0826118 L172.897752,58.0826118 C166.010057,58.0826118 160.620187,61.7928912 157.707491,67.3040529 L157.677535,67.2809647 L135.705578,108.657391 C135.491274,108.971391 135.313839,109.310788 135.168665,109.668656 L135.152535,109.698671 L135.159448,109.698671 C134.926709,110.292038 134.786143,110.9362 134.786143,111.614994 C134.786143,114.501024 137.122752,116.839862 140.003187,116.839862 L140.003187,116.876803 L154.504448,116.876803 L150.448796,136.806568 L217.779535,136.806568 L213.721578,116.876803 L228.199796,116.876803 L228.199796,116.839862 C231.082535,116.839862 233.416839,114.501024 233.416839,111.614994 C233.416839,110.9362 233.278578,110.292038 233.043535,109.698671" id="Fill-3" fill="#062738"></path>
            <mask id="mask-2" fill="white">
                <use xlink:href="#path-1"></use>
            </mask>
            <g id="Clip-6"></g>
            <polygon id="Fill-5" fill="#FBD0C5" mask="url(#mask-2)" points="176.390913 58.0819191 192.007478 58.0819191 192.007478 49.2368162 176.390913 49.2368162"></polygon>
            <path d="M202.07863,26.1030971 C202.07863,40.2677294 195.052674,51.7518176 184.206109,51.7518176 C173.804283,51.7518176 166.333587,40.2677294 166.333587,26.1030971 C166.333587,11.9384647 173.170587,3.55050882 184.206109,3.55050882 C195.965196,3.55050882 202.07863,11.9384647 202.07863,26.1030971" id="Fill-7" fill="#FBD0C5" mask="url(#mask-2)"></path>
            <path d="M204.490361,27.8898956 C204.490361,30.187175 203.409622,32.0503956 202.077709,32.0503956 C200.745796,32.0503956 199.667361,30.187175 199.667361,27.8898956 C199.667361,25.5926162 200.745796,23.7293956 202.077709,23.7293956 C203.409622,23.7293956 204.490361,25.5926162 204.490361,27.8898956" id="Fill-8" fill="#FBD0C5" mask="url(#mask-2)"></path>
            <path d="M168.745317,27.8898956 C168.745317,30.187175 167.664578,32.0503956 166.332665,32.0503956 C165.000752,32.0503956 163.922317,30.187175 163.922317,27.8898956 C163.922317,25.5926162 165.000752,23.7293956 166.332665,23.7293956 C167.664578,23.7293956 168.745317,25.5926162 168.745317,27.8898956" id="Fill-9" fill="#FBD0C5" mask="url(#mask-2)"></path>
            <polygon id="Fill-10" fill="#E8E7E8" mask="url(#mask-2)" points="184.207952 58.0826118 184.175691 58.0826118 182.546517 60.2205824 185.834822 60.2205824"></polygon>
            <polygon id="Fill-11" fill="#FFFFFF" mask="url(#mask-2)" points="176.398057 56.2387853 175.13297 58.0812265 178.137839 66.0120353 182.546057 60.2215059 184.17523 58.0835353 184.177535 58.0812265"></polygon>
            <polygon id="Fill-12" fill="#FFFFFF" mask="url(#mask-2)" points="191.984435 56.2387853 184.207261 58.0812265 184.207261 58.0835353 185.836435 60.2215059 190.244652 66.0120353 193.249522 58.0812265"></polygon>
            <polygon id="Fill-13" fill="#30B79E" mask="url(#mask-2)" points="187.826239 62.8258588 185.842196 60.2215059 182.553891 60.2215059 180.572152 62.8258588 182.069978 65.1439176 186.328413 65.1439176"></polygon>
            <polygon id="Fill-14" fill="#30B79E" mask="url(#mask-2)" points="186.342009 65.1446103 184.205878 65.1446103 182.069748 65.1446103 176.03927 132.305978 184.205878 136.805875 192.372487 132.305978"></polygon>
            <path d="M191.410652,118.274334 L199.948261,117.325407 L199.95287,107.009584 L191.417565,106.051422 C190.982043,105.954451 190.530391,105.89904 190.064913,105.89904 C186.613,105.896731 183.813217,108.699643 183.810913,112.15826 C183.808609,115.616878 186.606087,118.422099 190.058,118.424407 C190.523478,118.424407 190.97513,118.371304 191.410652,118.274334" id="Fill-15" fill="#FBD0C5" mask="url(#mask-2)"></path>
            <path d="M176.531478,118.274334 L167.99387,117.325407 L167.989261,107.009584 L176.524565,106.051422 C176.960087,105.954451 177.411739,105.89904 177.877217,105.89904 C181.32913,105.896731 184.128913,108.699643 184.131217,112.15826 C184.133522,115.616878 181.336043,118.422099 177.88413,118.424407 C177.418652,118.424407 176.967,118.371304 176.531478,118.274334" id="Fill-16" fill="#FBD0C5" mask="url(#mask-2)"></path>
            <path d="M106.246104,67.4451221 C106.246104,64.1827544 103.497017,61.5391515 100.105017,61.5391515 L53.6862348,61.5391515 L53.6862348,61.5622397 C50.2965391,61.5622397 47.5451478,64.2058426 47.5451478,67.4659015 L47.5059739,67.4659015 L47.5059739,128.896769 C47.459887,129.187681 47.4299304,129.480901 47.4299304,129.783357 C47.4299304,133.043416 50.1790174,135.689328 53.5710174,135.689328 C53.6101913,135.689328 53.6470609,135.682401 53.6862348,135.682401 L53.6862348,135.730887 L100.105017,135.730887 L100.105017,135.689328 C103.497017,135.689328 106.246104,133.043416 106.246104,129.783357 C106.246104,129.748725 106.241496,129.716401 106.241496,129.684078 L106.246104,129.684078 L106.246104,67.4659015 L106.2438,67.4659015 C106.2438,67.458975 106.246104,67.4520485 106.246104,67.4451221" id="Fill-17" fill="#575756" mask="url(#mask-2)"></path>
            <polygon id="Fill-18" fill="#7B4F42" mask="url(#mask-2)" points="56.822913 64.1033309 97.1651304 64.1033309 97.1651304 15.5072132 56.822913 15.5072132"></polygon>
            <path d="M56.822913,15.8195971 C56.822913,24.5561853 65.8536522,31.6396559 76.9951739,31.6396559 C88.1343913,31.6396559 97.1651304,24.5561853 97.1651304,15.8195971 C97.1651304,7.08300882 88.1343913,-0.000461764706 76.9951739,-0.000461764706 C65.8536522,-0.000461764706 56.822913,7.08300882 56.822913,15.8195971" id="Fill-19" fill="#7B4F42" mask="url(#mask-2)"></path>
            <path d="M62.1044783,36.6223279 C62.1044783,44.9040779 68.8055217,51.6181368 77.0712174,51.6181368 C85.3346087,51.6181368 92.0356522,44.9040779 92.0356522,36.6223279 C92.0356522,28.3405779 85.3346087,21.6265191 77.0712174,21.6265191 C68.8055217,21.6265191 62.1044783,28.3405779 62.1044783,36.6223279" id="Fill-20" fill="#FBD0C5" mask="url(#mask-2)"></path>
            <polygon id="Fill-21" fill="#FBD0C5" mask="url(#mask-2)" points="62.1044783 36.6214044 92.0356522 36.6214044 92.0356522 12.1825074 62.1044783 12.1825074"></polygon>
            <path d="M59.5920478,26.8583132 C59.5920478,26.8583132 77.4069609,24.7388132 85.278613,16.8495632 C85.278613,16.8495632 89.3734391,26.0063574 93.6134391,26.0063574 L95.5951783,19.5462691 L93.5097435,9.10115147 L87.0437435,3.60384265 L77.2548739,1.64134265 L66.1732652,4.58740147 L59.1265696,12.9314897 L58.393787,20.1488721" id="Fill-22" fill="#7B4F42" mask="url(#mask-2)"></path>
            <path d="M76.8336391,58.0530588 L62.9130739,58.0530588 C53.4790739,58.0530588 49.0063348,66.6788235 49.0063348,77.2209118 L54.1496391,94.0106765 L48.1905957,137.144118 L76.8336391,137.144118" id="Fill-23" fill="#062738" mask="url(#mask-2)"></path>
            <path d="M76.8336391,58.0530588 L90.7542043,58.0530588 C100.188204,58.0530588 104.660943,66.6788235 104.660943,77.2209118 L99.5176391,94.0106765 L105.476683,137.144118 L76.8336391,137.144118" id="Fill-24" fill="#062738" mask="url(#mask-2)"></path>
            <polygon id="Fill-25" fill="#06B9BF" mask="url(#mask-2)" points="76.9016174 95.9429309 76.9016174 95.9429309 69.0253565 71.9981221 84.6419217 71.9981221"></polygon>
            <polygon id="Fill-26" fill="#06B9BF" mask="url(#mask-2)" points="69.0244348 71.9971985 84.641 71.9971985 84.641 63.3090956 69.0244348 63.3090956"></polygon>
            <path d="M75.6102609,107.889707 C75.6102609,108.53156 75.0917826,109.051046 74.4511739,109.051046 C73.8105652,109.051046 73.292087,108.53156 73.292087,107.889707 C73.292087,107.247854 73.8105652,106.728369 74.4511739,106.728369 C75.0917826,106.728369 75.6102609,107.247854 75.6102609,107.889707" id="Fill-27" fill="#7F7FA3" mask="url(#mask-2)"></path>
            <path d="M80.3751913,107.889707 C80.3751913,108.53156 79.856713,109.051046 79.2161043,109.051046 C78.5754957,109.051046 78.0570174,108.53156 78.0570174,107.889707 C78.0570174,107.247854 78.5754957,106.728369 79.2161043,106.728369 C79.856713,106.728369 80.3751913,107.247854 80.3751913,107.889707" id="Fill-28" fill="#7F7FA3" mask="url(#mask-2)"></path>
            <polygon id="Fill-29" fill="#43778E" mask="url(#mask-2)" points="84.6416913 71.9974294 84.6416913 62.7944588 89.9347783 62.7944588"></polygon>
            <polygon id="Fill-30" fill="#43778E" mask="url(#mask-2)" points="69.025587 71.9974294 69.025587 62.7944588 63.7325 62.7944588"></polygon>
            <path d="M121.718878,109.698671 L121.725791,109.698671 L121.702748,109.647876 C121.682009,109.594774 121.658965,109.543979 121.635922,109.493185 L102.876226,66.8492147 L91.142487,73.6348471 L96.3733565,106.387818 L88.877313,106.387818 L88.877313,116.876803 L116.875139,116.876803 L116.875139,116.839862 C119.757878,116.839862 122.092183,114.501024 122.092183,111.614994 C122.092183,110.9362 121.953922,110.292038 121.718878,109.698671" id="Fill-31" fill="#062738" mask="url(#mask-2)"></path>
            <path d="M57.3008348,106.388279 L62.5317043,73.6353088 L50.7979652,66.8473676 L32.0405739,109.491338 C32.0175304,109.544441 31.9921826,109.595235 31.9714435,109.648338 L31.9507043,109.699132 L31.955313,109.699132 C31.7225739,110.2925 31.584313,110.936662 31.584313,111.613147 C31.584313,114.499176 33.9186174,116.840324 36.7990522,116.840324 L36.7990522,116.874956 L64.7991826,116.874956 L64.7991826,106.388279 L57.3008348,106.388279 Z" id="Fill-32" fill="#062738" mask="url(#mask-2)"></path>
            <path d="M84.2734565,117.745151 L92.8110652,116.796225 L92.8156739,106.480401 L84.2803696,105.52224 C83.8448478,105.425269 83.3931957,105.369857 82.9277174,105.369857 C79.4758043,105.367549 76.6760217,108.17046 76.6737174,111.629078 C76.671413,115.087696 79.4688913,117.892916 82.9208043,117.895225 C83.3862826,117.895225 83.8379348,117.842122 84.2734565,117.745151" id="Fill-33" fill="#FBD0C5" mask="url(#mask-2)"></path>
            <path d="M69.3940522,117.745151 L60.8564435,116.796225 L60.8518348,106.480401 L69.3871391,105.52224 C69.8226609,105.425269 70.274313,105.369857 70.7397913,105.369857 C74.1917043,105.367549 76.991487,108.17046 76.9937913,111.629078 C76.9960957,115.087696 74.1986174,117.892916 70.7467043,117.895225 C70.2812261,117.895225 69.8295739,117.842122 69.3940522,117.745151" id="Fill-34" fill="#FBD0C5" mask="url(#mask-2)"></path>
            <path d="M84.5654174,57.1639309 L84.5654174,48.4065632 L69.1009391,48.4065632 L69.1009391,57.1639309 L69.1009391,67.7175632 C69.1009391,72.4552691 71.9214609,74.0275779 76.8343304,74.0275779 C82.5721565,74.0275779 84.5654174,71.8018721 84.5654174,67.5120779 L84.5654174,57.1639309 Z" id="Fill-35" fill="#FBD0C5" mask="url(#mask-2)"></path>
            <path d="M70.5524478,63.7036735 C70.5524478,64.0246 70.2920565,64.2831882 69.9740565,64.2831882 C69.6537522,64.2831882 69.3933609,64.0246 69.3933609,63.7036735 C69.3933609,63.3827471 69.6537522,63.1241588 69.9740565,63.1241588 C70.2920565,63.1241588 70.5524478,63.3827471 70.5524478,63.7036735" id="Fill-36" fill="#FFFFFF" mask="url(#mask-2)"></path>
            <path d="M69.7194261,62.9052824 C69.7194261,63.2262088 69.4590348,63.4847971 69.1410348,63.4847971 C68.8207304,63.4847971 68.5603391,63.2262088 68.5603391,62.9052824 C68.5603391,62.5843559 68.8207304,62.3257676 69.1410348,62.3257676 C69.4590348,62.3257676 69.7194261,62.5843559 69.7194261,62.9052824" id="Fill-37" fill="#FFFFFF" mask="url(#mask-2)"></path>
            <path d="M71.6179783,64.0666206 C71.6179783,64.3875471 71.357587,64.6461353 71.039587,64.6461353 C70.7192826,64.6461353 70.4588913,64.3875471 70.4588913,64.0666206 C70.4588913,63.7456941 70.7192826,63.4871059 71.039587,63.4871059 C71.357587,63.4871059 71.6179783,63.7456941 71.6179783,64.0666206" id="Fill-38" fill="#FFFFFF" mask="url(#mask-2)"></path>
            <path d="M72.7770652,64.3409088 C72.7770652,64.6618353 72.5166739,64.9204235 72.1986739,64.9204235 C71.8783696,64.9204235 71.6179783,64.6618353 71.6179783,64.3409088 C71.6179783,64.0199824 71.8783696,63.7613941 72.1986739,63.7613941 C72.5166739,63.7613941 72.7770652,64.0199824 72.7770652,64.3409088" id="Fill-39" fill="#FFFFFF" mask="url(#mask-2)"></path>
            <path d="M73.9361522,64.5413147 C73.9361522,64.8622412 73.6757609,65.1208294 73.3577609,65.1208294 C73.0374565,65.1208294 72.7770652,64.8622412 72.7770652,64.5413147 C72.7770652,64.2203882 73.0374565,63.9618 73.3577609,63.9618 C73.6757609,63.9618 73.9361522,64.2203882 73.9361522,64.5413147" id="Fill-40" fill="#FFFFFF" mask="url(#mask-2)"></path>
            <path d="M75.0950087,64.6472897 C75.0950087,64.9682162 74.8346174,65.2268044 74.5166174,65.2268044 C74.196313,65.2268044 73.9359217,64.9682162 73.9359217,64.6472897 C73.9359217,64.3263632 74.196313,64.067775 74.5166174,64.067775 C74.8346174,64.067775 75.0950087,64.3263632 75.0950087,64.6472897" id="Fill-41" fill="#FFFFFF" mask="url(#mask-2)"></path>
            <path d="M76.2540957,64.7144765 C76.2540957,65.0354029 75.9937043,65.2939912 75.6757043,65.2939912 C75.3554,65.2939912 75.0950087,65.0354029 75.0950087,64.7144765 C75.0950087,64.39355 75.3554,64.1349618 75.6757043,64.1349618 C75.9937043,64.1349618 76.2540957,64.39355 76.2540957,64.7144765" id="Fill-42" fill="#FFFFFF" mask="url(#mask-2)"></path>
            <path d="M77.4131826,64.7925147 C77.4131826,65.1134412 77.1527913,65.3720294 76.8347913,65.3720294 C76.514487,65.3720294 76.2540957,65.1134412 76.2540957,64.7925147 C76.2540957,64.4715882 76.514487,64.213 76.8347913,64.213 C77.1527913,64.213 77.4131826,64.4715882 77.4131826,64.7925147" id="Fill-43" fill="#FFFFFF" mask="url(#mask-2)"></path>
            <path d="M83.1148304,63.7036735 C83.1148304,64.0246 83.3752217,64.2831882 83.6932217,64.2831882 C84.0135261,64.2831882 84.2739174,64.0246 84.2739174,63.7036735 C84.2739174,63.3827471 84.0135261,63.1241588 83.6932217,63.1241588 C83.3752217,63.1241588 83.1148304,63.3827471 83.1148304,63.7036735" id="Fill-44" fill="#FFFFFF" mask="url(#mask-2)"></path>
            <path d="M83.9478522,62.9052824 C83.9478522,63.2262088 84.2082435,63.4847971 84.5262435,63.4847971 C84.8465478,63.4847971 85.1069391,63.2262088 85.1069391,62.9052824 C85.1069391,62.5843559 84.8465478,62.3257676 84.5262435,62.3257676 C84.2082435,62.3257676 83.9478522,62.5843559 83.9478522,62.9052824" id="Fill-45" fill="#FFFFFF" mask="url(#mask-2)"></path>
            <path d="M82.0495304,64.0666206 C82.0495304,64.3875471 82.3099217,64.6461353 82.6279217,64.6461353 C82.9482261,64.6461353 83.2086174,64.3875471 83.2086174,64.0666206 C83.2086174,63.7456941 82.9482261,63.4871059 82.6279217,63.4871059 C82.3099217,63.4871059 82.0495304,63.7456941 82.0495304,64.0666206" id="Fill-46" fill="#FFFFFF" mask="url(#mask-2)"></path>
            <path d="M80.8904435,64.3409088 C80.8904435,64.6618353 81.1508348,64.9204235 81.4688348,64.9204235 C81.7891391,64.9204235 82.0495304,64.6618353 82.0495304,64.3409088 C82.0495304,64.0199824 81.7891391,63.7613941 81.4688348,63.7613941 C81.1508348,63.7613941 80.8904435,64.0199824 80.8904435,64.3409088" id="Fill-47" fill="#FFFFFF" mask="url(#mask-2)"></path>
            <path d="M79.7313565,64.5413147 C79.7313565,64.8622412 79.9917478,65.1208294 80.3097478,65.1208294 C80.6300522,65.1208294 80.8904435,64.8622412 80.8904435,64.5413147 C80.8904435,64.2203882 80.6300522,63.9618 80.3097478,63.9618 C79.9917478,63.9618 79.7313565,64.2203882 79.7313565,64.5413147" id="Fill-48" fill="#FFFFFF" mask="url(#mask-2)"></path>
            <path d="M78.5722696,64.6472897 C78.5722696,64.9682162 78.8326609,65.2268044 79.1506609,65.2268044 C79.4709652,65.2268044 79.7313565,64.9682162 79.7313565,64.6472897 C79.7313565,64.3263632 79.4709652,64.067775 79.1506609,64.067775 C78.8326609,64.067775 78.5722696,64.3263632 78.5722696,64.6472897" id="Fill-49" fill="#FFFFFF" mask="url(#mask-2)"></path>
            <path d="M77.4131826,64.7144765 C77.4131826,65.0354029 77.6735739,65.2939912 77.9915739,65.2939912 C78.3118783,65.2939912 78.5722696,65.0354029 78.5722696,64.7144765 C78.5722696,64.39355 78.3118783,64.1349618 77.9915739,64.1349618 C77.6735739,64.1349618 77.4131826,64.39355 77.4131826,64.7144765" id="Fill-50" fill="#FFFFFF" mask="url(#mask-2)"></path>
            <path d="M61.2712261,32.3904853 C61.2712261,35.7452059 60.0130522,38.465 58.4599217,38.465 C56.9067913,38.465 55.6486174,35.7452059 55.6486174,32.3904853 C55.6486174,29.0357647 56.9067913,26.3159706 58.4599217,26.3159706 C60.0130522,26.3159706 61.2712261,29.0357647 61.2712261,32.3904853" id="Fill-51" fill="#1D1C1A" mask="url(#mask-2)"></path>
            <polygon id="Fill-52" fill="#1D1C1A" mask="url(#mask-2)" points="58.459 38.4661544 62.1044783 38.4661544 62.1044783 26.317125 58.459 26.317125"></polygon>
            <path d="M92.8689043,32.3904853 C92.8689043,35.7452059 94.1270783,38.465 95.6802087,38.465 C97.2333391,38.465 98.491513,35.7452059 98.491513,32.3904853 C98.491513,29.0357647 97.2333391,26.3159706 95.6802087,26.3159706 C94.1270783,26.3159706 92.8689043,29.0357647 92.8689043,32.3904853" id="Fill-53" fill="#1D1C1A" mask="url(#mask-2)"></path>
            <polygon id="Fill-54" fill="#1D1C1A" mask="url(#mask-2)" points="92.0356522 38.4661544 95.6811304 38.4661544 95.6811304 26.317125 92.0356522 26.317125"></polygon>
            <path d="M60.9336391,32.3904853 L60.9336391,16.5658088 C60.9336391,16.5658088 60.5902913,6.76716176 77.070987,6.76716176" id="Stroke-55" stroke="#1D1C1A" mask="url(#mask-2)"></path>
            <path d="M61.5046565,35.4402103 L61.5046565,40.6142838 C61.5046565,44.9133132 64.3274826,46.3147691 70.3625696,46.3147691" id="Stroke-56" stroke="#1D1C1A" stroke-width="0.5" mask="url(#mask-2)"></path>
            <path d="M166.837548,28.5010412 C166.837548,31.8557618 165.579374,34.5755559 164.026243,34.5755559 C162.473113,34.5755559 161.214939,31.8557618 161.214939,28.5010412 C161.214939,25.1463206 162.473113,22.4265265 164.026243,22.4265265 C165.579374,22.4265265 166.837548,25.1463206 166.837548,28.5010412" id="Fill-57" fill="#1D1C1A" mask="url(#mask-2)"></path>
            <polygon id="Fill-58" fill="#1D1C1A" mask="url(#mask-2)" points="164.028087 34.5757868 167.671261 34.5757868 167.671261 22.4267574 164.028087 22.4267574"></polygon>
            <path d="M166.499961,28.5010412 L166.499961,15.7286294 C166.811048,10.6769235 167.712048,2.87771765 184.190439,2.87771765" id="Stroke-59" stroke="#1D1C1A" mask="url(#mask-2)"></path>
            <path d="M201.545174,28.5010412 C201.545174,31.8557618 202.803348,34.5755559 204.356478,34.5755559 C205.909609,34.5755559 207.167783,31.8557618 207.167783,28.5010412 C207.167783,25.1463206 205.909609,22.4265265 204.356478,22.4265265 C202.803348,22.4265265 201.545174,25.1463206 201.545174,28.5010412" id="Fill-60" fill="#1D1C1A" mask="url(#mask-2)"></path>
            <polygon id="Fill-61" fill="#1D1C1A" mask="url(#mask-2)" points="200.711 34.5757868 204.356478 34.5757868 204.356478 22.4267574 200.711 22.4267574"></polygon>
            <path d="M201.882991,28.5010412 L201.882991,15.7286294 C201.571904,10.6769235 200.670904,2.87771765 184.192513,2.87771765" id="Stroke-62" stroke="#1D1C1A" mask="url(#mask-2)"></path>
            <path d="M93.1304478,32.3904853 L93.1304478,16.5658088 C93.1304478,16.5658088 93.4737957,6.76716176 76.9931,6.76716176" id="Stroke-63" stroke="#1D1C1A" mask="url(#mask-2)"></path>
            <path d="M73.9158739,46.3143074 C73.9158739,47.5564544 72.7498739,48.5631015 71.3119609,48.5631015 C69.8740478,48.5631015 68.7080478,47.5564544 68.7080478,46.3143074 C68.7080478,45.0721603 69.8740478,44.0655132 71.3119609,44.0655132 C72.7498739,44.0655132 73.9158739,45.0721603 73.9158739,46.3143074" id="Fill-64" fill="#1D1C1A" mask="url(#mask-2)"></path>
            <path d="M167.0719,34.0528382 L167.0719,39.2269118 C167.0719,43.5259412 169.894726,44.9273971 175.929813,44.9273971" id="Stroke-65" stroke="#1D1C1A" stroke-width="0.5" mask="url(#mask-2)"></path>
            <path d="M179.483117,44.9269353 C179.483117,46.1690824 178.317117,47.1757294 176.879204,47.1757294 C175.441291,47.1757294 174.275291,46.1690824 174.275291,44.9269353 C174.275291,43.6847882 175.441291,42.6781412 176.879204,42.6781412 C178.317117,42.6781412 179.483117,43.6847882 179.483117,44.9269353" id="Fill-66" fill="#1D1C1A" mask="url(#mask-2)"></path>
            <polygon id="Fill-67" fill="#C5C0C0" mask="url(#mask-2)" points="0 155.14486 265 155.14486 265 116.317375 0 116.317375"></polygon>
        </g>
    </g>
</svg>