<?xml version="1.0" encoding="UTF-8" standalone="no"?>
<svg width="222px" height="43px" viewBox="0 0 222 43" version="1.1" xmlns="http://www.w3.org/2000/svg" xmlns:xlink="http://www.w3.org/1999/xlink">
    <!-- Generator: Sketch 3.8.2 (29753) - http://www.bohemiancoding.com/sketch -->
    <title>Group 7</title>
    <desc>Created with Sketch.</desc>
    <defs>
        <polygon id="path-1" points="0.00942512995 22.1760448 35.0267115 22.1760448 35.0267115 0.0192456389 0.00942512995 0.0192456389"></polygon>
        <polygon id="path-3" points="0 38.3356278 99.6830815 38.3356278 99.6830815 0.000302400611 0 0.000302400611"></polygon>
    </defs>
    <g id="Page-1" stroke="none" stroke-width="1" fill="none" fill-rule="evenodd">
        <g id="06---Autoridades-designadas" transform="translate(-104.000000, -27.000000)">
            <g id="Group-7" transform="translate(104.000000, 27.000000)">
                <g id="Group">
                    <g id="Page-1" transform="translate(0.127928, 0.000000)">
                        <path d="M55.3674301,16.5627335 C54.5093749,16.5627335 53.8145711,15.864188 53.8145711,15.0032823 C53.8145711,14.1415846 54.5093749,13.4438312 55.3674301,13.4438312 C56.2254853,13.4438312 56.9202892,14.1415846 56.9202892,15.0032823 C56.9202892,15.864188 56.2254853,16.5627335 55.3674301,16.5627335" id="Fill-1" fill="#FFFFFF"></path>
                        <path d="M51.0307025,16.5627335 C50.1726473,16.5627335 49.4778435,15.864188 49.4778435,15.0032823 C49.4778435,14.1415846 50.1726473,13.4438312 51.0307025,13.4438312 C51.8887577,13.4438312 52.5835616,14.1415846 52.5835616,15.0032823 C52.5835616,15.864188 51.8887577,16.5627335 51.0307025,16.5627335" id="Fill-3" fill="#FFFFFF"></path>
                        <path d="M46.8013107,16.5627335 C45.9432555,16.5627335 45.2484516,15.864188 45.2484516,15.0032823 C45.2484516,14.1415846 45.9432555,13.4438312 46.8013107,13.4438312 C47.6593659,13.4438312 48.3541697,14.1415846 48.3541697,15.0032823 C48.3541697,15.864188 47.6593659,16.5627335 46.8013107,16.5627335" id="Fill-5" fill="#FFFFFF"></path>
                        <path d="M42.4678954,16.5627335 C41.6098402,16.5627335 40.9150364,15.864188 40.9150364,15.0032823 C40.9150364,14.1415846 41.6098402,13.4438312 42.4678954,13.4438312 C43.3259506,13.4438312 44.0207545,14.1415846 44.0207545,15.0032823 C44.0207545,15.864188 43.3259506,16.5627335 42.4678954,16.5627335" id="Fill-7" fill="#FFFFFF"></path>
                        <path d="M38.134559,16.5627335 C37.2765038,16.5627335 36.5817,15.864188 36.5817,15.0032823 C36.5817,14.1415846 37.2765038,13.4438312 38.134559,13.4438312 C38.9926142,13.4438312 39.6874181,14.1415846 39.6874181,15.0032823 C39.6874181,15.864188 38.9926142,16.5627335 38.134559,16.5627335" id="Fill-9" fill="#FFFFFF"></path>
                        <path d="M33.8011438,16.5627335 C32.9430886,16.5627335 32.2482847,15.864188 32.2482847,15.0032823 C32.2482847,14.1415846 32.9430886,13.4438312 33.8011438,13.4438312 C34.6591989,13.4438312 35.3540028,14.1415846 35.3540028,15.0032823 C35.3540028,15.864188 34.6591989,16.5627335 33.8011438,16.5627335" id="Fill-11" fill="#FFFFFF"></path>
                        <path d="M16.2345144,37.42263 C15.1327653,37.42263 14.2392207,36.5252922 14.2392207,35.4188659 C14.2392207,34.3116477 15.1327653,33.4143099 16.2345144,33.4143099 C17.3362636,33.4143099 18.2298082,34.3116477 18.2298082,35.4188659 C18.2298082,36.5252922 17.3362636,37.42263 16.2345144,37.42263" id="Fill-13" fill="#FFFFFF"></path>
                        <path d="M13.6375568,41.4291285 C12.5358076,41.4291285 11.642263,40.5317907 11.642263,39.4253644 C11.642263,38.3181462 12.5358076,37.4208084 13.6375568,37.4208084 C14.739306,37.4208084 15.6328506,38.3181462 15.6328506,39.4253644 C15.6328506,40.5317907 14.739306,41.4291285 13.6375568,41.4291285" id="Fill-15" fill="#FFFFFF"></path>
                        <path d="M18.8556049,33.3098449 C17.7538557,33.3098449 16.8603111,32.4125071 16.8603111,31.3060808 C16.8603111,30.1988626 17.7538557,29.3015248 18.8556049,29.3015248 C19.957354,29.3015248 20.8508986,30.1988626 20.8508986,31.3060808 C20.8508986,32.4125071 19.957354,33.3098449 18.8556049,33.3098449" id="Fill-17" fill="#FFFFFF"></path>
                        <path d="M21.5285098,29.2771311 C20.4267607,29.2771311 19.5332161,28.3797933 19.5332161,27.2733671 C19.5332161,26.1661488 20.4267607,25.268811 21.5285098,25.268811 C22.630259,25.268811 23.5238036,26.1661488 23.5238036,27.2733671 C23.5238036,28.3797933 22.630259,29.2771311 21.5285098,29.2771311" id="Fill-19" fill="#FFFFFF"></path>
                        <path d="M24.1925819,25.1454172 C23.0908327,25.1454172 22.1972882,24.2480794 22.1972882,23.1416531 C22.1972882,22.0344349 23.0908327,21.1370971 24.1925819,21.1370971 C25.2943311,21.1370971 26.1878757,22.0344349 26.1878757,23.1416531 C26.1878757,24.2480794 25.2943311,25.1454172 24.1925819,25.1454172" id="Fill-21" fill="#FFFFFF"></path>
                        <path d="M26.7971106,21.0172672 C25.7552991,21.0172672 24.9114397,20.1690335 24.9114397,19.1235914 C24.9114397,18.0773573 25.7552991,17.2291236 26.7971106,17.2291236 C27.8389221,17.2291236 28.6827815,18.0773573 28.6827815,19.1235914 C28.6827815,20.1690335 27.8389221,21.0172672 26.7971106,21.0172672" id="Fill-23" fill="#FFFFFF"></path>
                        <path d="M24.0969182,14.9032525 C23.0551067,14.9032525 22.2112473,14.0550188 22.2112473,13.0095767 C22.2112473,11.9633426 23.0551067,11.1151088 24.0969182,11.1151088 C25.1387297,11.1151088 25.9825891,11.9633426 25.9825891,13.0095767 C25.9825891,14.0550188 25.1387297,14.9032525 24.0969182,14.9032525" id="Fill-25" fill="#FFFFFF"></path>
                        <path d="M17.5663139,23.1832332 C16.4645647,23.1832332 15.5710201,22.2858954 15.5710201,21.1794692 C15.5710201,20.0722509 16.4645647,19.1749131 17.5663139,19.1749131 C18.668063,19.1749131 19.5616076,20.0722509 19.5616076,21.1794692 C19.5616076,22.2858954 18.668063,23.1832332 17.5663139,23.1832332" id="Fill-27" fill="#FFFFFF"></path>
                        <path d="M29.8082692,17.2190652 C28.965987,17.2190652 28.283013,16.5331918 28.283013,15.6873341 C28.283013,14.8406844 28.965987,14.154811 29.8082692,14.154811 C30.6505513,14.154811 31.3335253,14.8406844 31.3335253,15.6873341 C31.3335253,16.5331918 30.6505513,17.2190652 29.8082692,17.2190652" id="Fill-29" fill="#FFFFFF"></path>
                        <path d="M59.6295511,16.5627335 C60.4876063,16.5627335 61.1824101,15.864188 61.1824101,15.0032823 C61.1824101,14.1415846 60.4876063,13.4438312 59.6295511,13.4438312 C58.7714959,13.4438312 58.076692,14.1415846 58.076692,15.0032823 C58.076692,15.864188 58.7714959,16.5627335 59.6295511,16.5627335" id="Fill-31" fill="#FFFFFF"></path>
                        <path d="M63.8590218,16.5627335 C64.717077,16.5627335 65.4118809,15.864188 65.4118809,15.0032823 C65.4118809,14.1415846 64.717077,13.4438312 63.8590218,13.4438312 C63.0009666,13.4438312 62.3061627,14.1415846 62.3061627,15.0032823 C62.3061627,15.864188 63.0009666,16.5627335 63.8590218,16.5627335" id="Fill-33" fill="#FFFFFF"></path>
                        <path d="M68.1923582,16.5627335 C69.0504134,16.5627335 69.7452172,15.864188 69.7452172,15.0032823 C69.7452172,14.1415846 69.0504134,13.4438312 68.1923582,13.4438312 C67.334303,13.4438312 66.6394991,14.1415846 66.6394991,15.0032823 C66.6394991,15.864188 67.334303,16.5627335 68.1923582,16.5627335" id="Fill-35" fill="#FFFFFF"></path>
                        <path d="M72.5257735,16.5627335 C73.3838286,16.5627335 74.0786325,15.864188 74.0786325,15.0032823 C74.0786325,14.1415846 73.3838286,13.4438312 72.5257735,13.4438312 C71.6677183,13.4438312 70.9729144,14.1415846 70.9729144,15.0032823 C70.9729144,15.864188 71.6677183,16.5627335 72.5257735,16.5627335" id="Fill-37" fill="#FFFFFF"></path>
                        <path d="M76.8591098,16.5627335 C77.717165,16.5627335 78.4119689,15.864188 78.4119689,15.0032823 C78.4119689,14.1415846 77.717165,13.4438312 76.8591098,13.4438312 C76.0010547,13.4438312 75.3062508,14.1415846 75.3062508,15.0032823 C75.3062508,15.864188 76.0010547,16.5627335 76.8591098,16.5627335" id="Fill-39" fill="#FFFFFF"></path>
                        <path d="M94.4257392,37.42263 C95.5274883,37.42263 96.4210329,36.5252922 96.4210329,35.4188659 C96.4210329,34.3116477 95.5274883,33.4143099 94.4257392,33.4143099 C93.32399,33.4143099 92.4304454,34.3116477 92.4304454,35.4188659 C92.4304454,36.5252922 93.32399,37.42263 94.4257392,37.42263" id="Fill-41" fill="#FFFFFF"></path>
                        <path d="M97.0226968,41.4291285 C98.124446,41.4291285 99.0179906,40.5317907 99.0179906,39.4253644 C99.0179906,38.3181462 98.124446,37.4208084 97.0226968,37.4208084 C95.9209476,37.4208084 95.0274031,38.3181462 95.0274031,39.4253644 C95.0274031,40.5317907 95.9209476,41.4291285 97.0226968,41.4291285" id="Fill-43" fill="#FFFFFF"></path>
                        <path d="M102.788544,35.3113121 C103.890293,35.3113121 104.783837,34.4139743 104.783837,33.3075481 C104.783837,32.2003298 103.890293,31.302992 102.788544,31.302992 C101.686795,31.302992 100.79325,32.2003298 100.79325,33.3075481 C100.79325,34.4139743 101.686795,35.3113121 102.788544,35.3113121" id="Fill-45" fill="#FFFFFF"></path>
                        <path d="M91.8046487,33.3098449 C92.9063979,33.3098449 93.7999425,32.4125071 93.7999425,31.3060808 C93.7999425,30.1988626 92.9063979,29.3015248 91.8046487,29.3015248 C90.7028996,29.3015248 89.809355,30.1988626 89.809355,31.3060808 C89.809355,32.4125071 90.7028996,33.3098449 91.8046487,33.3098449" id="Fill-47" fill="#FFFFFF"></path>
                        <path d="M89.1317438,29.2771311 C90.2334929,29.2771311 91.1270375,28.3797933 91.1270375,27.2733671 C91.1270375,26.1661488 90.2334929,25.268811 89.1317438,25.268811 C88.0299946,25.268811 87.13645,26.1661488 87.13645,27.2733671 C87.13645,28.3797933 88.0299946,29.2771311 89.1317438,29.2771311" id="Fill-49" fill="#FFFFFF"></path>
                        <path d="M86.4676717,25.1454172 C87.5694209,25.1454172 88.4629655,24.2480794 88.4629655,23.1416531 C88.4629655,22.0344349 87.5694209,21.1370971 86.4676717,21.1370971 C85.3659225,21.1370971 84.4723779,22.0344349 84.4723779,23.1416531 C84.4723779,24.2480794 85.3659225,25.1454172 86.4676717,25.1454172" id="Fill-51" fill="#FFFFFF"></path>
                        <path d="M83.8632219,21.0172672 C84.9050333,21.0172672 85.7488928,20.1690335 85.7488928,19.1235914 C85.7488928,18.0773573 84.9050333,17.2291236 83.8632219,17.2291236 C82.8214104,17.2291236 81.977551,18.0773573 81.977551,19.1235914 C81.977551,20.1690335 82.8214104,21.0172672 83.8632219,21.0172672" id="Fill-53" fill="#FFFFFF"></path>
                        <path d="M93.0939397,23.9484652 C94.1956889,23.9484652 95.0892335,23.0511274 95.0892335,21.9447011 C95.0892335,20.8374829 94.1956889,19.9401451 93.0939397,19.9401451 C91.9921906,19.9401451 91.098646,20.8374829 91.098646,21.9447011 C91.098646,23.0511274 91.9921906,23.9484652 93.0939397,23.9484652" id="Fill-55" fill="#FFFFFF"></path>
                        <path d="M80.8519845,17.2190652 C81.6942666,17.2190652 82.3772406,16.5331918 82.3772406,15.6873341 C82.3772406,14.8406844 81.6942666,14.154811 80.8519845,14.154811 C80.0097023,14.154811 79.3267283,14.8406844 79.3267283,15.6873341 C79.3267283,16.5331918 80.0097023,17.2190652 80.8519845,17.2190652" id="Fill-57" fill="#FFFFFF"></path>
                        <path d="M20.8864669,19.02966 C19.7847177,19.02966 18.8911731,18.1323222 18.8911731,17.025896 C18.8911731,15.9186777 19.7847177,15.0213399 20.8864669,15.0213399 C21.9882161,15.0213399 22.8817607,15.9186777 22.8817607,17.025896 C22.8817607,18.1323222 21.9882161,19.02966 20.8864669,19.02966" id="Fill-59" fill="#FFFFFF"></path>
                        <path d="M11.0545583,31.3278609 C9.95280918,31.3278609 9.05926458,30.4305231 9.05926458,29.3240968 C9.05926458,28.2168786 9.95280918,27.3195408 11.0545583,27.3195408 C12.1563075,27.3195408 13.0498521,28.2168786 13.0498521,29.3240968 C13.0498521,30.4305231 12.1563075,31.3278609 11.0545583,31.3278609" id="Fill-61" fill="#FFFFFF"></path>
                        <path d="M7.87178877,35.3113121 C6.7700396,35.3113121 5.87649501,34.4139743 5.87649501,33.3075481 C5.87649501,32.2003298 6.7700396,31.302992 7.87178877,31.302992 C8.97353793,31.302992 9.86708252,32.2003298 9.86708252,33.3075481 C9.86708252,34.4139743 8.97353793,35.3113121 7.87178877,35.3113121" id="Fill-63" fill="#FFFFFF"></path>
                        <path d="M14.3189536,27.2458054 C13.2172044,27.2458054 12.3236598,26.3484676 12.3236598,25.2420414 C12.3236598,24.1348231 13.2172044,23.2374853 14.3189536,23.2374853 C15.4207027,23.2374853 16.3142473,24.1348231 16.3142473,25.2420414 C16.3142473,26.3484676 15.4207027,27.2458054 14.3189536,27.2458054" id="Fill-65" fill="#FFFFFF"></path>
                        <path d="M27.7141571,11.1020408 C26.871875,11.1020408 26.1889009,10.4161674 26.1889009,9.57030973 C26.1889009,8.72366002 26.871875,8.03778663 27.7141571,8.03778663 C28.5564392,8.03778663 29.2394133,8.72366002 29.2394133,9.57030973 C29.2394133,10.4161674 28.5564392,11.1020408 27.7141571,11.1020408" id="Fill-67" fill="#FFFFFF"></path>
                        <path d="M32.057746,10.4696275 C31.1996908,10.4696275 30.5048869,9.77108213 30.5048869,8.9101764 C30.5048869,8.04847865 31.1996908,7.35072525 32.057746,7.35072525 C32.9158012,7.35072525 33.610605,8.04847865 33.610605,8.9101764 C33.610605,9.77108213 32.9158012,10.4696275 32.057746,10.4696275" id="Fill-69" fill="#FFFFFF"></path>
                        <path d="M36.7418755,10.4696275 C35.8838203,10.4696275 35.1890165,9.77108213 35.1890165,8.9101764 C35.1890165,8.04847865 35.8838203,7.35072525 36.7418755,7.35072525 C37.5999307,7.35072525 38.2947346,8.04847865 38.2947346,8.9101764 C38.2947346,9.77108213 37.5999307,10.4696275 36.7418755,10.4696275" id="Fill-71" fill="#FFFFFF"></path>
                        <path d="M41.4259262,10.4696275 C40.567871,10.4696275 39.8730671,9.77108213 39.8730671,8.9101764 C39.8730671,8.04847865 40.567871,7.35072525 41.4259262,7.35072525 C42.2839814,7.35072525 42.9787853,8.04847865 42.9787853,8.9101764 C42.9787853,9.77108213 42.2839814,10.4696275 41.4259262,10.4696275" id="Fill-73" fill="#FFFFFF"></path>
                        <path d="M46.1099769,10.4696275 C45.2519217,10.4696275 44.5571178,9.77108213 44.5571178,8.9101764 C44.5571178,8.04847865 45.2519217,7.35072525 46.1099769,7.35072525 C46.9680321,7.35072525 47.6628359,8.04847865 47.6628359,8.9101764 C47.6628359,9.77108213 46.9680321,10.4696275 46.1099769,10.4696275" id="Fill-75" fill="#FFFFFF"></path>
                        <path d="M50.6817233,10.4696275 C49.8236681,10.4696275 49.1288642,9.77108213 49.1288642,8.9101764 C49.1288642,8.04847865 49.8236681,7.35072525 50.6817233,7.35072525 C51.5397785,7.35072525 52.2345823,8.04847865 52.2345823,8.9101764 C52.2345823,9.77108213 51.5397785,10.4696275 50.6817233,10.4696275" id="Fill-77" fill="#FFFFFF"></path>
                        <path d="M55.3623827,10.4696275 C54.5043276,10.4696275 53.8095237,9.77108213 53.8095237,8.9101764 C53.8095237,8.04847865 54.5043276,7.35072525 55.3623827,7.35072525 C56.2204379,7.35072525 56.9152418,8.04847865 56.9152418,8.9101764 C56.9152418,9.77108213 56.2204379,10.4696275 55.3623827,10.4696275" id="Fill-79" fill="#FFFFFF"></path>
                        <path d="M86.5634143,14.9032525 C87.6052257,14.9032525 88.4490852,14.0550188 88.4490852,13.0095767 C88.4490852,11.9633426 87.6052257,11.1151088 86.5634143,11.1151088 C85.5216028,11.1151088 84.6777434,11.9633426 84.6777434,13.0095767 C84.6777434,14.0550188 85.5216028,14.9032525 86.5634143,14.9032525" id="Fill-81" fill="#FFFFFF"></path>
                        <path d="M89.7737867,19.02966 C90.8755359,19.02966 91.7690805,18.1323222 91.7690805,17.025896 C91.7690805,15.9186777 90.8755359,15.0213399 89.7737867,15.0213399 C88.6720375,15.0213399 87.7784929,15.9186777 87.7784929,17.025896 C87.7784929,18.1323222 88.6720375,19.02966 89.7737867,19.02966" id="Fill-83" fill="#FFFFFF"></path>
                        <path d="M96.3413789,27.2458054 C97.4431281,27.2458054 98.3366727,26.3484676 98.3366727,25.2420414 C98.3366727,24.1348231 97.4431281,23.2374853 96.3413789,23.2374853 C95.2396298,23.2374853 94.3460852,24.1348231 94.3460852,25.2420414 C94.3460852,26.3484676 95.2396298,27.2458054 96.3413789,27.2458054" id="Fill-85" fill="#FFFFFF"></path>
                        <path d="M99.6057741,31.3278609 C100.707523,31.3278609 101.601068,30.4305231 101.601068,29.3240968 C101.601068,28.2168786 100.707523,27.3195408 99.6057741,27.3195408 C98.504025,27.3195408 97.6104804,28.2168786 97.6104804,29.3240968 C97.6104804,30.4305231 98.504025,31.3278609 99.6057741,31.3278609" id="Fill-87" fill="#FFFFFF"></path>
                        <path d="M82.9460965,11.1020408 C83.7883786,11.1020408 84.4713527,10.4161674 84.4713527,9.57030973 C84.4713527,8.72366002 83.7883786,8.03778663 82.9460965,8.03778663 C82.1038144,8.03778663 81.4208403,8.72366002 81.4208403,9.57030973 C81.4208403,10.4161674 82.1038144,11.1020408 82.9460965,11.1020408" id="Fill-89" fill="#FFFFFF"></path>
                        <path d="M78.6025076,10.4696275 C79.4605628,10.4696275 80.1553667,9.77108213 80.1553667,8.9101764 C80.1553667,8.04847865 79.4605628,7.35072525 78.6025076,7.35072525 C77.7444524,7.35072525 77.0496486,8.04847865 77.0496486,8.9101764 C77.0496486,9.77108213 77.7444524,10.4696275 78.6025076,10.4696275" id="Fill-91" fill="#FFFFFF"></path>
                        <path d="M73.9184569,10.4696275 C74.7765121,10.4696275 75.471316,9.77108213 75.471316,8.9101764 C75.471316,8.04847865 74.7765121,7.35072525 73.9184569,7.35072525 C73.0604018,7.35072525 72.3655979,8.04847865 72.3655979,8.9101764 C72.3655979,9.77108213 73.0604018,10.4696275 73.9184569,10.4696275" id="Fill-93" fill="#FFFFFF"></path>
                        <path d="M69.2344063,10.4696275 C70.0924615,10.4696275 70.7872653,9.77108213 70.7872653,8.9101764 C70.7872653,8.04847865 70.0924615,7.35072525 69.2344063,7.35072525 C68.3763511,7.35072525 67.6815472,8.04847865 67.6815472,8.9101764 C67.6815472,9.77108213 68.3763511,10.4696275 69.2344063,10.4696275" id="Fill-95" fill="#FFFFFF"></path>
                        <path d="M64.5502767,10.4696275 C65.4083319,10.4696275 66.1031358,9.77108213 66.1031358,8.9101764 C66.1031358,8.04847865 65.4083319,7.35072525 64.5502767,7.35072525 C63.6922215,7.35072525 62.9974177,8.04847865 62.9974177,8.9101764 C62.9974177,9.77108213 63.6922215,10.4696275 64.5502767,10.4696275" id="Fill-97" fill="#FFFFFF"></path>
                        <path d="M59.9786092,10.4696275 C60.8366644,10.4696275 61.5314683,9.77108213 61.5314683,8.9101764 C61.5314683,8.04847865 60.8366644,7.35072525 59.9786092,7.35072525 C59.120554,7.35072525 58.4257501,8.04847865 58.4257501,8.9101764 C58.4257501,9.77108213 59.120554,10.4696275 59.9786092,10.4696275" id="Fill-99" fill="#FFFFFF"></path>
                        <path d="M1.99553035,29.3175232 C0.893781192,29.3175232 0.000236596097,28.4201854 0.000236596097,27.3137592 C0.000236596097,26.2065409 0.893781192,25.3092031 1.99553035,25.3092031 C3.09727951,25.3092031 3.99082411,26.2065409 3.99082411,27.3137592 C3.99082411,28.4201854 3.09727951,29.3175232 1.99553035,29.3175232" id="Fill-101" fill="#FFFFFF"></path>
                        <path d="M21.3989341,8.79359376 C20.3571226,8.79359376 19.5132632,7.94536005 19.5132632,6.89991794 C19.5132632,5.85368382 20.3571226,5.00545011 21.3989341,5.00545011 C22.4407455,5.00545011 23.284605,5.85368382 23.284605,6.89991794 C23.284605,7.94536005 22.4407455,8.79359376 21.3989341,8.79359376" id="Fill-103" fill="#FFFFFF"></path>
                        <path d="M5.87617955,25.234755 C4.77443039,25.234755 3.88088579,24.3374172 3.88088579,23.2309909 C3.88088579,22.1237727 4.77443039,21.2264349 5.87617955,21.2264349 C6.97792871,21.2264349 7.8714733,22.1237727 7.8714733,23.2309909 C7.8714733,24.3374172 6.97792871,25.234755 5.87617955,25.234755" id="Fill-105" fill="#FFFFFF"></path>
                        <path d="M9.75690761,21.1519867 C8.65515844,21.1519867 7.76161385,20.2546489 7.76161385,19.1482227 C7.76161385,18.0410044 8.65515844,17.1436666 9.75690761,17.1436666 C10.8586568,17.1436666 11.7522014,18.0410044 11.7522014,19.1482227 C11.7522014,20.2546489 10.8586568,21.1519867 9.75690761,21.1519867" id="Fill-107" fill="#FFFFFF"></path>
                        <path d="M13.522019,16.9584966 C12.4202699,16.9584966 11.5267253,16.0611588 11.5267253,14.9547326 C11.5267253,13.8475144 12.4202699,12.9501766 13.522019,12.9501766 C14.6237682,12.9501766 15.5173128,13.8475144 15.5173128,14.9547326 C15.5173128,16.0611588 14.6237682,16.9584966 13.522019,16.9584966" id="Fill-109" fill="#FFFFFF"></path>
                        <path d="M17.5663139,12.8127643 C16.4645647,12.8127643 15.5710201,11.9154265 15.5710201,10.8090002 C15.5710201,9.70178199 16.4645647,8.80444418 17.5663139,8.80444418 C18.668063,8.80444418 19.5616076,9.70178199 19.5616076,10.8090002 C19.5616076,11.9154265 18.668063,12.8127643 17.5663139,12.8127643" id="Fill-111" fill="#FFFFFF"></path>
                        <path d="M25.6228842,5.02992296 C24.7806021,5.02992296 24.097628,4.34404957 24.097628,3.49819186 C24.097628,2.65154216 24.7806021,1.96566877 25.6228842,1.96566877 C26.4651663,1.96566877 27.1481404,2.65154216 27.1481404,3.49819186 C27.1481404,4.34404957 26.4651663,5.02992296 25.6228842,5.02992296" id="Fill-113" fill="#FFFFFF"></path>
                        <path d="M55.3623827,4.37660084 C54.5043276,4.37660084 53.8095237,3.67805543 53.8095237,2.81714969 C53.8095237,1.95545195 54.5043276,1.25769854 55.3623827,1.25769854 C56.2204379,1.25769854 56.9152418,1.95545195 56.9152418,2.81714969 C56.9152418,3.67805543 56.2204379,4.37660084 55.3623827,4.37660084" id="Fill-115" fill="#FFFFFF"></path>
                        <path d="M50.3326652,4.37660084 C49.47461,4.37660084 48.7798061,3.67805543 48.7798061,2.81714969 C48.7798061,1.95545195 49.47461,1.25769854 50.3326652,1.25769854 C51.1907203,1.25769854 51.8855242,1.95545195 51.8855242,2.81714969 C51.8855242,3.67805543 51.1907203,4.37660084 50.3326652,4.37660084" id="Fill-117" fill="#FFFFFF"></path>
                        <path d="M45.4186431,4.37660084 C44.5605879,4.37660084 43.865784,3.67805543 43.865784,2.81714969 C43.865784,1.95545195 44.5605879,1.25769854 45.4186431,1.25769854 C46.2766983,1.25769854 46.9715021,1.95545195 46.9715021,2.81714969 C46.9715021,3.67805543 46.2766983,4.37660084 45.4186431,4.37660084" id="Fill-119" fill="#FFFFFF"></path>
                        <path d="M40.3838781,4.37660084 C39.5258229,4.37660084 38.8310191,3.67805543 38.8310191,2.81714969 C38.8310191,1.95545195 39.5258229,1.25769854 40.3838781,1.25769854 C41.2419333,1.25769854 41.9367372,1.95545195 41.9367372,2.81714969 C41.9367372,3.67805543 41.2419333,4.37660084 40.3838781,4.37660084" id="Fill-121" fill="#FFFFFF"></path>
                        <path d="M35.3541605,4.37660084 C34.4961054,4.37660084 33.8013015,3.67805543 33.8013015,2.81714969 C33.8013015,1.95545195 34.4961054,1.25769854 35.3541605,1.25769854 C36.2122157,1.25769854 36.9070196,1.95545195 36.9070196,2.81714969 C36.9070196,3.67805543 36.2122157,4.37660084 35.3541605,4.37660084" id="Fill-123" fill="#FFFFFF"></path>
                        <path d="M30.3143482,4.37660084 C29.456293,4.37660084 28.7614892,3.67805543 28.7614892,2.81714969 C28.7614892,1.95545195 29.456293,1.25769854 30.3143482,1.25769854 C31.1724034,1.25769854 31.8672073,1.95545195 31.8672073,2.81714969 C31.8672073,3.67805543 31.1724034,4.37660084 30.3143482,4.37660084" id="Fill-125" fill="#FFFFFF"></path>
                        <path d="M108.664723,29.3175232 C109.766472,29.3175232 110.660017,28.4201854 110.660017,27.3137592 C110.660017,26.2065409 109.766472,25.3092031 108.664723,25.3092031 C107.562974,25.3092031 106.669429,26.2065409 106.669429,27.3137592 C106.669429,28.4201854 107.562974,29.3175232 108.664723,29.3175232" id="Fill-127" fill="#FFFFFF"></path>
                        <path d="M89.2613984,8.79359376 C90.3032099,8.79359376 91.1470693,7.94536005 91.1470693,6.89991794 C91.1470693,5.85368382 90.3032099,5.00545011 89.2613984,5.00545011 C88.2195869,5.00545011 87.3757275,5.85368382 87.3757275,6.89991794 C87.3757275,7.94536005 88.2195869,8.79359376 89.2613984,8.79359376" id="Fill-129" fill="#FFFFFF"></path>
                        <path d="M104.784074,25.234755 C105.885823,25.234755 106.779368,24.3374172 106.779368,23.2309909 C106.779368,22.1237727 105.885823,21.2264349 104.784074,21.2264349 C103.682325,21.2264349 102.78878,22.1237727 102.78878,23.2309909 C102.78878,24.3374172 103.682325,25.234755 104.784074,25.234755" id="Fill-131" fill="#FFFFFF"></path>
                        <path d="M100.903425,21.1519867 C102.005174,21.1519867 102.898719,20.2546489 102.898719,19.1482227 C102.898719,18.0410044 102.005174,17.1436666 100.903425,17.1436666 C99.8016757,17.1436666 98.9081311,18.0410044 98.9081311,19.1482227 C98.9081311,20.2546489 99.8016757,21.1519867 100.903425,21.1519867" id="Fill-133" fill="#FFFFFF"></path>
                        <path d="M97.1382346,16.9584966 C98.2399837,16.9584966 99.1335283,16.0611588 99.1335283,14.9547326 C99.1335283,13.8475144 98.2399837,12.9501766 97.1382346,12.9501766 C96.0364854,12.9501766 95.1429408,13.8475144 95.1429408,14.9547326 C95.1429408,16.0611588 96.0364854,16.9584966 97.1382346,16.9584966" id="Fill-135" fill="#FFFFFF"></path>
                        <path d="M93.0939397,12.8127643 C94.1956889,12.8127643 95.0892335,11.9154265 95.0892335,10.8090002 C95.0892335,9.70178199 94.1956889,8.80444418 93.0939397,8.80444418 C91.9921906,8.80444418 91.098646,9.70178199 91.098646,10.8090002 C91.098646,11.9154265 91.9921906,12.8127643 93.0939397,12.8127643" id="Fill-137" fill="#FFFFFF"></path>
                        <path d="M85.0373694,5.02992296 C85.8796515,5.02992296 86.5626256,4.34404957 86.5626256,3.49819186 C86.5626256,2.65154216 85.8796515,1.96566877 85.0373694,1.96566877 C84.1950873,1.96566877 83.5121132,2.65154216 83.5121132,3.49819186 C83.5121132,4.34404957 84.1950873,5.02992296 85.0373694,5.02992296" id="Fill-139" fill="#FFFFFF"></path>
                        <path d="M60.3275884,4.37660084 C61.1856436,4.37660084 61.8804475,3.67805543 61.8804475,2.81714969 C61.8804475,1.95545195 61.1856436,1.25769854 60.3275884,1.25769854 C59.4695333,1.25769854 58.7747294,1.95545195 58.7747294,2.81714969 C58.7747294,3.67805543 59.4695333,4.37660084 60.3275884,4.37660084" id="Fill-141" fill="#FFFFFF"></path>
                        <path d="M65.2416105,4.37660084 C66.0996657,4.37660084 66.7944696,3.67805543 66.7944696,2.81714969 C66.7944696,1.95545195 66.0996657,1.25769854 65.2416105,1.25769854 C64.3835553,1.25769854 63.6887515,1.95545195 63.6887515,2.81714969 C63.6887515,3.67805543 64.3835553,4.37660084 65.2416105,4.37660084" id="Fill-143" fill="#FFFFFF"></path>
                        <path d="M70.2763755,4.37660084 C71.1344307,4.37660084 71.8292345,3.67805543 71.8292345,2.81714969 C71.8292345,1.95545195 71.1344307,1.25769854 70.2763755,1.25769854 C69.4183203,1.25769854 68.7235164,1.95545195 68.7235164,2.81714969 C68.7235164,3.67805543 69.4183203,4.37660084 70.2763755,4.37660084" id="Fill-145" fill="#FFFFFF"></path>
                        <path d="M75.3061719,4.37660084 C76.1642271,4.37660084 76.859031,3.67805543 76.859031,2.81714969 C76.859031,1.95545195 76.1642271,1.25769854 75.3061719,1.25769854 C74.4481167,1.25769854 73.7533129,1.95545195 73.7533129,2.81714969 C73.7533129,3.67805543 74.4481167,4.37660084 75.3061719,4.37660084" id="Fill-147" fill="#FFFFFF"></path>
                        <path d="M80.3459054,4.37660084 C81.2039606,4.37660084 81.8987645,3.67805543 81.8987645,2.81714969 C81.8987645,1.95545195 81.2039606,1.25769854 80.3459054,1.25769854 C79.4878502,1.25769854 78.7930463,1.95545195 78.7930463,2.81714969 C78.7930463,3.67805543 79.4878502,4.37660084 80.3459054,4.37660084" id="Fill-149" fill="#FFFFFF"></path>
                        <path d="M50.749232,30.614109 C50.749232,31.9921918 52.5268574,33.1698982 54.7429742,33.3457225 L54.7429742,27.8824955 C52.5268574,28.0583199 50.749232,29.2368182 50.749232,30.614109" id="Fill-151" fill="#FFFFFF"></path>
                        <polygon id="Fill-153" fill="#FFFFFF" points="80.2098626 35.6244695 87.079036 35.6244695 82.4622575 28.0798623 80.9464652 25.6040653 75.743717 25.6040653"></polygon>
                        <path d="M90.8928074,41.8572845 L89.8036767,40.0776569 L87.78078,36.7726343 L79.4691591,36.7726343 L73.9801297,24.4562174 L80.2444057,24.4562174 L78.246746,21.1907948 L78.246746,21.1907948 C77.9959541,20.78133 77.3981546,20.4455213 76.9194419,20.4455213 L55.8860488,20.4455213 L55.8860488,26.72847 C58.8087992,26.9185504 61.0233387,28.5564097 61.0233387,30.6140298 C61.0233387,32.67165 58.8087992,34.3095093 55.8860488,34.5003817 L55.8860488,42.602558 L90.4779756,42.602558 C90.9566883,42.602558 91.1435992,42.2675414 90.8928074,41.8572845" id="Fill-155" fill="#FFFFFF"></path>
                        <polygon id="Fill-157" fill="#FFFFFF" points="34.8853059 25.6036693 29.7827168 25.6036693 23.6509346 35.6240735 30.4191603 35.6240735"></polygon>
                        <g id="Group-161" transform="translate(19.716341, 20.426513)">
                            <mask id="mask-2" fill="white">
                                <use xlink:href="#path-1"></use>
                            </mask>
                            <g id="Clip-160"></g>
                            <path d="M12.766962,0.764519144 L10.7693023,4.02914974 L16.9326307,4.02914974 L11.4436012,16.3455666 L3.23213929,16.3455666 L0.120900606,21.4310089 C-0.129891258,21.8404737 0.0570196595,22.1762824 0.53573243,22.1762824 L35.0267115,22.1762824 L35.0267115,14.073314 C32.1039611,13.8832336 29.8902103,12.2445823 29.8902103,10.1877542 C29.8902103,8.13013402 32.1039611,6.49227471 35.0267115,6.30219433 L35.0267115,0.0192456389 L14.0942661,0.0192456389 C13.6155534,0.0192456389 13.0177539,0.354262315 12.766962,0.764519144" id="Fill-159" fill="#FFFFFF" mask="url(#mask-2)"></path>
                        </g>
                        <path d="M59.8799486,30.614109 C59.8799486,29.2368182 58.1023233,28.0583199 55.8862065,27.8824955 L55.8862065,33.3457225 C58.1023233,33.1698982 59.8799486,31.9921918 59.8799486,30.614109" id="Fill-162" fill="#FFFFFF"></path>
                        <g id="Group-326" style="mix-blend-mode: multiply;" transform="translate(0.788654, 0.626473)">
                            <path d="M55.3731873,15.4708008 C54.5151321,15.4708008 53.8203282,14.7722554 53.8203282,13.9113497 C53.8203282,13.049652 54.5151321,12.3518985 55.3731873,12.3518985 C56.2312425,12.3518985 56.9260463,13.049652 56.9260463,13.9113497 C56.9260463,14.7722554 56.2312425,15.4708008 55.3731873,15.4708008" id="Fill-164" fill="#FFFFFF"></path>
                            <path d="M51.0364597,15.4708008 C50.1784045,15.4708008 49.4836006,14.7722554 49.4836006,13.9113497 C49.4836006,13.049652 50.1784045,12.3518985 51.0364597,12.3518985 C51.8945149,12.3518985 52.5893187,13.049652 52.5893187,13.9113497 C52.5893187,14.7722554 51.8945149,15.4708008 51.0364597,15.4708008" id="Fill-166" fill="#E75E34"></path>
                            <path d="M46.8070678,15.4708008 C45.9490127,15.4708008 45.2542088,14.7722554 45.2542088,13.9113497 C45.2542088,13.049652 45.9490127,12.3518985 46.8070678,12.3518985 C47.665123,12.3518985 48.3599269,13.049652 48.3599269,13.9113497 C48.3599269,14.7722554 47.665123,15.4708008 46.8070678,15.4708008" id="Fill-168" fill="#0FB9BF"></path>
                            <path d="M42.4736526,15.4708008 C41.6155974,15.4708008 40.9207935,14.7722554 40.9207935,13.9113497 C40.9207935,13.049652 41.6155974,12.3518985 42.4736526,12.3518985 C43.3317078,12.3518985 44.0265116,13.049652 44.0265116,13.9113497 C44.0265116,14.7722554 43.3317078,15.4708008 42.4736526,15.4708008" id="Fill-170" fill="#FFFFFF"></path>
                            <path d="M38.1403162,15.4708008 C37.282261,15.4708008 36.5874571,14.7722554 36.5874571,13.9113497 C36.5874571,13.049652 37.282261,12.3518985 38.1403162,12.3518985 C38.9983714,12.3518985 39.6931752,13.049652 39.6931752,13.9113497 C39.6931752,14.7722554 38.9983714,15.4708008 38.1403162,15.4708008" id="Fill-172" fill="#E75E34"></path>
                            <path d="M33.8069009,15.4708008 C32.9488458,15.4708008 32.2540419,14.7722554 32.2540419,13.9113497 C32.2540419,13.049652 32.9488458,12.3518985 33.8069009,12.3518985 C34.6649561,12.3518985 35.35976,13.049652 35.35976,13.9113497 C35.35976,14.7722554 34.6649561,15.4708008 33.8069009,15.4708008" id="Fill-174" fill="#0FB9BF"></path>
                            <path d="M16.2402716,36.3307766 C15.1385224,36.3307766 14.2449778,35.4334388 14.2449778,34.3270125 C14.2449778,33.2197943 15.1385224,32.3224565 16.2402716,32.3224565 C17.3420208,32.3224565 18.2355654,33.2197943 18.2355654,34.3270125 C18.2355654,35.4334388 17.3420208,36.3307766 16.2402716,36.3307766" id="Fill-176" fill="#0FB9BF"></path>
                            <path d="M13.643314,40.3371959 C12.5415648,40.3371959 11.6480202,39.4398581 11.6480202,38.3334318 C11.6480202,37.2262136 12.5415648,36.3288758 13.643314,36.3288758 C14.7450631,36.3288758 15.6386077,37.2262136 15.6386077,38.3334318 C15.6386077,39.4398581 14.7450631,40.3371959 13.643314,40.3371959" id="Fill-178" fill="#FFFFFF"></path>
                            <path d="M18.861362,32.2179915 C17.7596129,32.2179915 16.8660683,31.3206537 16.8660683,30.2142274 C16.8660683,29.1070092 17.7596129,28.2096714 18.861362,28.2096714 C19.9631112,28.2096714 20.8566558,29.1070092 20.8566558,30.2142274 C20.8566558,31.3206537 19.9631112,32.2179915 18.861362,32.2179915" id="Fill-180" fill="#E75E34"></path>
                            <path d="M21.534267,28.1851985 C20.4325179,28.1851985 19.5389733,27.2878607 19.5389733,26.1814345 C19.5389733,25.0742162 20.4325179,24.1768784 21.534267,24.1768784 C22.6360162,24.1768784 23.5295608,25.0742162 23.5295608,26.1814345 C23.5295608,27.2878607 22.6360162,28.1851985 21.534267,28.1851985" id="Fill-182" fill="#FFFFFF"></path>
                            <path d="M24.1983391,24.0534846 C23.0965899,24.0534846 22.2030453,23.1561468 22.2030453,22.0497205 C22.2030453,20.9425023 23.0965899,20.0451645 24.1983391,20.0451645 C25.3000882,20.0451645 26.1936328,20.9425023 26.1936328,22.0497205 C26.1936328,23.1561468 25.3000882,24.0534846 24.1983391,24.0534846" id="Fill-184" fill="#0FB9BF"></path>
                            <path d="M26.8027889,19.9253346 C25.7609774,19.9253346 24.917118,19.0771009 24.917118,18.0316588 C24.917118,16.9854247 25.7609774,16.137191 26.8027889,16.137191 C27.8446004,16.137191 28.6884598,16.9854247 28.6884598,18.0316588 C28.6884598,19.0771009 27.8446004,19.9253346 26.8027889,19.9253346" id="Fill-186" fill="#E75E34"></path>
                            <path d="M24.1026754,13.8113199 C23.0608639,13.8113199 22.2170045,12.9630862 22.2170045,11.9176441 C22.2170045,10.87141 23.0608639,10.0231762 24.1026754,10.0231762 C25.1444869,10.0231762 25.9883463,10.87141 25.9883463,11.9176441 C25.9883463,12.9630862 25.1444869,13.8113199 24.1026754,13.8113199" id="Fill-188" fill="#0FB9BF"></path>
                            <path d="M17.572071,22.0913006 C16.4703219,22.0913006 15.5767773,21.1939628 15.5767773,20.0875366 C15.5767773,18.9803183 16.4703219,18.0829805 17.572071,18.0829805 C18.6738202,18.0829805 19.5673648,18.9803183 19.5673648,20.0875366 C19.5673648,21.1939628 18.6738202,22.0913006 17.572071,22.0913006" id="Fill-190" fill="#E75E34"></path>
                            <path d="M29.8140263,16.1271326 C28.9717442,16.1271326 28.2887701,15.4412592 28.2887701,14.5954015 C28.2887701,13.7487518 28.9717442,13.0628784 29.8140263,13.0628784 C30.6563084,13.0628784 31.3392825,13.7487518 31.3392825,14.5954015 C31.3392825,15.4412592 30.6563084,16.1271326 29.8140263,16.1271326" id="Fill-192" fill="#FFFFFF"></path>
                            <path d="M59.6353083,15.4708008 C60.4933634,15.4708008 61.1881673,14.7722554 61.1881673,13.9113497 C61.1881673,13.049652 60.4933634,12.3518985 59.6353083,12.3518985 C58.7772531,12.3518985 58.0824492,13.049652 58.0824492,13.9113497 C58.0824492,14.7722554 58.7772531,15.4708008 59.6353083,15.4708008" id="Fill-194" fill="#E75E34"></path>
                            <path d="M63.864779,15.4708008 C64.7228342,15.4708008 65.417638,14.7722554 65.417638,13.9113497 C65.417638,13.049652 64.7228342,12.3518985 63.864779,12.3518985 C63.0067238,12.3518985 62.3119199,13.049652 62.3119199,13.9113497 C62.3119199,14.7722554 63.0067238,15.4708008 63.864779,15.4708008" id="Fill-196" fill="#0FB9BF"></path>
                            <path d="M68.1981154,15.4708008 C69.0561705,15.4708008 69.7509744,14.7722554 69.7509744,13.9113497 C69.7509744,13.049652 69.0561705,12.3518985 68.1981154,12.3518985 C67.3400602,12.3518985 66.6452563,13.049652 66.6452563,13.9113497 C66.6452563,14.7722554 67.3400602,15.4708008 68.1981154,15.4708008" id="Fill-198" fill="#FFFFFF"></path>
                            <path d="M72.5315306,15.4708008 C73.3895858,15.4708008 74.0843897,14.7722554 74.0843897,13.9113497 C74.0843897,13.049652 73.3895858,12.3518985 72.5315306,12.3518985 C71.6734754,12.3518985 70.9786716,13.049652 70.9786716,13.9113497 C70.9786716,14.7722554 71.6734754,15.4708008 72.5315306,15.4708008" id="Fill-200" fill="#E75E34"></path>
                            <path d="M76.864867,15.4708008 C77.7229222,15.4708008 78.4177261,14.7722554 78.4177261,13.9113497 C78.4177261,13.049652 77.7229222,12.3518985 76.864867,12.3518985 C76.0068118,12.3518985 75.312008,13.049652 75.312008,13.9113497 C75.312008,14.7722554 76.0068118,15.4708008 76.864867,15.4708008" id="Fill-202" fill="#0FB9BF"></path>
                            <path d="M94.4314963,36.3307766 C95.5332455,36.3307766 96.4267901,35.4334388 96.4267901,34.3270125 C96.4267901,33.2197943 95.5332455,32.3224565 94.4314963,32.3224565 C93.3297472,32.3224565 92.4362026,33.2197943 92.4362026,34.3270125 C92.4362026,35.4334388 93.3297472,36.3307766 94.4314963,36.3307766" id="Fill-204" fill="#0FB9BF"></path>
                            <path d="M97.028454,40.3371959 C98.1302031,40.3371959 99.0237477,39.4398581 99.0237477,38.3334318 C99.0237477,37.2262136 98.1302031,36.3288758 97.028454,36.3288758 C95.9267048,36.3288758 95.0331602,37.2262136 95.0331602,38.3334318 C95.0331602,39.4398581 95.9267048,40.3371959 97.028454,40.3371959" id="Fill-206" fill="#FFFFFF"></path>
                            <path d="M102.794301,34.2193795 C103.89605,34.2193795 104.789595,33.3220417 104.789595,32.2156155 C104.789595,31.1083972 103.89605,30.2110594 102.794301,30.2110594 C101.692552,30.2110594 100.799007,31.1083972 100.799007,32.2156155 C100.799007,33.3220417 101.692552,34.2193795 102.794301,34.2193795" id="Fill-208" fill="#E75E34"></path>
                            <path d="M91.8104059,32.2179915 C92.9121551,32.2179915 93.8056997,31.3206537 93.8056997,30.2142274 C93.8056997,29.1070092 92.9121551,28.2096714 91.8104059,28.2096714 C90.7086567,28.2096714 89.8151122,29.1070092 89.8151122,30.2142274 C89.8151122,31.3206537 90.7086567,32.2179915 91.8104059,32.2179915" id="Fill-210" fill="#E75E34"></path>
                            <path d="M89.1375009,28.1851985 C90.2392501,28.1851985 91.1327947,27.2878607 91.1327947,26.1814345 C91.1327947,25.0742162 90.2392501,24.1768784 89.1375009,24.1768784 C88.0357518,24.1768784 87.1422072,25.0742162 87.1422072,26.1814345 C87.1422072,27.2878607 88.0357518,28.1851985 89.1375009,28.1851985" id="Fill-212" fill="#FFFFFF"></path>
                            <path d="M86.4734289,24.0534846 C87.575178,24.0534846 88.4687226,23.1561468 88.4687226,22.0497205 C88.4687226,20.9425023 87.575178,20.0451645 86.4734289,20.0451645 C85.3716797,20.0451645 84.4781351,20.9425023 84.4781351,22.0497205 C84.4781351,23.1561468 85.3716797,24.0534846 86.4734289,24.0534846" id="Fill-214" fill="#0FB9BF"></path>
                            <path d="M83.868979,19.9253346 C84.9107905,19.9253346 85.7546499,19.0771009 85.7546499,18.0316588 C85.7546499,16.9854247 84.9107905,16.137191 83.868979,16.137191 C82.8271675,16.137191 81.9833081,16.9854247 81.9833081,18.0316588 C81.9833081,19.0771009 82.8271675,19.9253346 83.868979,19.9253346" id="Fill-216" fill="#E75E34"></path>
                            <path d="M93.0996969,22.8565326 C94.2014461,22.8565326 95.0949907,21.9591947 95.0949907,20.8527685 C95.0949907,19.7455503 94.2014461,18.8482125 93.0996969,18.8482125 C91.9979478,18.8482125 91.1044032,19.7455503 91.1044032,20.8527685 C91.1044032,21.9591947 91.9979478,22.8565326 93.0996969,22.8565326" id="Fill-218" fill="#E75E34"></path>
                            <path d="M80.8577416,16.1271326 C81.7000237,16.1271326 82.3829978,15.4412592 82.3829978,14.5954015 C82.3829978,13.7487518 81.7000237,13.0628784 80.8577416,13.0628784 C80.0154595,13.0628784 79.3324855,13.7487518 79.3324855,14.5954015 C79.3324855,15.4412592 80.0154595,16.1271326 80.8577416,16.1271326" id="Fill-220" fill="#FFFFFF"></path>
                            <path d="M20.8922241,17.9378066 C19.7904749,17.9378066 18.8969303,17.0404688 18.8969303,15.9340426 C18.8969303,14.8268243 19.7904749,13.9294865 20.8922241,13.9294865 C21.9939732,13.9294865 22.8875178,14.8268243 22.8875178,15.9340426 C22.8875178,17.0404688 21.9939732,17.9378066 20.8922241,17.9378066" id="Fill-222" fill="#FFFFFF"></path>
                            <path d="M11.0602366,30.2359283 C9.95848748,30.2359283 9.06494289,29.3385905 9.06494289,28.2321642 C9.06494289,27.124946 9.95848748,26.2276082 11.0602366,26.2276082 C12.1619858,26.2276082 13.0555304,27.124946 13.0555304,28.2321642 C13.0555304,29.3385905 12.1619858,30.2359283 11.0602366,30.2359283" id="Fill-224" fill="#FFFFFF"></path>
                            <path d="M7.87746707,34.2193795 C6.77571791,34.2193795 5.88217331,33.3220417 5.88217331,32.2156155 C5.88217331,31.1083972 6.77571791,30.2110594 7.87746707,30.2110594 C8.97921623,30.2110594 9.87276083,31.1083972 9.87276083,32.2156155 C9.87276083,33.3220417 8.97921623,34.2193795 7.87746707,34.2193795" id="Fill-226" fill="#E75E34"></path>
                            <path d="M14.3247107,26.1538728 C13.2229616,26.1538728 12.329417,25.256535 12.329417,24.1501088 C12.329417,23.0428905 13.2229616,22.1455527 14.3247107,22.1455527 C15.4264599,22.1455527 16.3200045,23.0428905 16.3200045,24.1501088 C16.3200045,25.256535 15.4264599,26.1538728 14.3247107,26.1538728" id="Fill-228" fill="#0FB9BF"></path>
                            <path d="M27.7199143,10.0101082 C26.8776322,10.0101082 26.1946581,9.32423483 26.1946581,8.47837712 C26.1946581,7.63172741 26.8776322,6.94585403 27.7199143,6.94585403 C28.5621964,6.94585403 29.2451704,7.63172741 29.2451704,8.47837712 C29.2451704,9.32423483 28.5621964,10.0101082 27.7199143,10.0101082" id="Fill-230" fill="#E75E34"></path>
                            <path d="M32.0635032,9.37769494 C31.205448,9.37769494 30.5106441,8.67914953 30.5106441,7.81824379 C30.5106441,6.95654605 31.205448,6.25879264 32.0635032,6.25879264 C32.9215583,6.25879264 33.6163622,6.95654605 33.6163622,7.81824379 C33.6163622,8.67914953 32.9215583,9.37769494 32.0635032,9.37769494" id="Fill-232" fill="#FFFFFF"></path>
                            <path d="M36.7475538,9.37769494 C35.8894987,9.37769494 35.1946948,8.67914953 35.1946948,7.81824379 C35.1946948,6.95654605 35.8894987,6.25879264 36.7475538,6.25879264 C37.605609,6.25879264 38.3004129,6.95654605 38.3004129,7.81824379 C38.3004129,8.67914953 37.605609,9.37769494 36.7475538,9.37769494" id="Fill-234" fill="#0FB9BF"></path>
                            <path d="M41.4316834,9.37769494 C40.5736282,9.37769494 39.8788243,8.67914953 39.8788243,7.81824379 C39.8788243,6.95654605 40.5736282,6.25879264 41.4316834,6.25879264 C42.2897386,6.25879264 42.9845424,6.95654605 42.9845424,7.81824379 C42.9845424,8.67914953 42.2897386,9.37769494 41.4316834,9.37769494" id="Fill-236" fill="#E75E34"></path>
                            <path d="M46.115734,9.37769494 C45.2576789,9.37769494 44.562875,8.67914953 44.562875,7.81824379 C44.562875,6.95654605 45.2576789,6.25879264 46.115734,6.25879264 C46.9737892,6.25879264 47.6685931,6.95654605 47.6685931,7.81824379 C47.6685931,8.67914953 46.9737892,9.37769494 46.115734,9.37769494" id="Fill-238" fill="#FFFFFF"></path>
                            <path d="M50.6874804,9.37769494 C49.8294253,9.37769494 49.1346214,8.67914953 49.1346214,7.81824379 C49.1346214,6.95654605 49.8294253,6.25879264 50.6874804,6.25879264 C51.5455356,6.25879264 52.2403395,6.95654605 52.2403395,7.81824379 C52.2403395,8.67914953 51.5455356,9.37769494 50.6874804,9.37769494" id="Fill-240" fill="#0FB9BF"></path>
                            <path d="M55.3681399,9.37769494 C54.5100847,9.37769494 53.8152809,8.67914953 53.8152809,7.81824379 C53.8152809,6.95654605 54.5100847,6.25879264 55.3681399,6.25879264 C56.2261951,6.25879264 56.920999,6.95654605 56.920999,7.81824379 C56.920999,8.67914953 56.2261951,9.37769494 55.3681399,9.37769494" id="Fill-242" fill="#E75E34"></path>
                            <path d="M86.5690926,13.8113199 C87.610904,13.8113199 88.4547635,12.9630862 88.4547635,11.9176441 C88.4547635,10.87141 87.610904,10.0231762 86.5690926,10.0231762 C85.5272811,10.0231762 84.6834217,10.87141 84.6834217,11.9176441 C84.6834217,12.9630862 85.5272811,13.8113199 86.5690926,13.8113199" id="Fill-244" fill="#0FB9BF"></path>
                            <path d="M89.7795439,17.9378066 C90.881293,17.9378066 91.7748376,17.0404688 91.7748376,15.9340426 C91.7748376,14.8268243 90.881293,13.9294865 89.7795439,13.9294865 C88.6777947,13.9294865 87.7842501,14.8268243 87.7842501,15.9340426 C87.7842501,17.0404688 88.6777947,17.9378066 89.7795439,17.9378066" id="Fill-246" fill="#FFFFFF"></path>
                            <path d="M96.3470572,26.1538728 C97.4488064,26.1538728 98.342351,25.256535 98.342351,24.1501088 C98.342351,23.0428905 97.4488064,22.1455527 96.3470572,22.1455527 C95.2453081,22.1455527 94.3517635,23.0428905 94.3517635,24.1501088 C94.3517635,25.256535 95.2453081,26.1538728 96.3470572,26.1538728" id="Fill-248" fill="#0FB9BF"></path>
                            <path d="M99.6115313,30.2359283 C100.71328,30.2359283 101.606825,29.3385905 101.606825,28.2321642 C101.606825,27.124946 100.71328,26.2276082 99.6115313,26.2276082 C98.5097821,26.2276082 97.6162376,27.124946 97.6162376,28.2321642 C97.6162376,29.3385905 98.5097821,30.2359283 99.6115313,30.2359283" id="Fill-250" fill="#FFFFFF"></path>
                            <path d="M82.9518537,10.0101082 C83.7941358,10.0101082 84.4771099,9.32423483 84.4771099,8.47837712 C84.4771099,7.63172741 83.7941358,6.94585403 82.9518537,6.94585403 C82.1095716,6.94585403 81.4265975,7.63172741 81.4265975,8.47837712 C81.4265975,9.32423483 82.1095716,10.0101082 82.9518537,10.0101082" id="Fill-252" fill="#E75E34"></path>
                            <path d="M78.6082648,9.37769494 C79.46632,9.37769494 80.1611239,8.67914953 80.1611239,7.81824379 C80.1611239,6.95654605 79.46632,6.25879264 78.6082648,6.25879264 C77.7502096,6.25879264 77.0554057,6.95654605 77.0554057,7.81824379 C77.0554057,8.67914953 77.7502096,9.37769494 78.6082648,9.37769494" id="Fill-254" fill="#FFFFFF"></path>
                            <path d="M73.9242141,9.37769494 C74.7822693,9.37769494 75.4770732,8.67914953 75.4770732,7.81824379 C75.4770732,6.95654605 74.7822693,6.25879264 73.9242141,6.25879264 C73.0661589,6.25879264 72.3713551,6.95654605 72.3713551,7.81824379 C72.3713551,8.67914953 73.0661589,9.37769494 73.9242141,9.37769494" id="Fill-256" fill="#0FB9BF"></path>
                            <path d="M69.2400846,9.37769494 C70.0981398,9.37769494 70.7929436,8.67914953 70.7929436,7.81824379 C70.7929436,6.95654605 70.0981398,6.25879264 69.2400846,6.25879264 C68.3820294,6.25879264 67.6872255,6.95654605 67.6872255,7.81824379 C67.6872255,8.67914953 68.3820294,9.37769494 69.2400846,9.37769494" id="Fill-258" fill="#E75E34"></path>
                            <path d="M64.5560339,9.37769494 C65.4140891,9.37769494 66.108893,8.67914953 66.108893,7.81824379 C66.108893,6.95654605 65.4140891,6.25879264 64.5560339,6.25879264 C63.6979787,6.25879264 63.0031748,6.95654605 63.0031748,7.81824379 C63.0031748,8.67914953 63.6979787,9.37769494 64.5560339,9.37769494" id="Fill-260" fill="#FFFFFF"></path>
                            <path d="M59.9842875,9.37769494 C60.8423427,9.37769494 61.5371466,8.67914953 61.5371466,7.81824379 C61.5371466,6.95654605 60.8423427,6.25879264 59.9842875,6.25879264 C59.1262323,6.25879264 58.4314285,6.95654605 58.4314285,7.81824379 C58.4314285,8.67914953 59.1262323,9.37769494 59.9842875,9.37769494" id="Fill-262" fill="#0FB9BF"></path>
                            <path d="M2.00128752,28.2255906 C0.899538363,28.2255906 0.00599376781,27.3282528 0.00599376781,26.2218266 C0.00599376781,25.1146083 0.899538363,24.2172705 2.00128752,24.2172705 C3.10303669,24.2172705 3.99658128,25.1146083 3.99658128,26.2218266 C3.99658128,27.3282528 3.10303669,28.2255906 2.00128752,28.2255906" id="Fill-264" fill="#0FB9BF"></path>
                            <path d="M21.4046912,7.70166115 C20.3628797,7.70166115 19.5190203,6.85342744 19.5190203,5.80798533 C19.5190203,4.76175122 20.3628797,3.9135175 21.4046912,3.9135175 C22.4465027,3.9135175 23.2903621,4.76175122 23.2903621,5.80798533 C23.2903621,6.85342744 22.4465027,7.70166115 21.4046912,7.70166115" id="Fill-266" fill="#FFFFFF"></path>
                            <path d="M5.88193672,24.1428224 C4.78018756,24.1428224 3.88664296,23.2454845 3.88664296,22.1390583 C3.88664296,21.0318401 4.78018756,20.1345023 5.88193672,20.1345023 C6.98368588,20.1345023 7.87723048,21.0318401 7.87723048,22.1390583 C7.87723048,23.2454845 6.98368588,24.1428224 5.88193672,24.1428224" id="Fill-268" fill="#E75E34"></path>
                            <path d="M9.76266478,20.0600541 C8.66091562,20.0600541 7.76737102,19.1627163 7.76737102,18.0562901 C7.76737102,16.9490718 8.66091562,16.051734 9.76266478,16.051734 C10.8644139,16.051734 11.7579585,16.9490718 11.7579585,18.0562901 C11.7579585,19.1627163 10.8644139,20.0600541 9.76266478,20.0600541" id="Fill-270" fill="#FFFFFF"></path>
                            <path d="M13.5277762,15.866564 C12.426027,15.866564 11.5324825,14.9692262 11.5324825,13.8628 C11.5324825,12.7555818 12.426027,11.8582439 13.5277762,11.8582439 C14.6295254,11.8582439 15.52307,12.7555818 15.52307,13.8628 C15.52307,14.9692262 14.6295254,15.866564 13.5277762,15.866564" id="Fill-272" fill="#0FB9BF"></path>
                            <path d="M17.572071,11.7208317 C16.4703219,11.7208317 15.5767773,10.8234939 15.5767773,9.71706762 C15.5767773,8.60984939 16.4703219,7.71251158 17.572071,7.71251158 C18.6738202,7.71251158 19.5673648,8.60984939 19.5673648,9.71706762 C19.5673648,10.8234939 18.6738202,11.7208317 17.572071,11.7208317" id="Fill-274" fill="#E75E34"></path>
                            <path d="M25.6286414,3.93799035 C24.7863592,3.93799035 24.1033852,3.25211697 24.1033852,2.40625926 C24.1033852,1.55960955 24.7863592,0.873736165 25.6286414,0.873736165 C26.4709235,0.873736165 27.1538975,1.55960955 27.1538975,2.40625926 C27.1538975,3.25211697 26.4709235,3.93799035 25.6286414,3.93799035" id="Fill-276" fill="#0FB9BF"></path>
                            <path d="M55.3681399,3.28466823 C54.5100847,3.28466823 53.8152809,2.58612282 53.8152809,1.72521708 C53.8152809,0.863519344 54.5100847,0.165765935 55.3681399,0.165765935 C56.2261951,0.165765935 56.920999,0.863519344 56.920999,1.72521708 C56.920999,2.58612282 56.2261951,3.28466823 55.3681399,3.28466823" id="Fill-278" fill="#0FB9BF"></path>
                            <path d="M50.3384223,3.28466823 C49.4803672,3.28466823 48.7855633,2.58612282 48.7855633,1.72521708 C48.7855633,0.863519344 49.4803672,0.165765935 50.3384223,0.165765935 C51.1964775,0.165765935 51.8912814,0.863519344 51.8912814,1.72521708 C51.8912814,2.58612282 51.1964775,3.28466823 50.3384223,3.28466823" id="Fill-280" fill="#FFFFFF"></path>
                            <path d="M45.4244003,3.28466823 C44.5663451,3.28466823 43.8715412,2.58612282 43.8715412,1.72521708 C43.8715412,0.863519344 44.5663451,0.165765935 45.4244003,0.165765935 C46.2824554,0.165765935 46.9772593,0.863519344 46.9772593,1.72521708 C46.9772593,2.58612282 46.2824554,3.28466823 45.4244003,3.28466823" id="Fill-282" fill="#E75E34"></path>
                            <path d="M40.3896353,3.28466823 C39.5315801,3.28466823 38.8367762,2.58612282 38.8367762,1.72521708 C38.8367762,0.863519344 39.5315801,0.165765935 40.3896353,0.165765935 C41.2476905,0.165765935 41.9424943,0.863519344 41.9424943,1.72521708 C41.9424943,2.58612282 41.2476905,3.28466823 40.3896353,3.28466823" id="Fill-284" fill="#0FB9BF"></path>
                            <path d="M35.3599177,3.28466823 C34.5018625,3.28466823 33.8070587,2.58612282 33.8070587,1.72521708 C33.8070587,0.863519344 34.5018625,0.165765935 35.3599177,0.165765935 C36.2179729,0.165765935 36.9127768,0.863519344 36.9127768,1.72521708 C36.9127768,2.58612282 36.2179729,3.28466823 35.3599177,3.28466823" id="Fill-286" fill="#FFFFFF"></path>
                            <path d="M30.3201054,3.28466823 C29.4620502,3.28466823 28.7672463,2.58612282 28.7672463,1.72521708 C28.7672463,0.863519344 29.4620502,0.165765935 30.3201054,0.165765935 C31.1781606,0.165765935 31.8729644,0.863519344 31.8729644,1.72521708 C31.8729644,2.58612282 31.1781606,3.28466823 30.3201054,3.28466823" id="Fill-288" fill="#E75E34"></path>
                            <path d="M108.67048,28.2255906 C109.77223,28.2255906 110.665774,27.3282528 110.665774,26.2218266 C110.665774,25.1146083 109.77223,24.2172705 108.67048,24.2172705 C107.568731,24.2172705 106.675187,25.1146083 106.675187,26.2218266 C106.675187,27.3282528 107.568731,28.2255906 108.67048,28.2255906" id="Fill-290" fill="#0FB9BF"></path>
                            <path d="M89.2670767,7.70166115 C90.3088882,7.70166115 91.1527476,6.85342744 91.1527476,5.80798533 C91.1527476,4.76175122 90.3088882,3.9135175 89.2670767,3.9135175 C88.2252652,3.9135175 87.3814058,4.76175122 87.3814058,5.80798533 C87.3814058,6.85342744 88.2252652,7.70166115 89.2670767,7.70166115" id="Fill-292" fill="#FFFFFF"></path>
                            <path d="M104.789831,24.1428224 C105.89158,24.1428224 106.785125,23.2454845 106.785125,22.1390583 C106.785125,21.0318401 105.89158,20.1345023 104.789831,20.1345023 C103.688082,20.1345023 102.794537,21.0318401 102.794537,22.1390583 C102.794537,23.2454845 103.688082,24.1428224 104.789831,24.1428224" id="Fill-294" fill="#E75E34"></path>
                            <path d="M100.909103,20.0600541 C102.010852,20.0600541 102.904397,19.1627163 102.904397,18.0562901 C102.904397,16.9490718 102.010852,16.051734 100.909103,16.051734 C99.807354,16.051734 98.9138094,16.9490718 98.9138094,18.0562901 C98.9138094,19.1627163 99.807354,20.0600541 100.909103,20.0600541" id="Fill-296" fill="#FFFFFF"></path>
                            <path d="M97.1439917,15.866564 C98.2457409,15.866564 99.1392855,14.9692262 99.1392855,13.8628 C99.1392855,12.7555818 98.2457409,11.8582439 97.1439917,11.8582439 C96.0422426,11.8582439 95.148698,12.7555818 95.148698,13.8628 C95.148698,14.9692262 96.0422426,15.866564 97.1439917,15.866564" id="Fill-298" fill="#0FB9BF"></path>
                            <path d="M93.0996969,11.7208317 C94.2014461,11.7208317 95.0949907,10.8234939 95.0949907,9.71706762 C95.0949907,8.60984939 94.2014461,7.71251158 93.0996969,7.71251158 C91.9979478,7.71251158 91.1044032,8.60984939 91.1044032,9.71706762 C91.1044032,10.8234939 91.9979478,11.7208317 93.0996969,11.7208317" id="Fill-300" fill="#E75E34"></path>
                            <path d="M85.0431266,3.93799035 C85.8854087,3.93799035 86.5683828,3.25211697 86.5683828,2.40625926 C86.5683828,1.55960955 85.8854087,0.873736165 85.0431266,0.873736165 C84.2008445,0.873736165 83.5178704,1.55960955 83.5178704,2.40625926 C83.5178704,3.25211697 84.2008445,3.93799035 85.0431266,3.93799035" id="Fill-302" fill="#0FB9BF"></path>
                            <path d="M60.3333456,3.28466823 C61.1914008,3.28466823 61.8862047,2.58612282 61.8862047,1.72521708 C61.8862047,0.863519344 61.1914008,0.165765935 60.3333456,0.165765935 C59.4752904,0.165765935 58.7804866,0.863519344 58.7804866,1.72521708 C58.7804866,2.58612282 59.4752904,3.28466823 60.3333456,3.28466823" id="Fill-304" fill="#FFFFFF"></path>
                            <path d="M65.2473677,3.28466823 C66.1054229,3.28466823 66.8002268,2.58612282 66.8002268,1.72521708 C66.8002268,0.863519344 66.1054229,0.165765935 65.2473677,0.165765935 C64.3893125,0.165765935 63.6945086,0.863519344 63.6945086,1.72521708 C63.6945086,2.58612282 64.3893125,3.28466823 65.2473677,3.28466823" id="Fill-306" fill="#E75E34"></path>
                            <path d="M70.2821327,3.28466823 C71.1401878,3.28466823 71.8349917,2.58612282 71.8349917,1.72521708 C71.8349917,0.863519344 71.1401878,0.165765935 70.2821327,0.165765935 C69.4240775,0.165765935 68.7292736,0.863519344 68.7292736,1.72521708 C68.7292736,2.58612282 69.4240775,3.28466823 70.2821327,3.28466823" id="Fill-308" fill="#0FB9BF"></path>
                            <path d="M75.3118502,3.28466823 C76.1699054,3.28466823 76.8647093,2.58612282 76.8647093,1.72521708 C76.8647093,0.863519344 76.1699054,0.165765935 75.3118502,0.165765935 C74.4537951,0.165765935 73.7589912,0.863519344 73.7589912,1.72521708 C73.7589912,2.58612282 74.4537951,3.28466823 75.3118502,3.28466823" id="Fill-310" fill="#FFFFFF"></path>
                            <path d="M80.3516626,3.28466823 C81.2097178,3.28466823 81.9045216,2.58612282 81.9045216,1.72521708 C81.9045216,0.863519344 81.2097178,0.165765935 80.3516626,0.165765935 C79.4936074,0.165765935 78.7988035,0.863519344 78.7988035,1.72521708 C78.7988035,2.58612282 79.4936074,3.28466823 80.3516626,3.28466823" id="Fill-312" fill="#E75E34"></path>
                            <path d="M50.7549103,29.5221764 C50.7549103,30.9002592 52.5325357,32.0779656 54.7486525,32.2537899 L54.7486525,26.7905629 C52.5325357,26.9663873 50.7549103,28.1448856 50.7549103,29.5221764" id="Fill-314" fill="#35B89E"></path>
                            <polygon id="Fill-316" fill="#35B89E" points="80.2156198 34.5325369 87.0847932 34.5325369 82.4680147 26.9879297 80.9522223 24.5121327 75.7494741 24.5121327"></polygon>
                            <path d="M90.8985646,40.7653519 L89.8094338,38.9857243 L87.7865372,35.6807017 L79.4749163,35.6807017 L73.9858868,23.3642848 L80.2501628,23.3642848 L78.2525031,20.0988622 L78.2525031,20.0988622 C78.0017113,19.6893974 77.4039118,19.3535887 76.925199,19.3535887 L55.8918059,19.3535887 L55.8918059,25.6365374 C58.8145564,25.8266178 61.0290959,27.4644771 61.0290959,29.5220972 C61.0290959,31.5797174 58.8145564,33.2175767 55.8918059,33.4084491 L55.8918059,41.5106254 L90.4837327,41.5106254 C90.9624455,41.5106254 91.1493564,41.1756088 90.8985646,40.7653519" id="Fill-318" fill="#35B89E"></path>
                            <polygon id="Fill-320" fill="#35B89E" points="34.8910631 24.5118159 29.7884739 24.5118159 23.6566917 34.5322201 30.4249174 34.5322201"></polygon>
                            <path d="M32.4890607,20.099179 L30.491401,23.3638096 L36.6547293,23.3638096 L31.1656998,35.6802265 L22.9542379,35.6802265 L19.8429992,40.7656687 C19.5922074,41.1751336 19.7791183,41.5109422 20.2578311,41.5109422 L54.7488102,41.5109422 L54.7488102,33.4079739 C51.8260597,33.2178935 49.6123089,31.5792422 49.6123089,29.522414 C49.6123089,27.4647939 51.8260597,25.8269346 54.7488102,25.6368542 L54.7488102,19.3539055 L33.8163648,19.3539055 C33.337652,19.3539055 32.7398525,19.6889222 32.4890607,20.099179" id="Fill-322" fill="#35B89E"></path>
                            <path d="M59.8857058,29.5221764 C59.8857058,28.1448856 58.1080805,26.9663873 55.8919637,26.7905629 L55.8919637,32.2537899 C58.1080805,32.0779656 59.8857058,30.9002592 59.8857058,29.5221764" id="Fill-324" fill="#35B89E"></path>
                        </g>
                    </g>
                </g>
                <g id="Group-6" transform="translate(121.488515, 2.808006)">
                    <path d="M4.1732617,10.6553879 L6.94103618,10.6553879 C7.86462078,10.6553879 8.57369541,10.4255635 9.06974972,9.96440252 C9.56431437,9.5047536 9.81308635,8.83644825 9.81308635,7.96251048 C9.81308635,7.10369275 9.56282472,6.45353143 9.06230145,6.01353855 C8.56475749,5.57052165 7.85568287,5.35128121 6.94103618,5.35128121 L4.1732617,5.35128121 L4.1732617,10.6553879 L4.1732617,10.6553879 Z M12.0192618,3.52780552 C13.1782115,4.53479956 13.7561967,5.96515445 13.7561967,7.8234062 C13.7561967,9.77237814 13.1782115,11.2874052 12.0192618,12.3669754 C10.8588225,13.4465456 9.23510115,13.9863306 7.14660824,13.9863306 L4.1732617,13.9863306 L4.1732617,18.6644681 L0.000744826289,18.6644681 L0.000744826289,2.01882648 L7.14660824,2.01882648 C9.23510115,2.01882648 10.8588225,2.52232349 12.0192618,3.52780552 L12.0192618,3.52780552 Z" id="Fill-1" fill="#FFFFFF"></path>
                    <path d="M22.1794372,15.5882979 C22.6635743,15.2632172 22.9644841,14.8368324 23.0866356,14.3121673 L23.0866356,13.173629 L20.5378401,13.173629 C19.9285722,13.173629 19.4697592,13.2840052 19.1643804,13.5047577 C18.8604913,13.7255101 18.7085467,14.0762948 18.7085467,14.5555998 C18.7085467,15.0273447 18.8634706,15.3992975 19.1762976,15.669946 C19.487635,15.9405946 19.9285722,16.0766749 20.4916609,16.0766749 C21.1322115,16.0766749 21.6938105,15.9133785 22.1794372,15.5882979 M25.6026588,6.88823231 C26.5634848,7.70471396 27.0520908,8.84022825 27.0654977,10.2962872 L27.0654977,18.6637121 L23.1104701,18.6637121 L23.1104701,17.1895091 C22.7052846,17.7323182 22.1764579,18.143583 21.5210108,18.4263276 C20.864074,18.7090722 20.1073305,18.8496885 19.2448216,18.8496885 C17.9175412,18.8496885 16.8643568,18.4777357 16.0837789,17.7353422 C15.3017113,16.9929487 14.9114223,16.0252668 14.9114223,14.8338084 C14.9114223,13.6121099 15.328525,12.662572 16.1627305,11.9912426 C16.9984256,11.3168893 18.1961062,10.9721526 19.7587518,10.9570325 L23.0866356,10.9570325 L23.0866356,10.7710562 C23.0866356,10.1375269 22.8810636,9.64158987 22.4684298,9.28626915 C22.0587754,8.92943643 21.4450385,8.75102007 20.6272192,8.75102007 C20.0954133,8.75102007 19.4980626,8.84325226 18.8336775,9.02469263 C18.1707821,9.20613299 17.510866,9.47224553 16.8554189,9.82000623 L15.7113657,7.11503277 C16.7422053,6.62816779 17.7209071,6.26377505 18.6504503,6.02336656 C19.5814831,5.78447008 20.5542263,5.66350984 21.5657004,5.66350984 C23.2981663,5.66350984 24.6433226,6.07326267 25.6026588,6.88823231" id="Fill-3" fill="#FFFFFF"></path>
                    <path d="M35.6904371,6.29144471 C36.3831256,5.88773989 37.1845587,5.68059547 38.0917571,5.66396344 L38.0917571,9.36685892 C37.9696056,9.35173889 37.783399,9.34417887 37.5316477,9.34417887 C36.5335805,9.34417887 35.7157612,9.58912337 35.0841485,10.0805244 C34.4510462,10.5719254 34.0905503,11.2402307 33.9981918,12.0839284 L33.9981918,18.6641657 L29.9373989,18.6641657 L29.9373989,5.84993981 L33.9981918,5.84993981 L33.9981918,8.00908018 C34.4331704,7.26517467 34.996259,6.69363752 35.6904371,6.29144471" id="Fill-5" fill="#FFFFFF"></path>
                    <path d="M48.1059465,18.6124552 C47.5130648,18.7697035 46.9112452,18.8498397 46.298998,18.8498397 C45.0491795,18.8498397 44.039195,18.499055 43.2705343,17.7929495 C42.4988942,17.0898681 42.1145639,16.0874101 42.1145639,14.7885995 L42.1145639,9.13522005 L40.3552842,9.13522005 L40.3552842,6.44234261 L42.1145639,6.44234261 L42.1145639,2.87855141 L46.1396051,2.87855141 L46.1396051,6.41815056 L49.4451442,6.41815056 L49.4451442,9.13522005 L46.1396051,9.13522005 L46.1396051,14.1490222 C46.1396051,15.0849521 46.5120183,15.553673 47.2613135,15.553673 C47.6962921,15.553673 48.2340567,15.4115447 48.8731176,15.1242641 L49.6745507,17.9789259 C49.2246756,18.2420144 48.7018076,18.4536949 48.1059465,18.6124552" id="Fill-7" fill="#FFFFFF"></path>
                    <mask id="mask-4" fill="white">
                        <use xlink:href="#path-3"></use>
                    </mask>
                    <g id="Clip-10"></g>
                    <path d="M52.0261163,18.6644681 L56.0630748,18.6644681 L56.0630748,5.85024222 L52.0261163,5.85024222 L52.0261163,18.6644681 Z M55.5997928,0.608127628 C56.0005093,1.01485645 56.2016124,1.5364975 56.2016124,2.17002678 C56.2016124,2.80506807 56.0005093,3.32670912 55.5997928,3.73797395 C55.1990763,4.14772678 54.6881254,4.35184719 54.0624713,4.35184719 C53.4368173,4.35184719 52.9273561,4.14772678 52.5296188,3.73797395 C52.1333713,3.32670912 51.9367371,2.80506807 51.9367371,2.17002678 C51.9367371,1.5364975 52.1333713,1.01485645 52.5296188,0.608127628 C52.9273561,0.20291081 53.4368173,0.000302400611 54.0624713,0.000302400611 C54.6881254,0.000302400611 55.1990763,0.20291081 55.5997928,0.608127628 L55.5997928,0.608127628 Z" id="Fill-9" fill="#FFFFFF" mask="url(#mask-4)"></path>
                    <path d="M67.1426637,14.7173841 C67.6565939,14.0989749 67.9143038,13.2900532 67.9143038,12.2921312 C67.9143038,11.3093292 67.6565939,10.5079676 67.1426637,9.88955837 C66.6287336,9.26963712 65.9479624,8.9611885 65.10035,8.9611885 C64.2542274,8.9611885 63.5764355,9.26661311 63.063995,9.87746235 C62.5545338,10.4883116 62.2908653,11.2942092 62.2774584,12.2921312 C62.2908653,13.2900532 62.5575131,14.0989749 63.0714432,14.7173841 C63.5853734,15.3373054 64.2616756,15.645754 65.10035,15.645754 C65.9479624,15.645754 66.6287336,15.3373054 67.1426637,14.7173841 L67.1426637,14.7173841 Z M71.9616898,18.6637121 L67.9143038,18.6637121 L67.9143038,16.9808527 C66.9922088,18.2191832 65.7260041,18.8345684 64.118669,18.8270084 C62.9433331,18.8270084 61.9139832,18.5503119 61.0246606,17.9969187 C60.1368277,17.4435256 59.4471185,16.6678681 58.9540435,15.669946 C58.4624582,14.672024 58.2166655,13.5153417 58.2166655,12.198387 C58.2166655,10.8980644 58.4579892,9.75801411 58.9421263,8.77521212 C59.4262634,7.79241014 60.1070346,7.0318726 60.98444,6.49359951 C61.8603557,5.95683843 62.8748091,5.68770189 64.0248209,5.68770189 C64.8575367,5.68770189 65.6008733,5.84646221 66.2563204,6.16398285 C66.9117676,6.47999149 67.4644287,6.94115242 67.9143038,7.54444164 L67.9143038,1.02166046 L71.9616898,1.02166046 L71.9616898,18.6637121 Z" id="Fill-11" fill="#FFFFFF" mask="url(#mask-4)"></path>
                    <path d="M78.842544,9.88910477 C78.319676,10.509026 78.0604764,11.3088756 78.0604764,12.2916776 C78.0604764,13.2911116 78.319676,14.0939853 78.842544,14.7048345 C79.3639224,15.3171957 80.0446937,15.6241324 80.8833681,15.6241324 C81.7145942,15.6241324 82.3908965,15.3171957 82.9137645,14.7048345 C83.4351429,14.0939853 83.6973218,13.2911116 83.6973218,12.2916776 C83.6973218,11.3088756 83.4351429,10.509026 82.9137645,9.88910477 C82.3908965,9.26918352 81.7145942,8.9607349 80.8833681,8.9607349 C80.0446937,8.9607349 79.3639224,9.26918352 78.842544,9.88910477 M84.4913066,6.51733796 C85.540022,7.05561105 86.3489034,7.81917259 86.916461,8.80953459 C87.482529,9.79989659 87.7685423,10.9459949 87.7685423,12.2463175 C87.7685423,13.5451282 87.482529,14.6897145 86.916461,15.6815885 C86.3489034,16.6719505 85.540022,17.440048 84.4913066,17.9843691 C83.4440808,18.5302022 82.2404416,18.8038748 80.8833681,18.8038748 C79.511398,18.8038748 78.3077588,18.5302022 77.2694709,17.9843691 C76.2326727,17.440048 75.4237914,16.6719505 74.8458062,15.6815885 C74.2663313,14.6897145 73.9773387,13.5451282 73.9773387,12.2463175 C73.9773387,10.9459949 74.2663313,9.79989659 74.8458062,8.80953459 C75.4237914,7.81917259 76.2326727,7.05561105 77.2694709,6.51733796 C78.3077588,5.98057688 79.511398,5.71144033 80.8833681,5.71144033 C82.2404416,5.71144033 83.4440808,5.98057688 84.4913066,6.51733796" id="Fill-12" fill="#FFFFFF" mask="url(#mask-4)"></path>
                    <path d="M97.1567797,6.041057 C98.0490816,6.29204951 98.8847767,6.65039423 99.6608857,7.11457917 L98.2769985,9.77268054 C96.7143529,8.9138628 95.3870725,8.48445394 94.2996261,8.48445394 C93.9242336,8.48445394 93.6248135,8.56005409 93.3998759,8.71125439 C93.176428,8.8624547 93.0617248,9.08018314 93.0617248,9.36746372 C93.0617248,9.66835233 93.2330348,9.91027281 93.5756549,10.0917132 C93.9212543,10.2746656 94.4813637,10.477274 95.2574727,10.7010504 C96.1497746,10.9580909 96.8931112,11.2151315 97.4874826,11.473684 C98.0833436,11.7337485 98.5972738,12.1268693 99.0322523,12.6575824 C99.4657412,13.1867834 99.6832305,13.8747448 99.6832305,14.7169305 C99.6832305,16.0021331 99.1931348,17.0076151 98.2084744,17.7348886 C97.2267934,18.4636741 95.9456922,18.8265548 94.3666604,18.8265548 C93.3075175,18.8265548 92.2841261,18.6708185 91.3024451,18.3623699 C90.3177847,18.0524093 89.4537862,17.6078804 88.7059806,17.0272712 L89.9870819,14.4039459 C90.6887082,14.9150029 91.4335345,15.3096357 92.2215607,15.5878443 C93.0110766,15.8660528 93.7588822,16.0051571 94.4709361,16.0051571 C94.8895285,16.0051571 95.2232107,15.929557 95.470493,15.7798687 C95.719265,15.6286684 95.8414165,15.4109399 95.8414165,15.1236593 C95.8414165,14.7910187 95.6626582,14.5309541 95.3036519,14.3404418 C94.9446456,14.1514414 94.3845363,13.944297 93.6233238,13.7190085 C92.7474081,13.464992 92.0204576,13.2064395 91.4454517,12.9478869 C90.8689562,12.6893344 90.3729019,12.3022616 89.9587785,11.7866686 C89.5416757,11.2725876 89.3361037,10.5936982 89.3361037,9.75000049 C89.3361037,8.4663099 89.8113029,7.46385187 90.7646805,6.74413842 C91.7165685,6.02291296 92.9514905,5.66305624 94.4709361,5.66305624 C95.3691966,5.66305624 96.2644778,5.79006449 97.1567797,6.041057" id="Fill-13" fill="#FFFFFF" mask="url(#mask-4)"></path>
                    <path d="M3.36303966,31.7434457 L5.59304957,31.7434457 C6.33787586,31.7434457 6.90841279,31.5574693 7.30912934,31.1870286 C7.70835623,30.8165878 7.90796967,30.2783148 7.90796967,29.5737213 C7.90796967,28.8812239 7.70537692,28.3580709 7.30317073,28.0027502 C6.90096453,27.6459174 6.33042759,27.4690131 5.59304957,27.4690131 L3.36303966,27.4690131 L3.36303966,31.7434457 Z M9.68661485,25.9993461 C10.6191374,26.8112917 11.0853986,27.9649501 11.0853986,29.4603211 C11.0853986,31.0328043 10.6191374,32.2529907 9.68661485,33.1223925 C8.75111303,33.9933063 7.44319807,34.4272511 5.75989066,34.4272511 L3.36303966,34.4272511 L3.36303966,38.1966747 L-0.000595861031,38.1966747 L-0.000595861031,24.7836957 L5.75989066,24.7836957 C7.44319807,24.7836957 8.75111303,25.1889125 9.68661485,25.9993461 L9.68661485,25.9993461 Z" id="Fill-14" fill="#FFFFFF" mask="url(#mask-4)"></path>
                    <path d="M18.5232339,26.7018227 L16.0340245,26.7018227 L18.0346279,23.4842802 L20.9826503,24.5411704 L18.5232339,26.7018227 Z M22.7240542,38.1975819 L19.4527771,38.1975819 L19.4527771,36.4950665 C18.758599,37.724325 17.6592354,38.3351742 16.1546863,38.3276142 C15.0478745,38.3276142 14.1660002,37.9707815 13.5045944,37.258628 C12.8446783,36.5434506 12.5139754,35.5848407 12.5139754,34.3812862 L12.5139754,27.8706011 L15.7763146,27.8706011 L15.7763146,33.4453563 C15.7763146,34.0562056 15.9297488,34.5385346 16.2366172,34.8908313 C16.5449753,35.243128 16.9561194,35.4200323 17.4730289,35.4200323 C18.0867657,35.4079363 18.5694132,35.1750878 18.9224608,34.7229989 C19.2769981,34.27091 19.4527771,33.6857648 19.4527771,32.9690754 L19.4527771,27.8706011 L22.7240542,27.8706011 L22.7240542,38.1975819 Z" id="Fill-15" fill="#FFFFFF" mask="url(#mask-4)"></path>
                    <path d="M32.5728922,34.9325626 C32.9929743,34.4275535 33.2030153,33.7789042 33.2030153,32.9866146 C33.2030153,32.195837 32.9929743,31.5502117 32.5728922,31.0512507 C32.1513205,30.5522897 31.6031284,30.3028092 30.9268261,30.3028092 C30.2758479,30.3028092 29.7380834,30.5522897 29.315022,31.0512507 C28.8904711,31.5502117 28.68043,32.195837 28.68043,32.9866146 C28.68043,33.7925122 28.8874917,34.4441856 29.3016152,34.9416346 C29.7157386,35.4405956 30.2579721,35.6900761 30.9268261,35.6900761 C31.6031284,35.6900761 32.1513205,35.4390836 32.5728922,34.9325626 M34.2174687,28.4173414 C34.9429295,28.8573343 35.5030388,29.4802795 35.8992864,30.2831532 C36.295534,31.0890508 36.4936578,32.0204447 36.4936578,33.0803588 C36.4936578,34.1160809 36.2985133,35.0308427 35.9082243,35.8216203 C35.5179354,36.6139099 34.9697432,37.2262712 34.2636479,37.6587041 C33.5560629,38.0926489 32.7337747,38.3103774 31.7952936,38.3103774 C31.1428257,38.3103774 30.5514337,38.1818571 30.0196277,37.9263286 C29.4878217,37.6708001 29.0424156,37.3018713 28.68043,36.8225664 L28.68043,38.1969771 L25.4180909,38.1969771 L25.4180909,23.9796124 L28.68043,23.9796124 L28.68043,29.236847 C29.0424156,28.7620781 29.4803735,28.3976854 29.9972829,28.1421568 C30.5127027,27.8866283 31.0877086,27.7581081 31.7193213,27.7581081 C32.6607817,27.7581081 33.4934975,27.9788605 34.2174687,28.4173414" id="Fill-16" fill="#FFFFFF" mask="url(#mask-4)"></path>
                    <polygon id="Fill-17" fill="#FFFFFF" mask="url(#mask-4)" points="38.3376987 38.1965235 41.6000379 38.1965235 41.6000379 23.9791588 38.3376987 23.9791588"></polygon>
                    <path d="M44.2903504,38.1980355 L47.5437517,38.1980355 L47.5437517,27.8710547 L44.2903504,27.8710547 L44.2903504,38.1980355 Z M47.1698489,23.6465182 C47.4916138,23.9746228 47.653986,24.3949597 47.653986,24.9060167 C47.653986,25.4170737 47.4916138,25.8374106 47.1698489,26.1685393 C46.8465943,26.4996679 46.4339605,26.6644763 45.9304579,26.6644763 C45.4269553,26.6644763 45.0158112,26.4996679 44.6940463,26.1685393 C44.3752606,25.8374106 44.2173575,25.4170737 44.2173575,24.9060167 C44.2173575,24.3949597 44.3752606,23.9746228 44.6940463,23.6465182 C45.0158112,23.3199255 45.4269553,23.1566292 45.9304579,23.1566292 C46.4339605,23.1566292 46.8465943,23.3199255 47.1698489,23.6465182 L47.1698489,23.6465182 Z" id="Fill-18" fill="#FFFFFF" mask="url(#mask-4)"></path>
                    <path d="M57.2737154,28.3621533 C58.0587623,28.7643461 58.6754785,29.3373953 59.1179053,30.0782767 L56.7776611,31.5101436 C56.2726689,30.7919422 55.5889183,30.4381335 54.7204509,30.4426695 C54.0947968,30.4426695 53.583846,30.681566 53.1861087,31.1593589 C52.7913508,31.6356399 52.593227,32.2646332 52.593227,33.0433147 C52.593227,33.8356043 52.7853922,34.4706456 53.1727019,34.9514626 C53.5600115,35.4322796 54.076921,35.672688 54.7204509,35.672688 C55.6797871,35.672688 56.3709859,35.2825913 56.7940473,34.5023977 L59.1715328,35.9146085 C58.7544301,36.6827061 58.1466518,37.2723873 57.352667,37.6881881 C56.5571925,38.102477 55.6216907,38.3096214 54.5476512,38.3096214 C53.5153219,38.3096214 52.6021649,38.0888689 51.8141387,37.650388 C51.0231332,37.2103952 50.4079067,36.5950099 49.9654799,35.8027203 C49.523053,35.0119427 49.3025845,34.0971809 49.3025845,33.0614588 C49.3025845,32.0151527 49.523053,31.0882948 49.9654799,30.2839092 C50.4079067,29.4795235 51.0290918,28.8580903 51.8275456,28.4180974 C52.6259994,27.9781045 53.5480943,27.7588641 54.5923408,27.7588641 C55.5933873,27.7588641 56.4886685,27.9599605 57.2737154,28.3621533" id="Fill-19" fill="#FFFFFF" mask="url(#mask-4)"></path>
                    <path d="M63.5371086,31.1259437 C63.1155369,31.6249047 62.9069856,32.27053 62.9069856,33.0613076 C62.9069856,33.8672052 63.1155369,34.5143425 63.5371086,35.0072555 C63.9571907,35.5001685 64.5053828,35.746625 65.1816851,35.746625 C65.8520287,35.746625 66.3957519,35.5001685 66.8188133,35.0072555 C67.2374056,34.5143425 67.4489363,33.8672052 67.4489363,33.0613076 C67.4489363,32.27053 67.2374056,31.6249047 66.8188133,31.1259437 C66.3957519,30.6269827 65.8520287,30.3775022 65.1816851,30.3775022 C64.5053828,30.3775022 63.9571907,30.6269827 63.5371086,31.1259437 M68.0894869,28.4088742 C68.9341199,28.8428191 69.5865877,29.4582043 70.0424214,30.2565419 C70.4997448,31.0533675 70.7306409,31.9772014 70.7306409,33.0250195 C70.7306409,34.0728376 70.4997448,34.9951595 70.0424214,35.7934971 C69.5865877,36.5918347 68.9341199,37.210244 68.0894869,37.6502368 C67.2448539,38.0902297 66.2750901,38.3094702 65.1816851,38.3094702 C64.0763629,38.3094702 63.106599,38.0902297 62.2694143,37.6502368 C61.4337192,37.210244 60.782741,36.5918347 60.3164798,35.7934971 C59.8487288,34.9951595 59.616343,34.0728376 59.616343,33.0250195 C59.616343,31.9772014 59.8487288,31.0533675 60.3164798,30.2565419 C60.782741,29.4582043 61.4337192,28.8428191 62.2694143,28.4088742 C63.106599,27.9764413 64.0763629,27.7587129 65.1816851,27.7587129 C66.2750901,27.7587129 67.2448539,27.9764413 68.0894869,28.4088742" id="Fill-20" fill="#FFFFFF" mask="url(#mask-4)"></path>
                    <path d="M78.2958415,28.0249766 C79.0138541,28.227585 79.6886667,28.5163776 80.3128311,28.8913543 L79.198571,31.0323507 C77.9398146,30.3398533 76.870244,29.9936046 75.9928387,29.9936046 C75.6904392,29.9936046 75.4491155,30.0540847 75.2688675,30.1765569 C75.0871299,30.2975172 74.9962611,30.4744215 74.9962611,30.705758 C74.9962611,30.9476785 75.1347988,31.1427269 75.4103845,31.2893912 C75.6889495,31.4360555 76.1403143,31.5993518 76.7659683,31.7807922 C77.4839809,31.9864246 78.0828212,32.195081 78.5624894,32.4022254 C79.0421575,32.6123939 79.4562809,32.9299145 79.8078389,33.3562994 C80.1564176,33.7841962 80.3321966,34.3375893 80.3321966,35.0164787 C80.3321966,36.0522008 79.935949,36.8626344 79.1434539,37.4492916 C78.3524483,38.0359488 77.3201191,38.3277654 76.0464661,38.3277654 C75.1943849,38.3277654 74.3691173,38.2037812 73.5781118,37.9543007 C72.784127,37.7048201 72.0884592,37.3464754 71.48515,36.8792665 L72.5174792,34.7654862 C73.0835472,35.176751 73.6838772,35.4942717 74.3184692,35.7180481 C74.9545508,35.9433366 75.5578601,36.0552248 76.1313763,36.0552248 C76.4680378,36.0552248 76.7376649,35.9947447 76.9372784,35.8737845 C77.1368918,35.7513122 77.2352089,35.5759198 77.2352089,35.3445834 C77.2352089,35.0769588 77.0922023,34.8667904 76.8032097,34.7125661 C76.5142171,34.5598538 76.0613627,34.3935335 75.4476258,34.2120931 C74.7430201,34.0079727 74.156097,33.7993163 73.6928151,33.5906598 C73.2280435,33.3820034 72.8288166,33.0705308 72.4951344,32.656242 C72.1599626,32.2404411 71.9931215,31.693096 71.9931215,31.0142066 C71.9931215,29.9784845 72.3759622,29.1710749 73.1446229,28.5919777 C73.911794,28.0113686 74.9068819,27.721064 76.1313763,27.721064 C76.8553475,27.721064 77.577829,27.8223682 78.2958415,28.0249766" id="Fill-21" fill="#FFFFFF" mask="url(#mask-4)"></path>
                    <path d="M83.9986785,36.1699858 C84.2221264,36.4073703 84.33534,36.7022109 84.33534,37.0575316 C84.33534,37.4234364 84.2221264,37.728861 83.9986785,37.9722935 C83.7752306,38.214214 83.4921966,38.3351742 83.1480869,38.3351742 C82.8114254,38.3351742 82.5283914,38.215726 82.3019642,37.9768295 C82.075537,37.736421 81.9623234,37.4294844 81.9623234,37.0575316 C81.9623234,36.7022109 82.075537,36.4073703 82.3019642,36.1699858 C82.5283914,35.9341134 82.8114254,35.8161771 83.1480869,35.8161771 C83.4921966,35.8161771 83.7752306,35.9341134 83.9986785,36.1699858" id="Fill-22" fill="#FFFFFF" mask="url(#mask-4)"></path>
                    <path d="M93.2958982,28.3480917 C93.9975245,28.6338602 94.5814683,29.0451251 95.0477296,29.5803741 L93.8604765,30.998633 C93.1320364,30.2335595 92.2024932,29.8510227 91.0748262,29.8510227 C90.1855036,29.8510227 89.4540842,30.1519113 88.8820576,30.7521765 C88.3085413,31.3524417 88.0210384,32.1341473 88.0210384,33.0988052 C88.0210384,34.0574152 88.3010931,34.8391208 88.8582231,35.44241 C89.4168429,36.0456992 90.1303864,36.3480998 91.0018332,36.3480998 C92.2829344,36.3480998 93.2661051,35.939859 93.9543246,35.1248893 L95.1579639,36.3480998 C94.7036199,36.957437 94.1181864,37.426158 93.3971945,37.7527506 C92.6762027,38.0793433 91.8479559,38.2426396 90.9094747,38.2426396 C89.9277937,38.2426396 89.0548573,38.0264232 88.2876862,37.5939903 C87.5220048,37.1615575 86.9261437,36.5567562 86.5001031,35.7780747 C86.0725728,35.0009051 85.8610422,34.1073113 85.8610422,33.0988052 C85.8610422,32.0782032 86.0725728,31.1785614 86.5001031,30.3968558 C86.9261437,29.6166622 87.5220048,29.007325 88.2876862,28.5718681 C89.0548573,28.1364112 89.9277937,27.9186828 90.9094747,27.9186828 C91.7973077,27.9186828 92.5942718,28.0623231 93.2958982,28.3480917" id="Fill-23" fill="#FFFFFF" mask="url(#mask-4)"></path>
                    <polygon id="Fill-24" fill="#FFFFFF" mask="url(#mask-4)" points="97.5126577 38.1677955 99.6830815 38.1677955 99.6830815 23.9791588 97.5126577 23.9791588"></polygon>
                </g>
            </g>
        </g>
    </g>
</svg>