<?xml version="1.0" encoding="UTF-8" standalone="no"?>
<svg width="105px" height="40px" viewBox="0 0 105 40" version="1.1" xmlns="http://www.w3.org/2000/svg" xmlns:xlink="http://www.w3.org/1999/xlink">
    <!-- Generator: Sketch 41.2 (35397) - http://www.bohemiancoding.com/sketch -->
    <title>Group 2 Copy</title>
    <desc>Created with Sketch.</desc>
    <defs>
        <polygon id="path-1" points="0 39.9578386 104.142672 39.9578386 104.142672 0.000315196998 0 0.000315196998"></polygon>
    </defs>
    <g id="Page-1" stroke="none" stroke-width="1" fill="none" fill-rule="evenodd">
        <g id="Group-2-Copy">
            <path d="M4.35996377,11.1062814 L7.25156209,11.1062814 C8.21646573,11.1062814 8.95726272,10.8667317 9.47550935,10.3860563 C9.99219968,9.90695685 10.2521011,9.21037148 10.2521011,8.29945216 C10.2521011,7.40429268 9.99064339,6.72661914 9.46772787,6.2680075 C8.94792494,5.8062439 8.20712795,5.57772608 7.25156209,5.57772608 L4.35996377,5.57772608 L4.35996377,11.1062814 L4.35996377,11.1062814 Z M12.5569758,3.67708818 C13.7677742,4.72669418 14.3716172,6.21757598 14.3716172,8.15446154 C14.3716172,10.1859062 13.7677742,11.7650432 12.5569758,12.8902964 C11.3446211,14.0155497 9.64825822,14.5781764 7.46633097,14.5781764 L4.35996377,14.5781764 L4.35996377,19.4542739 L0.000778148094,19.4542739 L0.000778148094,2.10425516 L7.46633097,2.10425516 C9.64825822,2.10425516 11.3446211,2.62905816 12.5569758,3.67708818 L12.5569758,3.67708818 Z" id="Fill-1" fill="#FFFFFF"></path>
            <path d="M23.171694,16.2479325 C23.6774902,15.9090957 23.991862,15.4646679 24.1194783,14.9178011 L24.1194783,13.7310844 L21.4566556,13.7310844 C20.8201304,13.7310844 20.3407912,13.8461313 20.0217505,14.0762251 C19.704266,14.3063189 19.5455238,14.6719475 19.5455238,15.1715347 C19.5455238,15.663242 19.7073786,16.0509343 20.0342008,16.3330356 C20.3594667,16.615137 20.8201304,16.7569756 21.4084104,16.7569756 C22.0776177,16.7569756 22.6643414,16.5867692 23.171694,16.2479325 M26.7480626,7.17971482 C27.7518736,8.03074672 28.2623388,9.21431144 28.2763455,10.731985 L28.2763455,19.4534859 L24.1443791,19.4534859 L24.1443791,17.9169006 C23.7210665,18.4826792 23.1685814,18.9113471 22.483811,19.2060563 C21.7974844,19.5007655 21.006886,19.6473321 20.1057905,19.6473321 C18.7191306,19.6473321 17.6188292,19.2596398 16.80333,18.4858311 C15.9862745,17.7120225 15.5785249,16.7033921 15.5785249,15.4615159 C15.5785249,14.1881201 16.0142878,13.1984015 16.8858137,12.4986642 C17.7588958,11.7957749 19.0101579,11.4364503 20.6427127,11.4206904 L24.1194783,11.4206904 L24.1194783,11.2268443 C24.1194783,10.5665066 23.9047095,10.0495835 23.4736154,9.67922702 C23.045634,9.30729456 22.4044399,9.12132833 21.5500333,9.12132833 C20.9944356,9.12132833 20.3703608,9.21746341 19.6762527,9.40658161 C18.9837009,9.59569981 18.2942617,9.87307317 17.6094914,10.2355497 L16.4142559,7.41611257 C17.4912129,6.9086454 18.5136995,6.52883302 19.4848283,6.27825141 C20.4575134,6.02924578 21.4737748,5.90316698 22.5304999,5.90316698 C24.3404724,5.90316698 25.7458079,6.33025891 26.7480626,7.17971482" id="Fill-3" fill="#FFFFFF"></path>
            <path d="M37.2871448,6.55767355 C38.0108225,6.13688555 38.8481098,5.92097561 39.7958942,5.90363977 L39.7958942,9.76322702 C39.6682779,9.74746717 39.4737409,9.73958724 39.2107269,9.73958724 C38.1680084,9.73958724 37.3136018,9.99489681 36.6537322,10.5070919 C35.9923063,11.0192871 35.6156827,11.7158724 35.5191923,12.595272 L35.5191923,19.4539587 L31.2767289,19.4539587 L31.2767289,6.09748593 L35.5191923,6.09748593 L35.5191923,8.3479925 C35.9736308,7.57260788 36.5619107,6.97688555 37.2871448,6.55767355" id="Fill-5" fill="#FFFFFF"></path>
            <path d="M50.2580953,19.40006 C49.6386895,19.5639625 49.0099458,19.6474897 48.3703081,19.6474897 C47.0645756,19.6474897 46.0094068,19.2818612 45.2063579,18.5458762 C44.4001965,17.8130432 43.9986721,16.7681651 43.9986721,15.414394 L43.9986721,9.52178612 L42.1606863,9.52178612 L42.1606863,6.71495685 L43.9986721,6.71495685 L43.9986721,3.00036023 L48.2037844,3.00036023 L48.2037844,6.68974109 L51.6572056,6.68974109 L51.6572056,9.52178612 L48.2037844,9.52178612 L48.2037844,14.7477523 C48.2037844,15.7232871 48.5928584,16.2118424 49.3756754,16.2118424 C49.8301139,16.2118424 50.3919368,16.0636998 51.0595879,15.7642627 L51.8968752,18.7397223 C51.4268738,19.0139437 50.8806138,19.2345816 50.2580953,19.40006" id="Fill-7" fill="#FFFFFF"></path>
            <mask id="mask-2" fill="white">
                <use xlink:href="#path-1"></use>
            </mask>
            <g id="Clip-10"></g>
            <path d="M54.3536444,19.4542739 L58.5712071,19.4542739 L58.5712071,6.09780113 L54.3536444,6.09780113 L54.3536444,19.4542739 Z M58.087199,0.633861163 C58.5058426,1.05780113 58.7159426,1.60151595 58.7159426,2.26185366 C58.7159426,2.92376735 58.5058426,3.46748218 58.087199,3.89615009 C57.6685553,4.32324203 57.1347457,4.536 56.4811013,4.536 C55.8274569,4.536 55.2952036,4.32324203 54.8796725,3.89615009 C54.4656977,3.46748218 54.2602666,2.92376735 54.2602666,2.26185366 C54.2602666,1.60151595 54.4656977,1.05780113 54.8796725,0.633861163 C55.2952036,0.211497186 55.8274569,0.000315196998 56.4811013,0.000315196998 C57.1347457,0.000315196998 57.6685553,0.211497186 58.087199,0.633861163 L58.087199,0.633861163 Z" id="Fill-9" fill="#FFFFFF" mask="url(#mask-2)"></path>
            <path d="M70.1464712,15.3401651 C70.6833934,14.6955872 70.9526327,13.8524353 70.9526327,12.8122852 C70.9526327,11.7878949 70.6833934,10.9526229 70.1464712,10.308045 C69.6095491,9.66189118 68.8983217,9.34039024 68.0127892,9.34039024 C67.1288129,9.34039024 66.4206982,9.65873921 65.8853323,10.2954371 C65.353079,10.9321351 65.0776145,11.7721351 65.0636079,12.8122852 C65.0776145,13.8524353 65.3561916,14.6955872 65.8931138,15.3401651 C66.4300359,15.9863189 67.1365944,16.3078199 68.0127892,16.3078199 C68.8983217,16.3078199 69.6095491,15.9863189 70.1464712,15.3401651 L70.1464712,15.3401651 Z M75.1810894,19.4534859 L70.9526327,19.4534859 L70.9526327,17.6994146 C69.9892853,18.9901463 68.6664336,19.6315722 66.98719,19.6236923 C65.7592723,19.6236923 64.6838716,19.3352871 63.7547628,18.7584765 C62.8272103,18.181666 62.1066451,17.3731857 61.5915111,16.3330356 C61.0779333,15.2928856 60.8211445,14.087257 60.8211445,12.7145741 C60.8211445,11.359227 61.0732645,10.1709343 61.5790607,9.14654409 C62.084857,8.12215385 62.7960843,7.3294334 63.7127428,6.76838274 C64.627845,6.20890807 65.6876827,5.92838274 66.8891433,5.92838274 C67.7591129,5.92838274 68.5357047,6.09386116 69.220475,6.42481801 C69.9052453,6.75419887 70.4826312,7.2348743 70.9526327,7.86369231 L70.9526327,1.06489306 L75.1810894,1.06489306 L75.1810894,19.4534859 Z" id="Fill-11" fill="#FFFFFF" mask="url(#mask-2)"></path>
            <path d="M82.3697771,10.3075722 C81.8235172,10.9537261 81.5527216,11.7874221 81.5527216,12.8118124 C81.5527216,13.8535385 81.8235172,14.6903865 82.3697771,15.3270844 C82.9144808,15.9653583 83.6257082,16.2852833 84.5019029,16.2852833 C85.3703162,16.2852833 86.0768747,15.9653583 86.6231346,15.3270844 C87.1678383,14.6903865 87.4417464,13.8535385 87.4417464,12.8118124 C87.4417464,11.7874221 87.1678383,10.9537261 86.6231346,10.3075722 C86.0768747,9.66141839 85.3703162,9.33991745 84.5019029,9.33991745 C83.6257082,9.33991745 82.9144808,9.66141839 82.3697771,10.3075722 M88.2712523,6.7931257 C89.3668848,7.35417636 90.2119536,8.15004878 90.8049025,9.18231895 C91.396295,10.2145891 91.6951039,11.4091857 91.6951039,12.7645328 C91.6951039,14.1183039 91.396295,15.3113246 90.8049025,16.3451707 C90.2119536,17.3774409 89.3668848,18.1780413 88.2712523,18.7453959 C87.1771761,19.3143265 85.9196887,19.5995797 84.5019029,19.5995797 C83.0685541,19.5995797 81.8110668,19.3143265 80.7263284,18.7453959 C79.6431462,18.1780413 78.7980774,17.3774409 78.1942345,16.3451707 C77.5888352,15.3113246 77.2869138,14.1183039 77.2869138,12.7645328 C77.2869138,11.4091857 77.5888352,10.2145891 78.1942345,9.18231895 C78.7980774,8.15004878 79.6431462,7.35417636 80.7263284,6.7931257 C81.8110668,6.23365103 83.0685541,5.9531257 84.5019029,5.9531257 C85.9196887,5.9531257 87.1771761,6.23365103 88.2712523,6.7931257" id="Fill-12" fill="#FFFFFF" mask="url(#mask-2)"></path>
            <path d="M101.503349,6.29669043 C102.435571,6.55830394 103.308653,6.93181238 104.119483,7.41563977 L102.673684,10.1862214 C101.041129,9.29106191 99.6544695,8.84348218 98.5183733,8.84348218 C98.1261866,8.84348218 97.8133711,8.92228143 97.5783704,9.07987992 C97.344926,9.23747842 97.2250911,9.46442026 97.2250911,9.76385741 C97.2250911,10.0774784 97.4040652,10.329636 97.7620133,10.5187542 C98.123074,10.7094484 98.7082414,10.9206304 99.5190717,11.1538762 C100.451293,11.4217936 101.227885,11.6897111 101.848847,11.9592045 C102.471366,12.2302739 103.008288,12.64003 103.462726,13.1932008 C103.915608,13.7447955 104.142828,14.4618687 104.142828,15.3396923 C104.142828,16.6792795 103.630806,17.7273096 102.602094,18.4853583 C101.576495,19.2449831 100.238081,19.6232195 98.5884066,19.6232195 C97.48188,19.6232195 96.4127045,19.4608931 95.3871053,19.1393921 C94.3583936,18.8163152 93.4557418,18.3529756 92.6744811,17.7477974 L94.0128958,15.0134634 C94.7459113,15.5461463 95.5240594,15.9574784 96.3473401,16.2474597 C97.1721771,16.5374409 97.9534378,16.6824315 98.6973473,16.6824315 C99.1346666,16.6824315 99.4832769,16.6036323 99.7416221,16.4476098 C100.001524,16.2900113 100.12914,16.0630694 100.12914,15.7636323 C100.12914,15.4169156 99.9423843,15.1458462 99.5673169,14.947272 C99.1922495,14.7502739 98.6070822,14.534364 97.8118148,14.2995422 C96.8967127,14.0347767 96.1372401,13.7652833 95.5365098,13.4957899 C94.9342232,13.2262964 94.4159765,12.8228443 93.9833262,12.2854334 C93.5475633,11.7495985 93.3327944,11.0419812 93.3327944,10.1625816 C93.3327944,8.82457036 93.8292529,7.77969231 94.8252824,7.02952345 C95.8197557,6.27777861 97.1099252,5.90269418 98.6973473,5.90269418 C99.6357939,5.90269418 100.571128,6.03507692 101.503349,6.29669043" id="Fill-13" fill="#FFFFFF" mask="url(#mask-2)"></path>
            <path d="M3.51349428,33.0867017 L5.84326967,33.0867017 C6.62141777,33.0867017 7.21747921,32.8928555 7.63612288,32.5067392 C8.05321026,32.1206229 8.26175395,31.5595722 8.26175395,30.8251632 C8.26175395,30.1033621 8.05009767,29.5580713 7.6298977,29.1877148 C7.20969772,28.8157824 6.61363628,28.6313921 5.84326967,28.6313921 L3.51349428,28.6313921 L3.51349428,33.0867017 Z M10.1199716,27.0995347 C11.094213,27.9458386 11.5813337,29.1483152 11.5813337,30.7069644 C11.5813337,32.3459887 11.094213,33.6178086 10.1199716,34.524 C9.14261759,35.4317674 7.77618954,35.884075 6.01757484,35.884075 L3.51349428,35.884075 L3.51349428,39.8130056 L-0.000622518476,39.8130056 L-0.000622518476,25.8324428 L6.01757484,25.8324428 C7.77618954,25.8324428 9.14261759,26.2548068 10.1199716,27.0995347 L10.1199716,27.0995347 Z" id="Fill-14" fill="#FFFFFF" mask="url(#mask-2)"></path>
            <path d="M19.3519206,27.8317373 L16.7513497,27.8317373 L18.8414554,24.4780413 L21.9213656,25.5796548 L19.3519206,27.8317373 Z M23.7406758,39.8139512 L20.3230494,39.8139512 L20.3230494,38.0393921 C19.5978154,39.3206679 18.4492688,39.9573659 16.8774097,39.9494859 C15.7210816,39.9494859 14.7997542,39.5775535 14.1087587,38.8352645 C13.4193195,38.0898236 13.0738218,37.0906492 13.0738218,35.8361651 L13.0738218,29.0499737 L16.4821104,29.0499737 L16.4821104,34.8606304 C16.4821104,35.4973283 16.6424089,36.0000675 16.9630059,36.367272 C17.2851593,36.7344765 17.714697,36.9188668 18.2547318,36.9188668 C18.8959258,36.9062589 19.4001658,36.6635572 19.769008,36.1923377 C20.1394065,35.7211182 20.3230494,35.111212 20.3230494,34.3641951 L20.3230494,29.0499737 L23.7406758,29.0499737 L23.7406758,39.8139512 Z" id="Fill-15" fill="#FFFFFF" mask="url(#mask-2)"></path>
            <path d="M34.0301281,36.4107692 C34.4690036,35.8843902 34.6884414,35.2082927 34.6884414,34.3824765 C34.6884414,33.5582364 34.4690036,32.8852908 34.0301281,32.3652158 C33.5896963,31.8451407 33.0169793,31.5851032 32.3104208,31.5851032 C31.6303194,31.5851032 31.0684964,31.8451407 30.6265083,32.3652158 C30.1829639,32.8852908 29.9635262,33.5582364 29.9635262,34.3824765 C29.9635262,35.2224765 30.1798513,35.9017261 30.6125017,36.4202251 C31.045152,36.9403002 31.6116438,37.2003377 32.3104208,37.2003377 C33.0169793,37.2003377 33.5896963,36.9387242 34.0301281,36.4107692 M35.7482791,29.6198499 C36.5061953,30.0784615 37.0913627,30.7277674 37.5053375,31.5646154 C37.9193123,32.4046154 38.1262997,33.3754221 38.1262997,34.4801876 C38.1262997,35.5597373 37.9224249,36.5132083 37.5146753,37.3374484 C37.1069257,38.1632645 36.5342087,38.8015385 35.7965243,39.2522702 C35.0572836,39.7045779 34.1982081,39.9315197 33.2177415,39.9315197 C32.5360838,39.9315197 31.9182342,39.797561 31.3626364,39.5312195 C30.8070387,39.264878 30.3417061,38.8803377 29.9635262,38.3807505 L29.9635262,39.8133208 L26.5552375,39.8133208 L26.5552375,24.994334 L29.9635262,24.994334 L29.9635262,30.4740338 C30.3417061,29.9791745 30.7992572,29.5993621 31.339292,29.3330206 C31.8777705,29.0666792 32.4785008,28.9327205 33.1383704,28.9327205 C34.1219496,28.9327205 34.9919191,29.1628143 35.7482791,29.6198499" id="Fill-16" fill="#FFFFFF" mask="url(#mask-2)"></path>
            <polygon id="Fill-17" fill="#FFFFFF" mask="url(#mask-2)" points="40.0528387 39.812848 43.4611274 39.812848 43.4611274 24.9938612 40.0528387 24.9938612"></polygon>
            <path d="M46.2717983,39.814424 L49.6707492,39.814424 L49.6707492,29.0504465 L46.2717983,29.0504465 L46.2717983,39.814424 Z M49.2801188,24.6471445 C49.6162788,24.9891332 49.7859151,25.427257 49.7859151,25.95994 C49.7859151,26.4926229 49.6162788,26.9307467 49.2801188,27.2758874 C48.9424026,27.6210281 48.5113085,27.7928105 47.9852804,27.7928105 C47.4592523,27.7928105 47.0297145,27.6210281 46.6935546,27.2758874 C46.3605072,26.9307467 46.1955398,26.4926229 46.1955398,25.95994 C46.1955398,25.427257 46.3605072,24.9891332 46.6935546,24.6471445 C47.0297145,24.3067317 47.4592523,24.1365253 47.9852804,24.1365253 C48.5113085,24.1365253 48.9424026,24.3067317 49.2801188,24.6471445 L49.2801188,24.6471445 Z" id="Fill-18" fill="#FFFFFF" mask="url(#mask-2)"></path>
            <path d="M59.836009,29.5623265 C60.6561771,29.9815385 61.3004837,30.5788368 61.7627037,31.3510694 L59.3177624,32.8435272 C58.7901779,32.0949343 58.075838,31.7261538 57.1685173,31.7308818 C56.5148729,31.7308818 55.9810633,31.9798874 55.5655322,32.4778987 C55.1531138,32.974334 54.9461264,33.6299437 54.9461264,34.441576 C54.9461264,35.2673921 55.1468886,35.9293058 55.5515256,36.430469 C55.9561626,36.9316323 56.4961974,37.1822139 57.1685173,37.1822139 C58.1707721,37.1822139 58.8928935,36.7756098 59.3348816,35.9624015 L61.8187303,37.4343715 C61.3829674,38.2349719 60.7479986,38.849606 59.9184927,39.2830019 C59.0874305,39.7148218 58.1100765,39.9307317 56.987987,39.9307317 C55.9094737,39.9307317 54.9554641,39.7006379 54.1321835,39.2436023 C53.3057902,38.7849906 52.6630398,38.1435647 52.2008199,37.3177486 C51.7385999,36.4935084 51.5082681,35.5400375 51.5082681,34.4604878 C51.5082681,33.3699062 51.7385999,32.4038274 52.2008199,31.5654034 C52.6630398,30.7269794 53.3120154,30.0792495 54.1461901,29.6206379 C54.9803649,29.1620263 55.9437122,28.9335084 57.0346758,28.9335084 C58.0805069,28.9335084 59.0158409,29.1431144 59.836009,29.5623265" id="Fill-19" fill="#FFFFFF" mask="url(#mask-2)"></path>
            <path d="M66.3796119,32.4430694 C65.9391801,32.9631445 65.7212987,33.6360901 65.7212987,34.4603302 C65.7212987,35.3003302 65.9391801,35.9748518 66.3796119,36.4886229 C66.8184875,37.002394 67.3912045,37.2592795 68.0977629,37.2592795 C68.7980962,37.2592795 69.3661443,37.002394 69.8081324,36.4886229 C70.2454517,35.9748518 70.4664457,35.3003302 70.4664457,34.4603302 C70.4664457,33.6360901 70.2454517,32.9631445 69.8081324,32.4430694 C69.3661443,31.9229944 68.7980962,31.6629568 68.0977629,31.6629568 C67.3912045,31.6629568 66.8184875,31.9229944 66.3796119,32.4430694 M71.1356531,29.6110244 C72.018073,30.0633321 72.6997308,30.704758 73.1759574,31.536878 C73.6537403,32.3674221 73.8949662,33.330349 73.8949662,34.4225066 C73.8949662,35.5146642 73.6537403,36.476015 73.1759574,37.3081351 C72.6997308,38.1402552 72.018073,38.784833 71.1356531,39.2434447 C70.2532332,39.7020563 69.2400843,39.9305741 68.0977629,39.9305741 C66.9429912,39.9305741 65.9298423,39.7020563 65.0552039,39.2434447 C64.1821217,38.784833 63.5020203,38.1402552 63.0148996,37.3081351 C62.5262226,36.476015 62.2834404,35.5146642 62.2834404,34.4225066 C62.2834404,33.330349 62.5262226,32.3674221 63.0148996,31.536878 C63.5020203,30.704758 64.1821217,30.0633321 65.0552039,29.6110244 C65.9298423,29.1602927 66.9429912,28.9333508 68.0977629,28.9333508 C69.2400843,28.9333508 70.2532332,29.1602927 71.1356531,29.6110244" id="Fill-20" fill="#FFFFFF" mask="url(#mask-2)"></path>
            <path d="M81.7986164,29.2108818 C82.5487512,29.4220638 83.2537534,29.7230769 83.9058415,30.1139212 L82.7417319,32.3455159 C81.4266616,31.6237148 80.309241,31.2628143 79.3925825,31.2628143 C79.0766544,31.2628143 78.8245344,31.3258537 78.6362226,31.4535084 C78.4463544,31.5795872 78.3514204,31.7639775 78.3514204,32.0051032 C78.3514204,32.2572608 78.4961559,32.4605629 78.7840707,32.6134334 C79.0750981,32.7663039 79.5466558,32.9365103 80.2003002,33.1256285 C80.950435,33.3399625 81.5760661,33.5574484 82.0771935,33.7733583 C82.5783208,33.9924203 83.0109712,34.3233771 83.3782571,34.7678049 C83.7424304,35.2138086 83.9260733,35.7906191 83.9260733,36.4982364 C83.9260733,37.5777861 83.5120985,38.4225141 82.684149,39.0339962 C81.8577557,39.6454784 80.7792424,39.9496435 79.4486092,39.9496435 C78.5584078,39.9496435 77.6962197,39.8204128 76.8698264,39.5603752 C76.0403205,39.3003377 75.3135302,38.9268293 74.6832303,38.4398499 L75.7617435,36.2366229 C76.3531361,36.6652908 76.9803234,36.9962477 77.6433056,37.2294934 C78.3078441,37.4643152 78.938144,37.5809381 79.5373181,37.5809381 C79.889041,37.5809381 80.1707306,37.5178987 80.3792743,37.3918199 C80.587818,37.2641651 80.6905335,37.0813508 80.6905335,36.8402251 C80.6905335,36.5612758 80.5411291,36.3422139 80.2392077,36.1814634 C79.9372862,36.0222889 79.4641721,35.8489306 78.8229781,35.6598124 C78.08685,35.4470544 77.4736693,35.2295685 76.9896612,35.0120826 C76.5040968,34.7945966 76.0870094,34.4699437 75.7383991,34.0381238 C75.3882324,33.604728 75.2139273,33.0342214 75.2139273,32.3266041 C75.2139273,31.2470544 75.6138954,30.4054784 76.4169442,29.8018762 C77.2184367,29.1966979 78.2580426,28.8941088 79.5373181,28.8941088 C80.293678,28.8941088 81.0484817,28.9996998 81.7986164,29.2108818" id="Fill-21" fill="#FFFFFF" mask="url(#mask-2)"></path>
            <path d="M87.7565851,37.7005553 C87.9900296,37.947985 88.1083081,38.2553021 88.1083081,38.6256585 C88.1083081,39.0070469 87.9900296,39.3253959 87.7565851,39.5791295 C87.5231407,39.8312871 87.2274444,39.9573659 86.86794,39.9573659 C86.5162171,39.9573659 86.2205208,39.832863 85.9839638,39.5838574 C85.7474068,39.3332758 85.6291282,39.0133508 85.6291282,38.6256585 C85.6291282,38.2553021 85.7474068,37.947985 85.9839638,37.7005553 C86.2205208,37.4547017 86.5162171,37.3317749 86.86794,37.3317749 C87.2274444,37.3317749 87.5231407,37.4547017 87.7565851,37.7005553" id="Fill-22" fill="#FFFFFF" mask="url(#mask-2)"></path>
            <path d="M97.4697409,29.5476698 C98.2027564,29.845531 98.8128245,30.2741989 99.2999452,30.8320976 L98.0595772,32.3103715 C97.2985483,31.5129231 96.3274195,31.1141989 95.1493033,31.1141989 C94.2201945,31.1141989 93.456053,31.4278199 92.8584353,32.0534859 C92.2592613,32.679152 91.9588961,33.4939362 91.9588961,34.4994146 C91.9588961,35.4985891 92.2514798,36.3133734 92.8335346,36.9421914 C93.4171456,37.5710094 94.1626115,37.8862064 95.0730448,37.8862064 C96.4114595,37.8862064 97.438615,37.4606904 98.1576238,36.6112345 L99.4151111,37.8862064 C98.9404408,38.5213283 98.3288164,39.0098837 97.575569,39.3502964 C96.8223217,39.6907092 95.957021,39.8609156 94.9765544,39.8609156 C93.9509552,39.8609156 93.0389657,39.6355497 92.2374731,39.184818 C91.4375369,38.7340863 90.8150184,38.1036923 90.3699177,37.29206 C89.9232607,36.4820038 89.7022666,35.5505966 89.7022666,34.4994146 C89.7022666,33.4356248 89.9232607,32.4979137 90.3699177,31.6831295 C90.8150184,30.8699212 91.4375369,30.2347992 92.2374731,29.7809156 C93.0389657,29.3270319 93.9509552,29.1000901 94.9765544,29.1000901 C95.9041069,29.1000901 96.7367254,29.2498086 97.4697409,29.5476698" id="Fill-23" fill="#FFFFFF" mask="url(#mask-2)"></path>
            <polygon id="Fill-24" fill="#FFFFFF" mask="url(#mask-2)" points="101.875149 39.7829043 104.142672 39.7829043 104.142672 24.9938612 101.875149 24.9938612"></polygon>
        </g>
    </g>
</svg>