<?xml version="1.0" encoding="UTF-8" standalone="no"?>
<svg width="108px" height="41px" viewBox="0 0 108 41" version="1.1" xmlns="http://www.w3.org/2000/svg" xmlns:xlink="http://www.w3.org/1999/xlink">
    <!-- Generator: Sketch 3.8.2 (29753) - http://www.bohemiancoding.com/sketch -->
    <title>Group 6</title>
    <desc>Created with Sketch.</desc>
    <defs>
        <polygon id="path-1" points="0 41.0102065 106.418425 41.0102065 106.418425 0.000323498328 0 0.000323498328"></polygon>
    </defs>
    <g id="Page-1" stroke="none" stroke-width="1" fill="none" fill-rule="evenodd">
        <g id="Group-6" transform="translate(0.697199, 0.003913)">
            <path d="M4.45523884,11.3987871 L7.41002512,11.3987871 C8.39601408,11.3987871 9.15299915,11.1529283 9.68257064,10.6595934 C10.2105518,10.1678759 10.4761327,9.45294464 10.4761327,8.51803447 C10.4761327,7.59929922 10.2089615,6.90377781 9.67461912,6.43308775 C9.14345732,5.9591627 8.38647225,5.72462641 7.41002512,5.72462641 L4.45523884,5.72462641 L4.45523884,11.3987871 L4.45523884,11.3987871 Z M12.8313741,3.77393149 C14.0686312,4.85118092 14.6856695,6.38132801 14.6856695,8.36922524 C14.6856695,10.454172 14.0686312,12.0748986 12.8313741,13.2297876 C11.5925267,14.3846766 9.85909448,14.9621212 7.62948718,14.9621212 L4.45523884,14.9621212 L4.45523884,19.9666403 L0.000795152389,19.9666403 L0.000795152389,2.15967484 L7.62948718,2.15967484 C9.85909448,2.15967484 11.5925267,2.69829955 12.8313741,3.77393149 L12.8313741,3.77393149 Z" id="Fill-1" fill="#FFFFFF"></path>
            <path d="M23.6780478,16.6758535 C24.1948969,16.3280928 24.5161385,15.8719602 24.6465435,15.3106906 L24.6465435,14.0927194 L21.925532,14.0927194 C21.2750973,14.0927194 20.7852835,14.2107963 20.459271,14.4469501 C20.1348488,14.6831038 19.9726377,15.0583619 19.9726377,15.5711068 C19.9726377,16.0757642 20.1380294,16.4736671 20.4719934,16.7631981 C20.8043671,17.0527291 21.2750973,17.1983033 21.8762325,17.1983033 C22.5600636,17.1983033 23.1596085,17.0236143 23.6780478,16.6758535 M27.3325682,7.36880666 C28.3583148,8.24225214 28.8799348,9.45698836 28.8942475,11.0146328 L28.8942475,19.9658315 L24.6719883,19.9658315 L24.6719883,18.3887772 C24.2394254,18.9694567 23.6748672,19.4094144 22.9751331,19.7118854 C22.2738087,20.0143563 21.4659339,20.164783 20.5451474,20.164783 C19.1281859,20.164783 18.0038404,19.7668801 17.1705207,18.9726917 C16.3356107,18.1785033 15.9189508,17.1433086 15.9189508,15.8687252 C15.9189508,14.561792 16.3642362,13.5460072 17.2548068,12.8278409 C18.1469678,12.1064397 19.4255729,11.7376516 21.0938026,11.7214767 L24.6465435,11.7214767 L24.6465435,11.5225252 C24.6465435,10.8447962 24.4270814,10.3142589 23.986567,9.9341484 C23.5492332,9.55242037 22.8940276,9.36155636 22.0209503,9.36155636 C21.4532115,9.36155636 20.8154992,9.46022335 20.1062233,9.65432234 C19.3985377,9.84842134 18.6940327,10.1330999 17.9942986,10.5051229 L16.7729445,7.6114304 C17.8734354,7.0905981 18.9182656,6.70078261 19.9106158,6.44360144 C20.9045563,6.18803776 21.9430253,6.05863843 23.0228423,6.05863843 C24.8723667,6.05863843 26.308412,6.49697867 27.3325682,7.36880666" id="Fill-3" fill="#FFFFFF"></path>
            <path d="M38.1019532,6.73038271 C38.8414449,6.29851244 39.6970289,6.07691609 40.6655245,6.05912368 L40.6655245,10.0203607 C40.5351195,10.0041858 40.3363314,9.99609833 40.0675699,9.99609833 C39.0020657,9.99609833 38.1289883,10.258132 37.4546991,10.7838168 C36.7788196,11.3095015 36.3939658,12.0244328 36.2953669,12.9269932 L36.2953669,19.9663168 L31.9601961,19.9663168 L31.9601961,6.25807515 L36.2953669,6.25807515 L36.2953669,8.56785321 C36.7597359,7.77204732 37.3608711,7.16063548 38.1019532,6.73038271" id="Fill-5" fill="#FFFFFF"></path>
            <path d="M51.3563483,19.9109986 C50.723407,20.0792177 50.0809239,20.1649448 49.4273086,20.1649448 C48.0930429,20.1649448 47.0148163,19.7896867 46.194219,19.0343181 C45.3704412,18.2821845 44.9601425,17.2097875 44.9601425,15.8203622 L44.9601425,9.77256098 L43.0819926,9.77256098 L43.0819926,6.89180837 L44.9601425,6.89180837 L44.9601425,3.07938058 L49.257146,3.07938058 L49.257146,6.86592851 L52.7860323,6.86592851 L52.7860323,9.77256098 L49.257146,9.77256098 L49.257146,15.1361633 C49.257146,16.1373906 49.6547222,16.638813 50.4546455,16.638813 C50.9190145,16.638813 51.4931145,16.4867688 52.1753553,16.1794454 L53.0309393,19.2332696 C52.5506672,19.5147131 51.9924702,19.741162 51.3563483,19.9109986" id="Fill-7" fill="#FFFFFF"></path>
            <mask id="mask-2" fill="white">
                <use xlink:href="#path-1"></use>
            </mask>
            <g id="Clip-10"></g>
            <path d="M55.5413944,19.9666403 L59.8511203,19.9666403 L59.8511203,6.25839865 L55.5413944,6.25839865 L55.5413944,19.9666403 Z M59.3565356,0.650555137 C59.7843275,1.08566039 59.9990187,1.643695 59.9990187,2.321424 C59.9990187,3.00077049 59.7843275,3.5588051 59.3565356,3.99876283 C58.9287436,4.43710306 58.383269,4.65546443 57.715341,4.65546443 C57.047413,4.65546443 56.5035288,4.43710306 56.0789174,3.99876283 C55.6558963,3.5588051 55.4459761,3.00077049 55.4459761,2.321424 C55.4459761,1.643695 55.6558963,1.08566039 56.0789174,0.650555137 C56.5035288,0.217067378 57.047413,0.000323498328 57.715341,0.000323498328 C58.383269,0.000323498328 58.9287436,0.217067378 59.3565356,0.650555137 L59.3565356,0.650555137 Z" id="Fill-9" fill="#FFFFFF" mask="url(#mask-2)"></path>
            <path d="M71.6793302,15.7441784 C72.2279853,15.0826243 72.5031081,14.2172663 72.5031081,13.1497218 C72.5031081,12.0983522 72.2279853,11.2410816 71.6793302,10.5795276 C71.130675,9.91635599 70.4039058,9.5863877 69.4990223,9.5863877 C68.5957292,9.5863877 67.8721406,9.91312101 67.3250757,10.5665876 C66.7811915,11.2200543 66.4997075,12.0821773 66.4853948,13.1497218 C66.4997075,14.2172663 66.7843721,15.0826243 67.3330272,15.7441784 C67.8816824,16.4073499 68.6036808,16.7373182 69.4990223,16.7373182 C70.4039058,16.7373182 71.130675,16.4073499 71.6793302,15.7441784 L71.6793302,15.7441784 Z M76.8239662,19.9658315 L72.5031081,19.9658315 L72.5031081,18.1655633 C71.5187094,19.490289 70.1669504,20.1486081 68.4510115,20.1405206 C67.196261,20.1405206 66.0973604,19.8445197 65.1479485,19.2525177 C64.2001268,18.6605158 63.4638157,17.8307426 62.9374248,16.7631981 C62.4126243,15.6956536 62.150224,14.4582725 62.150224,13.0494373 C62.150224,11.6583945 62.4078533,10.4388058 62.9247024,9.38743622 C63.4415514,8.33606666 64.1683207,7.52246836 65.1050102,6.94664134 C66.0401095,6.37243181 67.123107,6.0845183 68.3508223,6.0845183 C69.2398027,6.0845183 70.0333647,6.25435492 70.7330989,6.59402816 C71.432833,6.93208392 72.022836,7.42541887 72.5031081,8.07079803 L72.5031081,1.0929391 L76.8239662,1.0929391 L76.8239662,19.9658315 Z" id="Fill-11" fill="#FFFFFF" mask="url(#mask-2)"></path>
            <path d="M84.169743,10.5790423 C83.611546,11.2422139 83.3348329,12.097867 83.3348329,13.1492365 C83.3348329,14.2183985 83.611546,15.0772866 84.169743,15.7307532 C84.7263496,16.3858373 85.4531189,16.7141881 86.3484605,16.7141881 C87.2358506,16.7141881 87.9578489,16.3858373 88.5160459,15.7307532 C89.0726526,15.0772866 89.3525462,14.2183985 89.3525462,13.1492365 C89.3525462,12.097867 89.0726526,11.2422139 88.5160459,10.5790423 C87.9578489,9.91587074 87.2358506,9.58590245 86.3484605,9.58590245 C85.4531189,9.58590245 84.7263496,9.91587074 84.169743,10.5790423 M90.2001787,6.97203596 C91.3197532,7.54786298 92.1832887,8.36469626 92.7891949,9.42415328 C93.3935107,10.4836103 93.6988492,11.709669 93.6988492,13.1007118 C93.6988492,14.4901371 93.3935107,15.7145783 92.7891949,16.7756528 C92.1832887,17.8351098 91.3197532,18.6567956 90.2001787,19.2390925 C89.0821944,19.823007 87.7972282,20.115773 86.3484605,20.115773 C84.8837898,20.115773 83.5988235,19.823007 82.4903811,19.2390925 C81.383529,18.6567956 80.5199935,17.8351098 79.9029552,16.7756528 C79.2843267,15.7145783 78.9758076,14.4901371 78.9758076,13.1007118 C78.9758076,11.709669 79.2843267,10.4836103 79.9029552,9.42415328 C80.5199935,8.36469626 81.383529,7.54786298 82.4903811,6.97203596 C83.5988235,6.39782643 84.8837898,6.10991292 86.3484605,6.10991292 C87.7972282,6.10991292 89.0821944,6.39782643 90.2001787,6.97203596" id="Fill-12" fill="#FFFFFF" mask="url(#mask-2)"></path>
            <path d="M103.721427,6.46252609 C104.67402,6.73102971 105.566181,7.11437522 106.394729,7.61094516 L104.917336,10.4544955 C103.249106,9.53576021 101.832145,9.07639258 100.671222,9.07639258 C100.270466,9.07639258 99.9508144,9.15726716 99.7106783,9.31901633 C99.4721326,9.48076549 99.3496792,9.71368429 99.3496792,10.0210077 C99.3496792,10.3428885 99.5325642,10.6016872 99.8983343,10.7957862 C100.267285,10.9915027 100.86524,11.2082466 101.693788,11.4476353 C102.646381,11.7226089 103.439943,11.9975825 104.074475,12.2741736 C104.710597,12.5523821 105.259252,12.9729299 105.723621,13.5406695 C106.186399,14.1067916 106.418584,14.8427503 106.418584,15.7436931 C106.418584,17.118561 105.895374,18.1941929 104.844182,18.9722064 C103.796171,19.7518374 102.428509,20.1400354 100.742786,20.1400354 C99.6120794,20.1400354 98.5195401,19.9734338 97.4715292,19.6434655 C96.4203378,19.3118797 95.497961,18.8363371 94.699628,18.2152203 L96.0672901,15.4088723 C96.8163236,15.9555845 97.611476,16.3777498 98.4527473,16.6753683 C99.2956088,16.9729868 100.093942,17.121796 100.854107,17.121796 C101.300983,17.121796 101.657211,17.0409214 101.921202,16.8807897 C102.186783,16.7190406 102.317188,16.4861218 102.317188,16.1787984 C102.317188,15.8229502 102.126351,15.5447416 101.743088,15.3409377 C101.359824,15.1387512 100.76187,14.9171549 99.9492241,14.6761486 C99.0141249,14.40441 98.2380561,14.127819 97.6241985,13.8512279 C97.0087505,13.5746368 96.479179,13.160559 96.0370743,12.6089943 C95.591789,12.0590472 95.3723269,11.3327934 95.3723269,10.4302331 C95.3723269,9.05698268 95.8796341,7.98458573 96.8974292,7.21465971 C97.9136339,6.44311619 99.2319966,6.05815318 100.854107,6.05815318 C101.813061,6.05815318 102.768834,6.19402248 103.721427,6.46252609" id="Fill-13" fill="#FFFFFF" mask="url(#mask-2)"></path>
            <path d="M3.59027207,33.9581047 L5.97095832,33.9581047 C6.76611071,33.9581047 7.37519744,33.7591532 7.80298943,33.3628678 C8.22919111,32.9665823 8.44229195,32.3907553 8.44229195,31.6370042 C8.44229195,30.896193 8.2260105,30.3365409 7.79662821,29.9564304 C7.36724592,29.5747024 6.75815919,29.3854558 5.97095832,29.3854558 L3.59027207,29.3854558 L3.59027207,33.9581047 Z M10.3411159,27.813254 C11.3366466,28.681847 11.834412,29.9159931 11.834412,31.5156923 C11.834412,33.1978836 11.3366466,34.5031994 10.3411159,35.4332571 C9.34240445,36.3649323 7.94611686,36.8291524 6.14907246,36.8291524 L3.59027207,36.8291524 L3.59027207,40.861559 L-0.000636121911,40.861559 L-0.000636121911,26.5127907 L6.14907246,26.5127907 C7.94611686,26.5127907 9.34240445,26.9462785 10.3411159,27.813254 L10.3411159,27.813254 Z" id="Fill-14" fill="#FFFFFF" mask="url(#mask-2)"></path>
            <path d="M19.7748038,28.5647406 L17.1174045,28.5647406 L19.2531838,25.1227184 L22.400397,26.253345 L19.7748038,28.5647406 Z M24.2594633,40.8625295 L20.767154,40.8625295 L20.767154,39.0412339 C20.026072,40.3562546 18.852427,41.0097213 17.2462192,41.0016338 C16.0646228,41.0016338 15.1231623,40.6199058 14.417067,39.8580672 C13.712562,39.0929937 13.3595143,38.067504 13.3595143,36.7799806 L13.3595143,29.8150616 L16.8422818,29.8150616 L16.8422818,35.7787533 C16.8422818,36.4322199 17.0060832,36.9481998 17.333686,37.3250753 C17.6628791,37.7019509 18.1018032,37.8911974 18.6536389,37.8911974 C19.3088445,37.8782574 19.8241032,37.6291637 20.2010055,37.1455337 C20.579498,36.6619037 20.767154,36.0359345 20.767154,35.2692434 L20.767154,29.8150616 L24.2594633,29.8150616 L24.2594633,40.8625295 Z" id="Fill-15" fill="#FFFFFF" mask="url(#mask-2)"></path>
            <path d="M34.7737633,37.3697181 C35.2222293,36.8294759 35.4464622,36.135572 35.4464622,35.2880063 C35.4464622,34.4420582 35.2222293,33.7513893 34.7737633,33.217617 C34.3237071,32.6838448 33.7384749,32.4169587 33.0164765,32.4169587 C32.3215134,32.4169587 31.7474133,32.6838448 31.2957668,33.217617 C30.8425299,33.7513893 30.6182969,34.4420582 30.6182969,35.2880063 C30.6182969,36.1501294 30.8393493,36.8472683 31.281454,37.379423 C31.7235588,37.9131953 32.3024297,38.1800814 33.0164765,38.1800814 C33.7384749,38.1800814 34.3237071,37.9115778 34.7737633,37.3697181 M36.5294598,30.3999466 C37.3039382,30.8706367 37.9018928,31.5370432 38.3249139,32.3959313 C38.747935,33.2580543 38.9594455,34.2544292 38.9594455,35.3882908 C38.9594455,36.4962726 38.7511156,37.474855 38.3344557,38.3208032 C37.9177959,39.1683688 37.3325637,39.8234529 36.5787592,40.2860555 C35.8233645,40.7502756 34.9455162,40.9831944 33.9436242,40.9831944 C33.2470707,40.9831944 32.6157197,40.8457076 32.0479809,40.5723515 C31.4802421,40.2989954 31.004741,39.9043275 30.6182969,39.3915826 L30.6182969,40.8618825 L27.1355295,40.8618825 L27.1355295,25.6526086 L30.6182969,25.6526086 L30.6182969,31.2766271 C31.004741,30.7687347 31.4722906,30.3789192 32.0241264,30.1055631 C32.5743718,29.832207 33.1882295,29.6947203 33.8625187,29.6947203 C34.8675913,29.6947203 35.7565717,29.930874 36.5294598,30.3999466" id="Fill-16" fill="#FFFFFF" mask="url(#mask-2)"></path>
            <polygon id="Fill-17" fill="#FFFFFF" mask="url(#mask-2)" points="40.9280838 40.8613973 44.4108512 40.8613973 44.4108512 25.6521234 40.9280838 25.6521234"></polygon>
            <path d="M47.2829417,40.8630148 L50.7561673,40.8630148 L50.7561673,29.8155469 L47.2829417,29.8155469 L47.2829417,40.8630148 Z M50.3570008,25.2962752 C50.7005066,25.6472709 50.8738499,26.0969336 50.8738499,26.6436458 C50.8738499,27.1903579 50.7005066,27.6400206 50.3570008,27.9942513 C50.0119047,28.348482 49.5713903,28.5247885 49.0338672,28.5247885 C48.4963442,28.5247885 48.0574201,28.348482 47.7139143,27.9942513 C47.3735891,27.6400206 47.2050167,27.1903579 47.2050167,26.6436458 C47.2050167,26.0969336 47.3735891,25.6472709 47.7139143,25.2962752 C48.0574201,24.946897 48.4963442,24.7722079 49.0338672,24.7722079 C49.5713903,24.7722079 50.0119047,24.946897 50.3570008,25.2962752 L50.3570008,25.2962752 Z" id="Fill-18" fill="#FFFFFF" mask="url(#mask-2)"></path>
            <path d="M61.143561,30.3409082 C61.9816517,30.7711609 62.6400378,31.3841903 63.1123584,32.1767612 L60.6139895,33.7085258 C60.0748762,32.9402172 59.3449263,32.5617242 58.4177786,32.5665767 C57.7498506,32.5665767 57.2043761,32.8221403 56.7797647,33.3332677 C56.358334,33.8427776 56.1468234,34.5156541 56.1468234,35.3486623 C56.1468234,36.1962279 56.3519727,36.8755744 56.765452,37.3899367 C57.1789312,37.9042991 57.730767,38.1614802 58.4177786,38.1614802 C59.4419349,38.1614802 60.1798363,37.7441674 60.6314829,36.9095417 L63.1696093,38.4202789 C62.724324,39.2419646 62.0754796,39.8727864 61.2278472,40.3175966 C60.3786244,40.7607893 59.379913,40.9823857 58.2333033,40.9823857 C57.1312221,40.9823857 56.1563653,40.7462319 55.315094,40.2771593 C54.4706422,39.8064692 53.8138463,39.1481501 53.3415258,38.3005845 C52.8692053,37.4546364 52.6338402,36.4760539 52.6338402,35.3680722 C52.6338402,34.248768 52.8692053,33.2572456 53.3415258,32.39674 C53.8138463,31.5362345 54.4770034,30.8714454 55.3294068,30.4007554 C56.1818101,29.9300653 57.1662088,29.695529 58.2810124,29.695529 C59.3496972,29.695529 60.3054704,29.9106554 61.143561,30.3409082" id="Fill-19" fill="#FFFFFF" mask="url(#mask-2)"></path>
            <path d="M67.8301565,33.2975211 C67.3801003,33.8312934 67.1574576,34.5219623 67.1574576,35.3679104 C67.1574576,36.2300335 67.3801003,36.9223199 67.8301565,37.4496222 C68.2786225,37.9769244 68.8638546,38.2405756 69.585853,38.2405756 C70.3014901,38.2405756 70.8819514,37.9769244 71.3335979,37.4496222 C71.7804736,36.9223199 72.0062969,36.2300335 72.0062969,35.3679104 C72.0062969,34.5219623 71.7804736,33.8312934 71.3335979,33.2975211 C70.8819514,32.7637489 70.3014901,32.4968628 69.585853,32.4968628 C68.8638546,32.4968628 68.2786225,32.7637489 67.8301565,33.2975211 M72.6901279,30.3908887 C73.5918307,30.8551088 74.2883842,31.5134278 74.7750175,32.3674634 C75.263241,33.2198815 75.5097383,34.2081689 75.5097383,35.3290906 C75.5097383,36.4500123 75.263241,37.4366822 74.7750175,38.2907178 C74.2883842,39.1447534 73.5918307,39.8063075 72.6901279,40.2769975 C71.7884251,40.7476876 70.7531367,40.9822239 69.585853,40.9822239 C68.4058468,40.9822239 67.3705584,40.7476876 66.4768071,40.2769975 C65.5846462,39.8063075 64.889683,39.1447534 64.3919176,38.2907178 C63.8925619,37.4366822 63.6444743,36.4500123 63.6444743,35.3290906 C63.6444743,34.2081689 63.8925619,33.2198815 64.3919176,32.3674634 C64.889683,31.5134278 65.5846462,30.8551088 66.4768071,30.3908887 C67.3705584,29.928286 68.4058468,29.6953672 69.585853,29.6953672 C70.7531367,29.6953672 71.7884251,29.928286 72.6901279,30.3908887" id="Fill-20" fill="#FFFFFF" mask="url(#mask-2)"></path>
            <path d="M83.5861011,29.9802075 C84.352628,30.1969514 85.0730361,30.5058923 85.7393738,30.9070302 L84.5498258,33.1973984 C83.2060183,32.4565872 82.0641794,32.0861816 81.1274899,32.0861816 C80.804658,32.0861816 80.5470287,32.1508813 80.3546018,32.2818981 C80.1605846,32.4112975 80.063576,32.600544 80.063576,32.8480202 C80.063576,33.1068189 80.2114744,33.3154753 80.5056807,33.472372 C80.8030677,33.6292687 81.2849301,33.8039578 81.9528581,33.9980568 C82.719385,34.2180356 83.3586875,34.4412495 83.8707657,34.6628458 C84.3828438,34.8876772 84.8249485,35.2273504 85.2002605,35.683483 C85.5723918,36.1412332 85.7600477,36.7332351 85.7600477,37.4594889 C85.7600477,38.5674706 85.3370267,39.4344462 84.4909845,40.0620329 C83.6465327,40.6896197 82.5444515,41.0017956 81.1847409,41.0017956 C80.2750866,41.0017956 79.3940577,40.8691612 78.5496059,40.6022751 C77.7019734,40.335389 76.9593011,39.9520435 76.3152277,39.4522386 L77.4173089,37.1909853 C78.0216247,37.630943 78.6625175,37.9706162 79.3399873,38.210005 C80.0190475,38.4510112 80.6631209,38.5707056 81.2753883,38.5707056 C81.6347971,38.5707056 81.9226423,38.506006 82.1357431,38.3766066 C82.348844,38.2455898 82.4538041,38.0579608 82.4538041,37.8104845 C82.4538041,37.5241885 82.3011348,37.2993572 81.9926157,37.134373 C81.6840966,36.9710064 81.2006439,36.7930823 80.5454384,36.5989833 C79.7932242,36.3806219 79.1666441,36.1574081 78.6720593,35.9341942 C78.1758842,35.7109804 77.7496826,35.3777771 77.3934543,34.9345844 C77.0356357,34.4897742 76.8575216,33.9042422 76.8575216,33.1779885 C76.8575216,32.0700067 77.2662299,31.2062662 78.0868272,30.5867669 C78.9058341,29.9656501 79.9681577,29.6550917 81.2753883,29.6550917 C82.0482764,29.6550917 82.8195742,29.7634636 83.5861011,29.9802075" id="Fill-21" fill="#FFFFFF" mask="url(#mask-2)"></path>
            <path d="M89.6742649,38.6934732 C89.9128106,38.9474194 90.0336738,39.2628303 90.0336738,39.6429408 C90.0336738,40.0343738 89.9128106,40.3611071 89.6742649,40.6215233 C89.4357192,40.8803219 89.1335613,41.0097213 88.7662009,41.0097213 C88.406792,41.0097213 88.1046341,40.8819394 87.8629077,40.6263757 C87.6211814,40.3691946 87.5003183,40.0408438 87.5003183,39.6429408 C87.5003183,39.2628303 87.6211814,38.9474194 87.8629077,38.6934732 C88.1046341,38.4411445 88.406792,38.3149802 88.7662009,38.3149802 C89.1335613,38.3149802 89.4357192,38.4411445 89.6742649,38.6934732" id="Fill-22" fill="#FFFFFF" mask="url(#mask-2)"></path>
            <path d="M99.5996751,30.3258655 C100.348709,30.6315714 100.972108,31.0715291 101.469873,31.6441212 L100.202401,33.1613283 C99.4247415,32.3428776 98.4323914,31.9336522 97.2285306,31.9336522 C96.2791187,31.9336522 95.498279,32.255533 94.887602,32.8976772 C94.2753347,33.5398214 93.9684059,34.3760646 93.9684059,35.4080242 C93.9684059,36.4335139 94.2673831,37.2697571 94.8621571,37.9151363 C95.4585214,38.5605154 96.2202774,38.8840137 97.1506057,38.8840137 C98.5182678,38.8840137 99.567869,38.447291 100.30259,37.575463 L101.587556,38.8840137 C101.102513,39.5358629 100.477523,40.0372853 99.7078158,40.3866635 C98.9381083,40.7360417 98.0538988,40.9107308 97.0520068,40.9107308 C96.003996,40.9107308 95.0720774,40.6794295 94.2530704,40.2168269 C93.4356538,39.7542243 92.7995318,39.1072276 92.3447047,38.2742194 C91.8882872,37.4428287 91.6624639,36.4868911 91.6624639,35.4080242 C91.6624639,34.3162174 91.8882872,33.3538098 92.3447047,32.5175667 C92.7995318,31.682941 93.4356538,31.0310918 94.2530704,30.5652543 C95.0720774,30.0994167 96.003996,29.8664979 97.0520068,29.8664979 C97.9998285,29.8664979 98.8506415,30.0201596 99.5996751,30.3258655" id="Fill-23" fill="#FFFFFF" mask="url(#mask-2)"></path>
            <polygon id="Fill-24" fill="#FFFFFF" mask="url(#mask-2)" points="104.101351 40.8306649 106.418425 40.8306649 106.418425 25.6521234 104.101351 25.6521234"></polygon>
        </g>
    </g>
</svg>