<?xml version="1.0" encoding="UTF-8" standalone="no"?>
<svg width="198px" height="16px" viewBox="0 0 198 16" version="1.1" xmlns="http://www.w3.org/2000/svg" xmlns:xlink="http://www.w3.org/1999/xlink">
    <!-- Generator: Sketch 3.8.2 (29753) - http://www.bohemiancoding.com/sketch -->
    <title>Page 1</title>
    <desc>Created with Sketch.</desc>
    <defs>
        <polygon id="path-1" points="0 0.663165182 0 14.6908494 12.1338232 14.6908494 12.1338232 0.663165182 6.9249042e-20 0.663165182"></polygon>
        <polygon id="path-3" points="0 15.9048146 197.414942 15.9048146 197.414942 0.00024777328 0 0.00024777328"></polygon>
    </defs>
    <g id="Page-1" stroke="none" stroke-width="1" fill="none" fill-rule="evenodd">
        <g id="Partido-Copy-73" transform="translate(-88.000000, -39.000000)">
            <g id="Group-12" transform="translate(88.000000, 39.000000)">
                <g id="Page-1">
                    <g id="Group-3" transform="translate(0.000000, 1.038418)">
                        <mask id="mask-2" fill="white">
                            <use xlink:href="#path-1"></use>
                        </mask>
                        <g id="Clip-2"></g>
                        <path d="M3.68113935,7.94150526 L6.12228774,7.94150526 C6.93600387,7.94150526 7.56066194,7.74700324 7.99753935,7.35923806 C8.43569419,6.97147287 8.65285548,6.40902753 8.65285548,5.67190202 C8.65285548,4.94716518 8.43313935,4.4008251 7.9937071,4.02916518 C7.55299742,3.6562664 6.92961677,3.47043644 6.12228774,3.47043644 L3.68113935,3.47043644 L3.68113935,7.94150526 Z M10.5996426,1.93548097 C11.6215781,2.78286559 12.1338232,3.98952146 12.1338232,5.55420972 C12.1338232,7.19818543 11.6215781,8.47421781 10.5996426,9.38354575 C9.5777071,10.2941126 8.14572,10.7487765 6.30368129,10.7487765 L3.68113935,10.7487765 L3.68113935,14.6908494 L-0.000383225806,14.6908494 L-0.000383225806,0.663165182 L6.30368129,0.663165182 C8.14572,0.663165182 9.5777071,1.08809636 10.5996426,1.93548097 L10.5996426,1.93548097 Z" id="Fill-1" fill="#FFFFFF" mask="url(#mask-2)"></path>
                    </g>
                    <path d="M19.5620168,13.137187 C19.9886748,12.8633976 20.2556555,12.5041263 20.3642361,12.0606121 L20.3642361,11.1017296 L18.1147006,11.1017296 C17.5769071,11.1017296 17.1732426,11.1958834 16.9037071,11.3817134 C16.635449,11.5675433 16.50132,11.8623935 16.50132,12.266264 C16.50132,12.6639401 16.6380039,12.9773733 16.9139265,13.2053247 C17.189849,13.4332761 17.5769071,13.5472518 18.0738232,13.5472518 C18.63972,13.5472518 19.1340813,13.4109765 19.5620168,13.137187 M22.5831135,5.80557571 C23.4300426,6.49314656 23.8605329,7.45079028 23.8733071,8.67726802 L23.8733071,15.7288955 L20.3833974,15.7288955 L20.3833974,14.4863126 C20.0269974,14.9434543 19.5594619,15.2903368 18.9820684,15.5281992 C18.4033974,15.7660615 17.7340297,15.8849927 16.9739652,15.8849927 C15.8051265,15.8849927 14.8751652,15.5727984 14.1853587,14.9471709 C13.4968297,14.3203045 13.1519265,13.5051304 13.1519265,12.5016486 C13.1519265,11.4709117 13.5198232,10.6718429 14.2568942,10.1044421 C14.9926877,9.5370413 16.050391,9.24714656 17.4287265,9.23475789 L20.3642361,9.23475789 L20.3642361,9.07742186 C20.3642361,8.54347045 20.1815652,8.1247336 19.8187781,7.82492794 C19.455991,7.52512227 18.9143652,7.37521943 18.1951781,7.37521943 C17.7250877,7.37521943 17.1962361,7.45202915 16.6111781,7.60564858 C16.0273974,7.75926802 15.4448942,7.98226397 14.8662232,8.2758753 L13.8583394,5.99636113 C14.7653071,5.58629636 15.63012,5.27905749 16.4502232,5.07712227 C17.2703265,4.87394818 18.1274748,4.7736 19.0229458,4.7736 C20.5481845,4.7736 21.7361845,5.11676599 22.5831135,5.80557571" id="Fill-4" fill="#FFFFFF"></path>
                    <path d="M31.4788065,5.30185263 C32.0906903,4.96364211 32.7971032,4.78648421 33.5967677,4.77409555 L33.5967677,7.89356113 C33.4894645,7.88117247 33.3246774,7.87373927 33.1024065,7.87373927 C32.2222645,7.87373927 31.5018,8.08186883 30.9435677,8.4956502 C30.3853355,8.90943158 30.0672581,9.47187692 29.9855032,10.1829862 L29.9855032,15.7293911 L26.4061742,15.7293911 L26.4061742,4.93019271 L29.9855032,4.93019271 L29.9855032,6.75008745 C30.368729,6.12322105 30.8669226,5.64006316 31.4788065,5.30185263" id="Fill-6" fill="#FFFFFF"></path>
                    <path d="M41.030071,15.6847919 C40.5050516,15.8185895 39.9749226,15.8854883 39.437129,15.8854883 C38.3334387,15.8854883 37.4430774,15.5893992 36.7634903,14.9959822 C36.0839032,14.4025652 35.7453871,13.5576583 35.7453871,12.4625004 L35.7453871,7.69905911 L34.1920452,7.69905911 L34.1920452,5.428217 L35.7453871,5.428217 L35.7453871,2.42644372 L39.2953355,2.42644372 L39.2953355,5.40963401 L42.2104065,5.40963401 L42.2104065,7.69905911 L39.2953355,7.69905911 L39.2953355,11.9235935 C39.2953355,12.7127514 39.6249097,13.1079498 40.2840581,13.1079498 C40.6672839,13.1079498 41.1412065,12.9865409 41.7058258,12.7449619 L42.4122387,15.1520794 C42.0149613,15.3738364 41.5550903,15.5509943 41.030071,15.6847919" id="Fill-8" fill="#FFFFFF"></path>
                    <mask id="mask-4" fill="white">
                        <use xlink:href="#path-3"></use>
                    </mask>
                    <g id="Clip-11"></g>
                    <path d="M44.1974323,15.7288955 L47.7576,15.7288955 L47.7576,4.92969717 L44.1974323,4.92969717 L44.1974323,15.7288955 Z M47.3488258,0.513138462 C47.702671,0.856304453 47.8789548,1.29486316 47.8789548,1.82881457 C47.8789548,2.36400486 47.702671,2.80380243 47.3488258,3.15068502 C46.9962581,3.49508988 46.5440516,3.66853117 45.9922065,3.66853117 C45.4416387,3.66853117 44.9907097,3.49508988 44.6406968,3.15068502 C44.2919613,2.80380243 44.1169548,2.36400486 44.1169548,1.82881457 C44.1169548,1.29486316 44.2919613,0.856304453 44.6406968,0.513138462 C44.9907097,0.171211336 45.4416387,0.00024777328 45.9922065,0.00024777328 C46.5440516,0.00024777328 46.9962581,0.171211336 47.3488258,0.513138462 L47.3488258,0.513138462 Z" id="Fill-10" fill="#FFFFFF" mask="url(#mask-4)"></path>
                    <path d="M57.5758452,12.4031587 C58.029329,11.881596 58.2567097,11.2002194 58.2567097,10.3590291 C58.2567097,9.53022753 58.029329,8.85628421 57.5758452,8.33348259 C57.1223613,7.8131587 56.5219742,7.55175789 55.7759613,7.55175789 C55.028671,7.55175789 54.4308387,7.80944211 53.9799097,8.32481053 C53.5302581,8.84017895 53.2977677,9.51783887 53.2849935,10.3590291 C53.2977677,11.2002194 53.5315355,11.881596 53.9850194,12.4031587 C54.4385032,12.9247215 55.0363355,13.1848834 55.7759613,13.1848834 C56.5219742,13.1848834 57.1223613,12.9247215 57.5758452,12.4031587 L57.5758452,12.4031587 Z M61.8270968,15.729515 L58.2567097,15.729515 L58.2567097,14.311013 C57.4429935,15.3541385 56.326529,15.8732235 54.9085935,15.8657903 C53.8726065,15.8657903 52.9630839,15.6328834 52.1800258,15.1670696 C51.3969677,14.700017 50.7889161,14.0458955 50.3545935,13.2059441 C49.920271,12.3647538 49.7043871,11.389766 49.7043871,10.2809806 C49.7043871,9.18582267 49.9177161,8.22322348 50.3443742,7.39566073 C50.7710323,6.56685911 51.3714194,5.92636518 52.1455355,5.47294008 C52.9183742,5.01951498 53.8125677,4.79280243 54.8281161,4.79280243 C55.5600774,4.79280243 56.2153935,4.9266 56.7953419,5.19419514 C57.3727355,5.46179028 57.8607097,5.84955547 58.2567097,6.35749069 L58.2567097,0.860640486 L61.8270968,0.860640486 L61.8270968,15.729515 Z" id="Fill-12" fill="#FFFFFF" mask="url(#mask-4)"></path>
                    <path d="M68.1365265,8.33385425 C67.6753781,8.855417 67.4454426,9.53059919 67.4454426,10.3581619 C67.4454426,11.2005911 67.6753781,11.878251 68.1365265,12.3936194 C68.5963974,12.907749 69.1967845,13.1654332 69.9364103,13.1654332 C70.669649,13.1654332 71.2662039,12.907749 71.7273523,12.3936194 C72.1872232,11.878251 72.4171587,11.2005911 72.4171587,10.3581619 C72.4171587,9.53059919 72.1872232,8.855417 71.7273523,8.33385425 C71.2662039,7.8122915 70.669649,7.55212955 69.9364103,7.55212955 C69.1967845,7.55212955 68.5963974,7.8122915 68.1365265,8.33385425 M73.1184619,5.49189474 C74.0433135,5.9465587 74.7561135,6.58953036 75.2568619,7.42452632 C75.7576103,8.25952227 76.0092619,9.22459919 76.0092619,10.3197571 C76.0092619,11.414915 75.7576103,12.3799919 75.2568619,13.2149879 C74.7561135,14.0499838 74.0433135,14.6966721 73.1184619,15.1562915 C72.1936103,15.6159109 71.1333523,15.8463401 69.9364103,15.8463401 C68.7266942,15.8463401 67.6638813,15.6159109 66.749249,15.1562915 C65.8346168,14.6966721 65.1218168,14.0499838 64.610849,13.2149879 C64.0998813,12.3799919 63.8443974,11.414915 63.8443974,10.3197571 C63.8443974,9.22459919 64.0998813,8.25952227 64.610849,7.42452632 C65.1218168,6.58953036 65.8346168,5.9465587 66.749249,5.49189474 C67.6638813,5.0397085 68.7266942,4.81299595 69.9364103,4.81299595 C71.1333523,4.81299595 72.1936103,5.0397085 73.1184619,5.49189474" id="Fill-13" fill="#FFFFFF" mask="url(#mask-4)"></path>
                    <path d="M84.2892387,5.09112146 C85.076129,5.30296761 85.8119226,5.60525101 86.4978968,5.99673279 L85.2779613,8.23660324 C83.8996258,7.51310526 82.7295097,7.15011741 81.7676129,7.15011741 C81.4380387,7.15011741 81.1736129,7.21453846 80.9756129,7.34090283 C80.7776129,7.46850607 80.6779742,7.65309717 80.6779742,7.89343725 C80.6779742,8.14740486 80.8299871,8.35181781 81.1327355,8.50543725 C81.4342065,8.65905668 81.9285677,8.83002024 82.6145419,9.01832794 C83.4014323,9.23389069 84.0580258,9.45069231 84.5817677,9.66873279 C85.1067871,9.88801215 85.560271,10.2200283 85.9434968,10.6672591 C86.3267226,11.113251 86.5183355,11.6930405 86.5183355,12.4029109 C86.5183355,13.4856802 86.0840129,14.3330648 85.2166452,14.9463036 C84.3492774,15.5595425 83.2200387,15.8655425 81.828929,15.8655425 C80.8938581,15.8655425 79.992,15.7354615 79.1259097,15.4752996 C78.2585419,15.2138988 77.4946452,14.8385223 76.8354968,14.34917 L77.9647355,12.1390324 C78.5842839,12.568919 79.2408774,12.9021741 79.937071,13.1375587 C80.6332645,13.3717045 81.2936903,13.4881579 81.9196258,13.4881579 C82.2888,13.4881579 82.5826065,13.4262146 82.8023226,13.2986113 C83.0194839,13.1710081 83.1293419,12.986417 83.1293419,12.7448381 C83.1293419,12.4660931 82.9709419,12.2455749 82.6554194,12.0845223 C82.3386194,11.9259474 81.8455355,11.7512672 81.1723355,11.5617206 C80.3994968,11.3473968 79.7582323,11.1305951 79.2510968,10.9113158 C78.7439613,10.6932753 78.3058065,10.3662146 77.9391871,9.9338502 C77.5738452,9.50024696 77.3898968,8.92789069 77.3898968,8.21678138 C77.3898968,7.13401215 77.8101677,6.28910526 78.6507097,5.6832996 C79.4912516,5.07749393 80.5808903,4.77397166 81.9196258,4.77397166 C82.7129032,4.77397166 83.5023484,4.8792753 84.2892387,5.09112146" id="Fill-14" fill="#FFFFFF" mask="url(#mask-4)"></path>
                    <path d="M92.2169032,8.97992308 L94.6580516,8.97992308 C95.4717677,8.97992308 96.0964258,8.78542105 96.5333032,8.39765587 C96.9714581,8.00989069 97.1886194,7.44744534 97.1886194,6.71031984 C97.1886194,5.985583 96.9689032,5.43924291 96.529471,5.067583 C96.0887613,4.69468421 95.4653806,4.50885425 94.6580516,4.50885425 L92.2169032,4.50885425 L92.2169032,8.97992308 Z M99.1354065,2.97389879 C100.157342,3.8212834 100.66831,5.02793927 100.66831,6.59262753 C100.66831,8.23660324 100.157342,9.51263563 99.1354065,10.4219636 C98.113471,11.3325304 96.6814839,11.7871943 94.8394452,11.7871943 L92.2169032,11.7871943 L92.2169032,15.7292672 L88.5353806,15.7292672 L88.5353806,1.701583 L94.8394452,1.701583 C96.6814839,1.701583 98.113471,2.12651417 99.1354065,2.97389879 L99.1354065,2.97389879 Z" id="Fill-15" fill="#FFFFFF" mask="url(#mask-4)"></path>
                    <path d="M108.80892,3.70767935 L106.085462,3.70767935 L108.273681,0.341679352 L111.50172,1.44798704 L108.80892,3.70767935 Z M113.40763,15.7296389 L109.827023,15.7296389 L109.827023,13.9493879 C109.068236,15.2328534 107.86363,15.8721085 106.217036,15.8659142 C105.006043,15.8659142 104.039036,15.4930154 103.316017,14.7459789 C102.592997,13.9989425 102.232765,12.9966996 102.232765,11.7380113 L102.232765,4.93044049 L105.803152,4.93044049 L105.803152,10.7605457 C105.803152,11.3998008 105.970494,11.9027806 106.307733,12.2707239 C106.643694,12.6399061 107.093346,12.8232583 107.659243,12.8232583 C108.331165,12.8108696 108.861294,12.5680518 109.247075,12.0948049 C109.634133,11.6215579 109.827023,11.0107968 109.827023,10.2612826 L109.827023,4.93044049 L113.40763,4.93044049 L113.40763,15.7296389 Z" id="Fill-16" fill="#FFFFFF" mask="url(#mask-4)"></path>
                    <path d="M124.184834,12.3151992 C124.644705,11.7874421 124.87464,11.1085433 124.87464,10.2809806 C124.87464,9.45217895 124.644705,8.77699676 124.184834,8.25543401 C123.723685,7.73387126 123.123298,7.47247045 122.383672,7.47247045 C121.670872,7.47247045 121.083259,7.73387126 120.619556,8.25543401 C120.154575,8.77699676 119.923363,9.45217895 119.923363,10.2809806 C119.923363,11.1221709 120.150743,11.8035474 120.604227,12.3251101 C121.057711,12.8466729 121.651711,13.1080737 122.383672,13.1080737 C123.123298,13.1080737 123.723685,12.8429563 124.184834,12.3151992 M125.984717,5.50267287 C126.777995,5.96229231 127.392434,6.61269717 127.825479,7.45388745 C128.258524,8.29507773 128.475685,9.27006559 128.475685,10.3776121 C128.475685,11.4616202 128.262356,12.4167862 127.835698,13.244349 C127.40904,14.0719117 126.808653,14.7136445 126.035814,15.1670696 C125.261698,15.6192559 124.361117,15.8459684 123.332795,15.8459684 C122.618717,15.8459684 121.972343,15.7134097 121.391117,15.4445757 C120.808614,15.1782194 120.319363,14.792932 119.923363,14.2911911 L119.923363,15.729515 L116.352975,15.729515 L116.352975,0.860640486 L119.923363,0.860640486 L119.923363,6.35749069 C120.319363,5.863183 120.80095,5.48037328 121.365569,5.214017 C121.930188,4.94642186 122.558679,4.81262429 123.25104,4.81262429 C124.28064,4.81262429 125.19144,5.04305344 125.984717,5.50267287" id="Fill-17" fill="#FFFFFF" mask="url(#mask-4)"></path>
                    <polygon id="Fill-18" fill="#FFFFFF" mask="url(#mask-4)" points="130.493497 15.7288955 134.063884 15.7288955 134.063884 0.861259919 130.493497 0.861259919"></polygon>
                    <path d="M137.009613,15.7288955 L140.569781,15.7288955 L140.569781,4.92969717 L137.009613,4.92969717 L137.009613,15.7288955 Z M140.161006,0.513138462 C140.513574,0.856304453 140.689858,1.29486316 140.689858,1.82881457 C140.689858,2.36400486 140.513574,2.80380243 140.161006,3.15068502 C139.807161,3.49508988 139.356232,3.66853117 138.804387,3.66853117 C138.252542,3.66853117 137.801613,3.49508988 137.452877,3.15068502 C137.102865,2.80380243 136.927858,2.36400486 136.927858,1.82881457 C136.927858,1.29486316 137.102865,0.856304453 137.452877,0.513138462 C137.801613,0.171211336 138.252542,0.00024777328 138.804387,0.00024777328 C139.356232,0.00024777328 139.807161,0.171211336 140.161006,0.513138462 L140.161006,0.513138462 Z" id="Fill-19" fill="#FFFFFF" mask="url(#mask-4)"></path>
                    <path d="M151.220009,5.44345506 C152.08099,5.86466964 152.752912,6.46304211 153.237054,7.23857247 L150.675828,8.73512308 C150.123983,7.98560891 149.374138,7.61394899 148.426293,7.62014332 C147.740319,7.62014332 147.180809,7.86915547 146.746486,8.36841862 C146.313441,8.86768178 146.09628,9.52428097 146.09628,10.3394551 C146.09628,11.1670178 146.308332,11.8322891 146.732435,12.3352688 C147.155261,12.8370097 147.71988,13.0884996 148.426293,13.0884996 C149.475054,13.0884996 150.231286,12.6796737 150.69499,11.8644996 L153.297093,13.3424672 C152.839777,14.1440138 152.176796,14.7622081 151.305596,15.1958113 C150.434396,15.6294146 149.411183,15.8462162 148.23468,15.8462162 C147.105441,15.8462162 146.107777,15.615787 145.244241,15.1561676 C144.379428,14.6965482 143.706228,14.0535765 143.222086,13.2247749 C142.737945,12.3972121 142.495235,11.4420462 142.495235,10.3592769 C142.495235,9.26288016 142.737945,8.29532551 143.222086,7.45413522 C143.706228,6.61170607 144.384538,5.96254008 145.25957,5.50292065 C146.133325,5.04330121 147.141209,4.81287206 148.285777,4.81287206 C149.380525,4.81287206 150.359028,5.02224049 151.220009,5.44345506" id="Fill-20" fill="#FFFFFF" mask="url(#mask-4)"></path>
                    <path d="M158.073875,8.33385425 C157.612726,8.855417 157.382791,9.53059919 157.382791,10.3581619 C157.382791,11.2005911 157.612726,11.878251 158.073875,12.3936194 C158.533746,12.907749 159.134133,13.1654332 159.873759,13.1654332 C160.606997,13.1654332 161.203552,12.907749 161.664701,12.3936194 C162.124572,11.878251 162.354507,11.2005911 162.354507,10.3581619 C162.354507,9.53059919 162.124572,8.855417 161.664701,8.33385425 C161.203552,7.8122915 160.606997,7.55212955 159.873759,7.55212955 C159.134133,7.55212955 158.533746,7.8122915 158.073875,8.33385425 M163.05581,5.49189474 C163.980662,5.9465587 164.693462,6.58953036 165.19421,7.42452632 C165.694959,8.25952227 165.94661,9.22459919 165.94661,10.3197571 C165.94661,11.414915 165.694959,12.3799919 165.19421,13.2149879 C164.693462,14.0499838 163.980662,14.6966721 163.05581,15.1562915 C162.130959,15.6159109 161.070701,15.8463401 159.873759,15.8463401 C158.664043,15.8463401 157.60123,15.6159109 156.686597,15.1562915 C155.771965,14.6966721 155.059165,14.0499838 154.548197,13.2149879 C154.03723,12.3799919 153.781746,11.414915 153.781746,10.3197571 C153.781746,9.22459919 154.03723,8.25952227 154.548197,7.42452632 C155.059165,6.58953036 155.771965,5.9465587 156.686597,5.49189474 C157.60123,5.0397085 158.664043,4.81299595 159.873759,4.81299595 C161.070701,4.81299595 162.130959,5.0397085 163.05581,5.49189474" id="Fill-21" fill="#FFFFFF" mask="url(#mask-4)"></path>
                    <path d="M174.226587,5.09112146 C175.013477,5.30296761 175.749271,5.60525101 176.435245,5.99673279 L175.21531,8.23660324 C173.836974,7.51310526 172.666858,7.15011741 171.704961,7.15011741 C171.375387,7.15011741 171.110961,7.21453846 170.912961,7.34090283 C170.714961,7.46850607 170.615323,7.65309717 170.615323,7.89343725 C170.615323,8.14740486 170.767335,8.35181781 171.070084,8.50543725 C171.371555,8.65905668 171.865916,8.83002024 172.55189,9.01832794 C173.338781,9.23389069 173.995374,9.45069231 174.519116,9.66873279 C175.044135,9.88801215 175.497619,10.2200283 175.880845,10.6672591 C176.264071,11.113251 176.455684,11.6930405 176.455684,12.4029109 C176.455684,13.4856802 176.021361,14.3330648 175.153994,14.9463036 C174.286626,15.5595425 173.157387,15.8655425 171.766277,15.8655425 C170.831206,15.8655425 169.929348,15.7354615 169.063258,15.4752996 C168.19589,15.2138988 167.431994,14.8385223 166.772845,14.34917 L167.902084,12.1390324 C168.521632,12.568919 169.178226,12.9021741 169.874419,13.1375587 C170.570613,13.3717045 171.231039,13.4881579 171.856974,13.4881579 C172.226148,13.4881579 172.519955,13.4262146 172.739671,13.2986113 C172.956832,13.1710081 173.06669,12.986417 173.06669,12.7448381 C173.06669,12.4660931 172.90829,12.2455749 172.592768,12.0845223 C172.275968,11.9259474 171.782884,11.7512672 171.109684,11.5617206 C170.336845,11.3473968 169.695581,11.1305951 169.188445,10.9113158 C168.68131,10.6932753 168.243155,10.3662146 167.876535,9.9338502 C167.511194,9.50024696 167.327245,8.92789069 167.327245,8.21678138 C167.327245,7.13401215 167.747516,6.28910526 168.588058,5.6832996 C169.4286,5.07749393 170.518239,4.77397166 171.856974,4.77397166 C172.650252,4.77397166 173.439697,4.8792753 174.226587,5.09112146" id="Fill-22" fill="#FFFFFF" mask="url(#mask-4)"></path>
                    <path d="M180.212957,13.6357069 C180.458222,13.8834802 180.580854,14.1931968 180.580854,14.5648567 C180.580854,14.9501441 180.458222,15.2697717 180.212957,15.5237393 C179.967693,15.7777069 179.656003,15.9053101 179.279164,15.9053101 C178.90999,15.9053101 178.600854,15.7789457 178.351757,15.5286947 C178.102661,15.2772049 177.978751,14.9563385 177.978751,14.5648567 C177.978751,14.1931968 178.102661,13.8834802 178.351757,13.6357069 C178.600854,13.3879336 178.90999,13.264047 179.279164,13.264047 C179.656003,13.264047 179.967693,13.3879336 180.212957,13.6357069" id="Fill-23" fill="#FFFFFF" mask="url(#mask-4)"></path>
                    <path d="M190.40983,5.43874737 C191.180114,5.73855304 191.820101,6.16967854 192.331068,6.72964615 L191.029378,8.21628583 C190.229714,7.41473927 189.210333,7.01334656 187.973791,7.01334656 C186.99912,7.01334656 186.196901,7.32801862 185.56841,7.95736275 C184.93992,8.58670688 184.625675,9.40683644 184.625675,10.4177514 C184.625675,11.4212332 184.930978,12.2401239 185.542862,12.8731846 C186.154746,13.5050065 186.937804,13.8221563 187.893314,13.8221563 C189.298475,13.8221563 190.377894,13.3947474 191.130294,12.5399296 L192.452423,13.8221563 C191.95423,14.4614113 191.31041,14.9520024 190.520965,15.2939296 C189.730243,15.6358567 188.821997,15.8080591 187.792397,15.8080591 C186.71681,15.8080591 185.757468,15.5813466 184.918204,15.1266826 C184.076385,14.6744964 183.423623,14.0401968 182.956088,13.2250227 C182.488552,12.4098486 182.254785,11.4745045 182.254785,10.4177514 C182.254785,9.34860972 182.488552,8.40459352 182.956088,7.58570283 C183.423623,6.76681215 184.076385,6.13003482 184.918204,5.67413198 C185.757468,5.21699028 186.71681,4.98903887 187.792397,4.98903887 C188.767068,4.98903887 189.639546,5.1389417 190.40983,5.43874737" id="Fill-24" fill="#FFFFFF" mask="url(#mask-4)"></path>
                    <polygon id="Fill-25" fill="#FFFFFF" mask="url(#mask-4)" points="195.03511 15.7288955 197.414942 15.7288955 197.414942 0.861259919 195.03511 0.861259919"></polygon>
                </g>
            </g>
        </g>
    </g>
</svg>