<?xml version="1.0" encoding="UTF-8" standalone="no"?>
<svg width="101px" height="40px" viewBox="0 0 101 40" version="1.1" xmlns="http://www.w3.org/2000/svg" xmlns:xlink="http://www.w3.org/1999/xlink">
    <!-- Generator: Sketch 3.8.2 (29753) - http://www.bohemiancoding.com/sketch -->
    <title>Group 6</title>
    <desc>Created with Sketch.</desc>
    <defs>
        <polygon id="path-1" points="0 38.3356278 99.6830815 38.3356278 99.6830815 0.000302400611 0 0.000302400611"></polygon>
    </defs>
    <g id="Page-1" stroke="none" stroke-width="1" fill="none" fill-rule="evenodd">
        <g id="Group-6" transform="translate(0.488515, 0.808006)">
            <path d="M4.1732617,10.6553879 L6.94103618,10.6553879 C7.86462078,10.6553879 8.57369541,10.4255635 9.06974972,9.96440252 C9.56431437,9.5047536 9.81308635,8.83644825 9.81308635,7.96251048 C9.81308635,7.10369275 9.56282472,6.45353143 9.06230145,6.01353855 C8.56475749,5.57052165 7.85568287,5.35128121 6.94103618,5.35128121 L4.1732617,5.35128121 L4.1732617,10.6553879 L4.1732617,10.6553879 Z M12.0192618,3.52780552 C13.1782115,4.53479956 13.7561967,5.96515445 13.7561967,7.8234062 C13.7561967,9.77237814 13.1782115,11.2874052 12.0192618,12.3669754 C10.8588225,13.4465456 9.23510115,13.9863306 7.14660824,13.9863306 L4.1732617,13.9863306 L4.1732617,18.6644681 L0.000744826289,18.6644681 L0.000744826289,2.01882648 L7.14660824,2.01882648 C9.23510115,2.01882648 10.8588225,2.52232349 12.0192618,3.52780552 L12.0192618,3.52780552 Z" id="Fill-1" fill="#FFFFFF"></path>
            <path d="M22.1794372,15.5882979 C22.6635743,15.2632172 22.9644841,14.8368324 23.0866356,14.3121673 L23.0866356,13.173629 L20.5378401,13.173629 C19.9285722,13.173629 19.4697592,13.2840052 19.1643804,13.5047577 C18.8604913,13.7255101 18.7085467,14.0762948 18.7085467,14.5555998 C18.7085467,15.0273447 18.8634706,15.3992975 19.1762976,15.669946 C19.487635,15.9405946 19.9285722,16.0766749 20.4916609,16.0766749 C21.1322115,16.0766749 21.6938105,15.9133785 22.1794372,15.5882979 M25.6026588,6.88823231 C26.5634848,7.70471396 27.0520908,8.84022825 27.0654977,10.2962872 L27.0654977,18.6637121 L23.1104701,18.6637121 L23.1104701,17.1895091 C22.7052846,17.7323182 22.1764579,18.143583 21.5210108,18.4263276 C20.864074,18.7090722 20.1073305,18.8496885 19.2448216,18.8496885 C17.9175412,18.8496885 16.8643568,18.4777357 16.0837789,17.7353422 C15.3017113,16.9929487 14.9114223,16.0252668 14.9114223,14.8338084 C14.9114223,13.6121099 15.328525,12.662572 16.1627305,11.9912426 C16.9984256,11.3168893 18.1961062,10.9721526 19.7587518,10.9570325 L23.0866356,10.9570325 L23.0866356,10.7710562 C23.0866356,10.1375269 22.8810636,9.64158987 22.4684298,9.28626915 C22.0587754,8.92943643 21.4450385,8.75102007 20.6272192,8.75102007 C20.0954133,8.75102007 19.4980626,8.84325226 18.8336775,9.02469263 C18.1707821,9.20613299 17.510866,9.47224553 16.8554189,9.82000623 L15.7113657,7.11503277 C16.7422053,6.62816779 17.7209071,6.26377505 18.6504503,6.02336656 C19.5814831,5.78447008 20.5542263,5.66350984 21.5657004,5.66350984 C23.2981663,5.66350984 24.6433226,6.07326267 25.6026588,6.88823231" id="Fill-3" fill="#FFFFFF"></path>
            <path d="M35.6904371,6.29144471 C36.3831256,5.88773989 37.1845587,5.68059547 38.0917571,5.66396344 L38.0917571,9.36685892 C37.9696056,9.35173889 37.783399,9.34417887 37.5316477,9.34417887 C36.5335805,9.34417887 35.7157612,9.58912337 35.0841485,10.0805244 C34.4510462,10.5719254 34.0905503,11.2402307 33.9981918,12.0839284 L33.9981918,18.6641657 L29.9373989,18.6641657 L29.9373989,5.84993981 L33.9981918,5.84993981 L33.9981918,8.00908018 C34.4331704,7.26517467 34.996259,6.69363752 35.6904371,6.29144471" id="Fill-5" fill="#FFFFFF"></path>
            <path d="M48.1059465,18.6124552 C47.5130648,18.7697035 46.9112452,18.8498397 46.298998,18.8498397 C45.0491795,18.8498397 44.039195,18.499055 43.2705343,17.7929495 C42.4988942,17.0898681 42.1145639,16.0874101 42.1145639,14.7885995 L42.1145639,9.13522005 L40.3552842,9.13522005 L40.3552842,6.44234261 L42.1145639,6.44234261 L42.1145639,2.87855141 L46.1396051,2.87855141 L46.1396051,6.41815056 L49.4451442,6.41815056 L49.4451442,9.13522005 L46.1396051,9.13522005 L46.1396051,14.1490222 C46.1396051,15.0849521 46.5120183,15.553673 47.2613135,15.553673 C47.6962921,15.553673 48.2340567,15.4115447 48.8731176,15.1242641 L49.6745507,17.9789259 C49.2246756,18.2420144 48.7018076,18.4536949 48.1059465,18.6124552" id="Fill-7" fill="#FFFFFF"></path>
            <mask id="mask-2" fill="white">
                <use xlink:href="#path-1"></use>
            </mask>
            <g id="Clip-10"></g>
            <path d="M52.0261163,18.6644681 L56.0630748,18.6644681 L56.0630748,5.85024222 L52.0261163,5.85024222 L52.0261163,18.6644681 Z M55.5997928,0.608127628 C56.0005093,1.01485645 56.2016124,1.5364975 56.2016124,2.17002678 C56.2016124,2.80506807 56.0005093,3.32670912 55.5997928,3.73797395 C55.1990763,4.14772678 54.6881254,4.35184719 54.0624713,4.35184719 C53.4368173,4.35184719 52.9273561,4.14772678 52.5296188,3.73797395 C52.1333713,3.32670912 51.9367371,2.80506807 51.9367371,2.17002678 C51.9367371,1.5364975 52.1333713,1.01485645 52.5296188,0.608127628 C52.9273561,0.20291081 53.4368173,0.000302400611 54.0624713,0.000302400611 C54.6881254,0.000302400611 55.1990763,0.20291081 55.5997928,0.608127628 L55.5997928,0.608127628 Z" id="Fill-9" fill="#FFFFFF" mask="url(#mask-2)"></path>
            <path d="M67.1426637,14.7173841 C67.6565939,14.0989749 67.9143038,13.2900532 67.9143038,12.2921312 C67.9143038,11.3093292 67.6565939,10.5079676 67.1426637,9.88955837 C66.6287336,9.26963712 65.9479624,8.9611885 65.10035,8.9611885 C64.2542274,8.9611885 63.5764355,9.26661311 63.063995,9.87746235 C62.5545338,10.4883116 62.2908653,11.2942092 62.2774584,12.2921312 C62.2908653,13.2900532 62.5575131,14.0989749 63.0714432,14.7173841 C63.5853734,15.3373054 64.2616756,15.645754 65.10035,15.645754 C65.9479624,15.645754 66.6287336,15.3373054 67.1426637,14.7173841 L67.1426637,14.7173841 Z M71.9616898,18.6637121 L67.9143038,18.6637121 L67.9143038,16.9808527 C66.9922088,18.2191832 65.7260041,18.8345684 64.118669,18.8270084 C62.9433331,18.8270084 61.9139832,18.5503119 61.0246606,17.9969187 C60.1368277,17.4435256 59.4471185,16.6678681 58.9540435,15.669946 C58.4624582,14.672024 58.2166655,13.5153417 58.2166655,12.198387 C58.2166655,10.8980644 58.4579892,9.75801411 58.9421263,8.77521212 C59.4262634,7.79241014 60.1070346,7.0318726 60.98444,6.49359951 C61.8603557,5.95683843 62.8748091,5.68770189 64.0248209,5.68770189 C64.8575367,5.68770189 65.6008733,5.84646221 66.2563204,6.16398285 C66.9117676,6.47999149 67.4644287,6.94115242 67.9143038,7.54444164 L67.9143038,1.02166046 L71.9616898,1.02166046 L71.9616898,18.6637121 Z" id="Fill-11" fill="#FFFFFF" mask="url(#mask-2)"></path>
            <path d="M78.842544,9.88910477 C78.319676,10.509026 78.0604764,11.3088756 78.0604764,12.2916776 C78.0604764,13.2911116 78.319676,14.0939853 78.842544,14.7048345 C79.3639224,15.3171957 80.0446937,15.6241324 80.8833681,15.6241324 C81.7145942,15.6241324 82.3908965,15.3171957 82.9137645,14.7048345 C83.4351429,14.0939853 83.6973218,13.2911116 83.6973218,12.2916776 C83.6973218,11.3088756 83.4351429,10.509026 82.9137645,9.88910477 C82.3908965,9.26918352 81.7145942,8.9607349 80.8833681,8.9607349 C80.0446937,8.9607349 79.3639224,9.26918352 78.842544,9.88910477 M84.4913066,6.51733796 C85.540022,7.05561105 86.3489034,7.81917259 86.916461,8.80953459 C87.482529,9.79989659 87.7685423,10.9459949 87.7685423,12.2463175 C87.7685423,13.5451282 87.482529,14.6897145 86.916461,15.6815885 C86.3489034,16.6719505 85.540022,17.440048 84.4913066,17.9843691 C83.4440808,18.5302022 82.2404416,18.8038748 80.8833681,18.8038748 C79.511398,18.8038748 78.3077588,18.5302022 77.2694709,17.9843691 C76.2326727,17.440048 75.4237914,16.6719505 74.8458062,15.6815885 C74.2663313,14.6897145 73.9773387,13.5451282 73.9773387,12.2463175 C73.9773387,10.9459949 74.2663313,9.79989659 74.8458062,8.80953459 C75.4237914,7.81917259 76.2326727,7.05561105 77.2694709,6.51733796 C78.3077588,5.98057688 79.511398,5.71144033 80.8833681,5.71144033 C82.2404416,5.71144033 83.4440808,5.98057688 84.4913066,6.51733796" id="Fill-12" fill="#FFFFFF" mask="url(#mask-2)"></path>
            <path d="M97.1567797,6.041057 C98.0490816,6.29204951 98.8847767,6.65039423 99.6608857,7.11457917 L98.2769985,9.77268054 C96.7143529,8.9138628 95.3870725,8.48445394 94.2996261,8.48445394 C93.9242336,8.48445394 93.6248135,8.56005409 93.3998759,8.71125439 C93.176428,8.8624547 93.0617248,9.08018314 93.0617248,9.36746372 C93.0617248,9.66835233 93.2330348,9.91027281 93.5756549,10.0917132 C93.9212543,10.2746656 94.4813637,10.477274 95.2574727,10.7010504 C96.1497746,10.9580909 96.8931112,11.2151315 97.4874826,11.473684 C98.0833436,11.7337485 98.5972738,12.1268693 99.0322523,12.6575824 C99.4657412,13.1867834 99.6832305,13.8747448 99.6832305,14.7169305 C99.6832305,16.0021331 99.1931348,17.0076151 98.2084744,17.7348886 C97.2267934,18.4636741 95.9456922,18.8265548 94.3666604,18.8265548 C93.3075175,18.8265548 92.2841261,18.6708185 91.3024451,18.3623699 C90.3177847,18.0524093 89.4537862,17.6078804 88.7059806,17.0272712 L89.9870819,14.4039459 C90.6887082,14.9150029 91.4335345,15.3096357 92.2215607,15.5878443 C93.0110766,15.8660528 93.7588822,16.0051571 94.4709361,16.0051571 C94.8895285,16.0051571 95.2232107,15.929557 95.470493,15.7798687 C95.719265,15.6286684 95.8414165,15.4109399 95.8414165,15.1236593 C95.8414165,14.7910187 95.6626582,14.5309541 95.3036519,14.3404418 C94.9446456,14.1514414 94.3845363,13.944297 93.6233238,13.7190085 C92.7474081,13.464992 92.0204576,13.2064395 91.4454517,12.9478869 C90.8689562,12.6893344 90.3729019,12.3022616 89.9587785,11.7866686 C89.5416757,11.2725876 89.3361037,10.5936982 89.3361037,9.75000049 C89.3361037,8.4663099 89.8113029,7.46385187 90.7646805,6.74413842 C91.7165685,6.02291296 92.9514905,5.66305624 94.4709361,5.66305624 C95.3691966,5.66305624 96.2644778,5.79006449 97.1567797,6.041057" id="Fill-13" fill="#FFFFFF" mask="url(#mask-2)"></path>
            <path d="M3.36303966,31.7434457 L5.59304957,31.7434457 C6.33787586,31.7434457 6.90841279,31.5574693 7.30912934,31.1870286 C7.70835623,30.8165878 7.90796967,30.2783148 7.90796967,29.5737213 C7.90796967,28.8812239 7.70537692,28.3580709 7.30317073,28.0027502 C6.90096453,27.6459174 6.33042759,27.4690131 5.59304957,27.4690131 L3.36303966,27.4690131 L3.36303966,31.7434457 Z M9.68661485,25.9993461 C10.6191374,26.8112917 11.0853986,27.9649501 11.0853986,29.4603211 C11.0853986,31.0328043 10.6191374,32.2529907 9.68661485,33.1223925 C8.75111303,33.9933063 7.44319807,34.4272511 5.75989066,34.4272511 L3.36303966,34.4272511 L3.36303966,38.1966747 L-0.000595861031,38.1966747 L-0.000595861031,24.7836957 L5.75989066,24.7836957 C7.44319807,24.7836957 8.75111303,25.1889125 9.68661485,25.9993461 L9.68661485,25.9993461 Z" id="Fill-14" fill="#FFFFFF" mask="url(#mask-2)"></path>
            <path d="M18.5232339,26.7018227 L16.0340245,26.7018227 L18.0346279,23.4842802 L20.9826503,24.5411704 L18.5232339,26.7018227 Z M22.7240542,38.1975819 L19.4527771,38.1975819 L19.4527771,36.4950665 C18.758599,37.724325 17.6592354,38.3351742 16.1546863,38.3276142 C15.0478745,38.3276142 14.1660002,37.9707815 13.5045944,37.258628 C12.8446783,36.5434506 12.5139754,35.5848407 12.5139754,34.3812862 L12.5139754,27.8706011 L15.7763146,27.8706011 L15.7763146,33.4453563 C15.7763146,34.0562056 15.9297488,34.5385346 16.2366172,34.8908313 C16.5449753,35.243128 16.9561194,35.4200323 17.4730289,35.4200323 C18.0867657,35.4079363 18.5694132,35.1750878 18.9224608,34.7229989 C19.2769981,34.27091 19.4527771,33.6857648 19.4527771,32.9690754 L19.4527771,27.8706011 L22.7240542,27.8706011 L22.7240542,38.1975819 Z" id="Fill-15" fill="#FFFFFF" mask="url(#mask-2)"></path>
            <path d="M32.5728922,34.9325626 C32.9929743,34.4275535 33.2030153,33.7789042 33.2030153,32.9866146 C33.2030153,32.195837 32.9929743,31.5502117 32.5728922,31.0512507 C32.1513205,30.5522897 31.6031284,30.3028092 30.9268261,30.3028092 C30.2758479,30.3028092 29.7380834,30.5522897 29.315022,31.0512507 C28.8904711,31.5502117 28.68043,32.195837 28.68043,32.9866146 C28.68043,33.7925122 28.8874917,34.4441856 29.3016152,34.9416346 C29.7157386,35.4405956 30.2579721,35.6900761 30.9268261,35.6900761 C31.6031284,35.6900761 32.1513205,35.4390836 32.5728922,34.9325626 M34.2174687,28.4173414 C34.9429295,28.8573343 35.5030388,29.4802795 35.8992864,30.2831532 C36.295534,31.0890508 36.4936578,32.0204447 36.4936578,33.0803588 C36.4936578,34.1160809 36.2985133,35.0308427 35.9082243,35.8216203 C35.5179354,36.6139099 34.9697432,37.2262712 34.2636479,37.6587041 C33.5560629,38.0926489 32.7337747,38.3103774 31.7952936,38.3103774 C31.1428257,38.3103774 30.5514337,38.1818571 30.0196277,37.9263286 C29.4878217,37.6708001 29.0424156,37.3018713 28.68043,36.8225664 L28.68043,38.1969771 L25.4180909,38.1969771 L25.4180909,23.9796124 L28.68043,23.9796124 L28.68043,29.236847 C29.0424156,28.7620781 29.4803735,28.3976854 29.9972829,28.1421568 C30.5127027,27.8866283 31.0877086,27.7581081 31.7193213,27.7581081 C32.6607817,27.7581081 33.4934975,27.9788605 34.2174687,28.4173414" id="Fill-16" fill="#FFFFFF" mask="url(#mask-2)"></path>
            <polygon id="Fill-17" fill="#FFFFFF" mask="url(#mask-2)" points="38.3376987 38.1965235 41.6000379 38.1965235 41.6000379 23.9791588 38.3376987 23.9791588"></polygon>
            <path d="M44.2903504,38.1980355 L47.5437517,38.1980355 L47.5437517,27.8710547 L44.2903504,27.8710547 L44.2903504,38.1980355 Z M47.1698489,23.6465182 C47.4916138,23.9746228 47.653986,24.3949597 47.653986,24.9060167 C47.653986,25.4170737 47.4916138,25.8374106 47.1698489,26.1685393 C46.8465943,26.4996679 46.4339605,26.6644763 45.9304579,26.6644763 C45.4269553,26.6644763 45.0158112,26.4996679 44.6940463,26.1685393 C44.3752606,25.8374106 44.2173575,25.4170737 44.2173575,24.9060167 C44.2173575,24.3949597 44.3752606,23.9746228 44.6940463,23.6465182 C45.0158112,23.3199255 45.4269553,23.1566292 45.9304579,23.1566292 C46.4339605,23.1566292 46.8465943,23.3199255 47.1698489,23.6465182 L47.1698489,23.6465182 Z" id="Fill-18" fill="#FFFFFF" mask="url(#mask-2)"></path>
            <path d="M57.2737154,28.3621533 C58.0587623,28.7643461 58.6754785,29.3373953 59.1179053,30.0782767 L56.7776611,31.5101436 C56.2726689,30.7919422 55.5889183,30.4381335 54.7204509,30.4426695 C54.0947968,30.4426695 53.583846,30.681566 53.1861087,31.1593589 C52.7913508,31.6356399 52.593227,32.2646332 52.593227,33.0433147 C52.593227,33.8356043 52.7853922,34.4706456 53.1727019,34.9514626 C53.5600115,35.4322796 54.076921,35.672688 54.7204509,35.672688 C55.6797871,35.672688 56.3709859,35.2825913 56.7940473,34.5023977 L59.1715328,35.9146085 C58.7544301,36.6827061 58.1466518,37.2723873 57.352667,37.6881881 C56.5571925,38.102477 55.6216907,38.3096214 54.5476512,38.3096214 C53.5153219,38.3096214 52.6021649,38.0888689 51.8141387,37.650388 C51.0231332,37.2103952 50.4079067,36.5950099 49.9654799,35.8027203 C49.523053,35.0119427 49.3025845,34.0971809 49.3025845,33.0614588 C49.3025845,32.0151527 49.523053,31.0882948 49.9654799,30.2839092 C50.4079067,29.4795235 51.0290918,28.8580903 51.8275456,28.4180974 C52.6259994,27.9781045 53.5480943,27.7588641 54.5923408,27.7588641 C55.5933873,27.7588641 56.4886685,27.9599605 57.2737154,28.3621533" id="Fill-19" fill="#FFFFFF" mask="url(#mask-2)"></path>
            <path d="M63.5371086,31.1259437 C63.1155369,31.6249047 62.9069856,32.27053 62.9069856,33.0613076 C62.9069856,33.8672052 63.1155369,34.5143425 63.5371086,35.0072555 C63.9571907,35.5001685 64.5053828,35.746625 65.1816851,35.746625 C65.8520287,35.746625 66.3957519,35.5001685 66.8188133,35.0072555 C67.2374056,34.5143425 67.4489363,33.8672052 67.4489363,33.0613076 C67.4489363,32.27053 67.2374056,31.6249047 66.8188133,31.1259437 C66.3957519,30.6269827 65.8520287,30.3775022 65.1816851,30.3775022 C64.5053828,30.3775022 63.9571907,30.6269827 63.5371086,31.1259437 M68.0894869,28.4088742 C68.9341199,28.8428191 69.5865877,29.4582043 70.0424214,30.2565419 C70.4997448,31.0533675 70.7306409,31.9772014 70.7306409,33.0250195 C70.7306409,34.0728376 70.4997448,34.9951595 70.0424214,35.7934971 C69.5865877,36.5918347 68.9341199,37.210244 68.0894869,37.6502368 C67.2448539,38.0902297 66.2750901,38.3094702 65.1816851,38.3094702 C64.0763629,38.3094702 63.106599,38.0902297 62.2694143,37.6502368 C61.4337192,37.210244 60.782741,36.5918347 60.3164798,35.7934971 C59.8487288,34.9951595 59.616343,34.0728376 59.616343,33.0250195 C59.616343,31.9772014 59.8487288,31.0533675 60.3164798,30.2565419 C60.782741,29.4582043 61.4337192,28.8428191 62.2694143,28.4088742 C63.106599,27.9764413 64.0763629,27.7587129 65.1816851,27.7587129 C66.2750901,27.7587129 67.2448539,27.9764413 68.0894869,28.4088742" id="Fill-20" fill="#FFFFFF" mask="url(#mask-2)"></path>
            <path d="M78.2958415,28.0249766 C79.0138541,28.227585 79.6886667,28.5163776 80.3128311,28.8913543 L79.198571,31.0323507 C77.9398146,30.3398533 76.870244,29.9936046 75.9928387,29.9936046 C75.6904392,29.9936046 75.4491155,30.0540847 75.2688675,30.1765569 C75.0871299,30.2975172 74.9962611,30.4744215 74.9962611,30.705758 C74.9962611,30.9476785 75.1347988,31.1427269 75.4103845,31.2893912 C75.6889495,31.4360555 76.1403143,31.5993518 76.7659683,31.7807922 C77.4839809,31.9864246 78.0828212,32.195081 78.5624894,32.4022254 C79.0421575,32.6123939 79.4562809,32.9299145 79.8078389,33.3562994 C80.1564176,33.7841962 80.3321966,34.3375893 80.3321966,35.0164787 C80.3321966,36.0522008 79.935949,36.8626344 79.1434539,37.4492916 C78.3524483,38.0359488 77.3201191,38.3277654 76.0464661,38.3277654 C75.1943849,38.3277654 74.3691173,38.2037812 73.5781118,37.9543007 C72.784127,37.7048201 72.0884592,37.3464754 71.48515,36.8792665 L72.5174792,34.7654862 C73.0835472,35.176751 73.6838772,35.4942717 74.3184692,35.7180481 C74.9545508,35.9433366 75.5578601,36.0552248 76.1313763,36.0552248 C76.4680378,36.0552248 76.7376649,35.9947447 76.9372784,35.8737845 C77.1368918,35.7513122 77.2352089,35.5759198 77.2352089,35.3445834 C77.2352089,35.0769588 77.0922023,34.8667904 76.8032097,34.7125661 C76.5142171,34.5598538 76.0613627,34.3935335 75.4476258,34.2120931 C74.7430201,34.0079727 74.156097,33.7993163 73.6928151,33.5906598 C73.2280435,33.3820034 72.8288166,33.0705308 72.4951344,32.656242 C72.1599626,32.2404411 71.9931215,31.693096 71.9931215,31.0142066 C71.9931215,29.9784845 72.3759622,29.1710749 73.1446229,28.5919777 C73.911794,28.0113686 74.9068819,27.721064 76.1313763,27.721064 C76.8553475,27.721064 77.577829,27.8223682 78.2958415,28.0249766" id="Fill-21" fill="#FFFFFF" mask="url(#mask-2)"></path>
            <path d="M83.9986785,36.1699858 C84.2221264,36.4073703 84.33534,36.7022109 84.33534,37.0575316 C84.33534,37.4234364 84.2221264,37.728861 83.9986785,37.9722935 C83.7752306,38.214214 83.4921966,38.3351742 83.1480869,38.3351742 C82.8114254,38.3351742 82.5283914,38.215726 82.3019642,37.9768295 C82.075537,37.736421 81.9623234,37.4294844 81.9623234,37.0575316 C81.9623234,36.7022109 82.075537,36.4073703 82.3019642,36.1699858 C82.5283914,35.9341134 82.8114254,35.8161771 83.1480869,35.8161771 C83.4921966,35.8161771 83.7752306,35.9341134 83.9986785,36.1699858" id="Fill-22" fill="#FFFFFF" mask="url(#mask-2)"></path>
            <path d="M93.2958982,28.3480917 C93.9975245,28.6338602 94.5814683,29.0451251 95.0477296,29.5803741 L93.8604765,30.998633 C93.1320364,30.2335595 92.2024932,29.8510227 91.0748262,29.8510227 C90.1855036,29.8510227 89.4540842,30.1519113 88.8820576,30.7521765 C88.3085413,31.3524417 88.0210384,32.1341473 88.0210384,33.0988052 C88.0210384,34.0574152 88.3010931,34.8391208 88.8582231,35.44241 C89.4168429,36.0456992 90.1303864,36.3480998 91.0018332,36.3480998 C92.2829344,36.3480998 93.2661051,35.939859 93.9543246,35.1248893 L95.1579639,36.3480998 C94.7036199,36.957437 94.1181864,37.426158 93.3971945,37.7527506 C92.6762027,38.0793433 91.8479559,38.2426396 90.9094747,38.2426396 C89.9277937,38.2426396 89.0548573,38.0264232 88.2876862,37.5939903 C87.5220048,37.1615575 86.9261437,36.5567562 86.5001031,35.7780747 C86.0725728,35.0009051 85.8610422,34.1073113 85.8610422,33.0988052 C85.8610422,32.0782032 86.0725728,31.1785614 86.5001031,30.3968558 C86.9261437,29.6166622 87.5220048,29.007325 88.2876862,28.5718681 C89.0548573,28.1364112 89.9277937,27.9186828 90.9094747,27.9186828 C91.7973077,27.9186828 92.5942718,28.0623231 93.2958982,28.3480917" id="Fill-23" fill="#FFFFFF" mask="url(#mask-2)"></path>
            <polygon id="Fill-24" fill="#FFFFFF" mask="url(#mask-2)" points="97.5126577 38.1677955 99.6830815 38.1677955 99.6830815 23.9791588 97.5126577 23.9791588"></polygon>
        </g>
    </g>
</svg>