<?xml version="1.0" encoding="UTF-8"?>
<svg width="315px" height="307px" viewBox="0 0 315 307" version="1.1" xmlns="http://www.w3.org/2000/svg" xmlns:xlink="http://www.w3.org/1999/xlink">
    <!-- Generator: Sketch 42 (36781) - http://www.bohemiancoding.com/sketch -->
    <title>Group</title>
    <desc>Created with Sketch.</desc>
    <defs>
        <polygon id="path-1" points="0.000520440673 297.842993 334.815098 297.842993 334.815098 0.00130110168 0.000520440673 0.00130110168"></polygon>
        <polygon id="path-3" points="11.5303631 0.134382999 0.546462706 0.134382999 0.546462706 297.976855 11.5303631 297.976855 11.5303631 0.134382999"></polygon>
        <polygon id="path-5" points="0 298.415963 334.815098 298.415963 334.815098 0.572970529 0 0.572970529"></polygon>
    </defs>
    <g id="Page-1" stroke="none" stroke-width="1" fill="none" fill-rule="evenodd">
        <g id="Paso-1-Copy-26" transform="translate(-965.000000, -296.000000)">
            <g id="Group" transform="translate(965.284167, 296.000000)">
                <g id="Page-1" transform="translate(7.532216, 0.596368)">
                    <mask id="mask-2" fill="white">
                        <use xlink:href="#path-1"></use>
                    </mask>
                    <g id="Clip-2"></g>
                    <path d="M252.986731,190.940575 C239.252302,178.038851 212.441801,156.123094 203.443382,142.739962 C197.791396,134.332243 192.199261,107.883448 192.199261,107.883448 C181.803458,107.883448 173.265629,117.623495 173.265629,127.197001 C173.265629,134.873501 173.835512,140.546305 179.617608,151.459946 C183.684851,159.136446 190.226791,163.61744 190.226791,172.03817 C190.226791,177.773426 188.256923,182.86854 179.518724,182.86854 L176.276378,182.86854 L173.864136,182.86854 L172.86489,182.86854 L172.86489,0.00130110168 L161.883592,0.00130110168 L80.942056,0.00130110168 L0.000520440673,0.00130110168 L0.000520440673,57.4579514 L0.000520440673,114.917204 L80.942056,114.917204 L161.883592,114.917204 L161.883592,182.86854 L138.690153,182.86854 C131.416995,182.86854 125.523004,188.765133 125.523004,196.035689 C125.523004,201.201063 128.523345,205.624809 132.850809,207.782035 C134.779041,209.486478 137.191284,210.613232 139.874156,210.954121 C135.637769,213.095734 132.796162,216.983426 132.796162,221.438398 C132.796162,225.843929 135.575316,229.69519 139.736239,231.849814 C140.826562,232.799618 142.096437,233.601097 143.504229,234.215217 C138.471568,235.688064 134.771235,240.286157 134.771235,245.797624 C134.771235,250.601292 137.589421,254.715375 141.641052,256.677436 C143.012413,257.916085 144.659608,258.829459 146.488957,259.342093 C142.955164,261.267723 140.527309,264.970659 140.527309,269.279907 C140.527309,273.820752 143.21018,277.708444 147.058839,279.527384 C149.083353,281.393164 151.763623,282.558951 154.735339,282.558951 L161.883592,282.558951 L161.883592,297.844294 L172.86489,297.844294 L172.86489,282.558951 L185.69115,282.558951 C188.027929,282.558951 190.198166,281.851152 192.004096,280.638525 L207.781255,280.638525 C236.850468,280.638525 249.668922,259.979632 249.668922,259.979632 L334.815618,259.979632 L334.815618,221.438398 L334.815618,190.940575 L252.986731,190.940575 Z" id="Fill-1" fill="#EF5630" mask="url(#mask-2)"></path>
                </g>
                <g id="Page-1" transform="translate(0.000000, 8.128584)">
                    <path d="M334.814838,260.553644 L249.668141,260.553644 C249.668141,260.553644 236.849688,281.212536 207.780474,281.212536 L171.159666,281.212536 L171.159666,217.401306 L334.814838,191.514586 L334.814838,260.553644 Z" id="Fill-1" fill="#F9BAA9"></path>
                    <path d="M334.814838,191.513546 L252.985951,191.513546 C239.254124,178.611821 212.443622,156.696065 203.442601,143.31033 C197.790615,134.905214 192.19848,108.456419 192.19848,108.456419 C181.80528,108.456419 173.267451,118.196466 173.267451,127.769972 C173.267451,135.446472 173.837333,141.119275 179.619429,152.032916 C183.686673,159.709416 190.22601,164.19041 190.22601,172.61114 C190.22601,178.346397 188.256142,183.441511 179.520545,183.441511 L173.863355,183.441511 L173.863355,222.011369 L334.814838,222.011369" id="Fill-3" fill="#F9BAA9"></path>
                    <path d="M135.643754,223.931275 C135.643754,217.173353 142.162273,211.695714 150.203081,211.695714 L184.770751,211.695714 C192.811559,211.695714 199.327477,217.173353 199.327477,223.931275 C199.327477,230.689197 192.811559,236.166835 184.770751,236.166835 L150.203081,236.166835 C142.162273,236.166835 135.643754,230.689197 135.643754,223.931275" id="Fill-5" fill="#FFFFFF"></path>
                    <path d="M149.745094,260.413645 C143.049624,260.413645 137.621428,254.985449 137.621428,248.28998 C137.621428,241.594511 143.049624,236.166314 149.745094,236.166314 L185.689329,236.166314 L185.689329,236.2678 C186.027615,236.239176 186.352891,236.166314 186.696381,236.166314 C193.391851,236.166314 198.820047,241.594511 198.820047,248.28998 C198.820047,254.985449 193.391851,260.413645 186.696381,260.413645 C186.352891,260.413645 186.027615,260.340784 185.689329,260.312159 L185.689329,260.413645 L149.745094,260.413645 Z" id="Fill-7" fill="#FFFFFF"></path>
                    <path d="M143.375941,271.773044 C143.375941,265.499131 148.460646,260.414426 154.734558,260.414426 L185.69037,260.414426 C191.964282,260.414426 197.051589,265.499131 197.051589,271.773044 C197.051589,278.046956 191.964282,283.131661 185.69037,283.131661 L154.734558,283.131661 C148.460646,283.131661 143.375941,278.046956 143.375941,271.773044" id="Fill-9" fill="#FFFFFF"></path>
                    <path d="M179.12449,185.360896 C186.397648,185.360896 192.291639,191.257489 192.291639,198.528045 C192.291639,205.801203 187.787225,211.695194 179.12449,211.695194 L172.233856,211.695194 L141.538265,211.695194 C134.265106,211.695194 128.371116,205.801203 128.371116,198.528045 C128.371116,191.257489 134.265106,185.360896 141.538265,185.360896 L176.712248,185.360896 L179.12449,185.360896 Z" id="Fill-11" fill="#FFFFFF"></path>
                    <g id="Group-15" transform="translate(161.336609, 0.438588)">
                        <mask id="mask-4" fill="white">
                            <use xlink:href="#path-3"></use>
                        </mask>
                        <g id="Clip-14"></g>
                        <polygon id="Fill-13" fill="#062739" mask="url(#mask-4)" points="0.546462706 0.133862559 11.5303631 0.133862559 11.5303631 297.976855 0.546462706 297.976855"></polygon>
                    </g>
                    <polygon id="Fill-16" fill="#FFFFFF" points="0 115.489394 161.883071 115.489394 161.883071 0.57349097 0 0.57349097"></polygon>
                    <mask id="mask-6" fill="white">
                        <use xlink:href="#path-5"></use>
                    </mask>
                    <g id="Clip-19"></g>
                    <polygon id="Fill-18" fill="#06B9BF" mask="url(#mask-6)" points="80.9415356 58.032223 161.883071 58.032223 161.883071 0.572970529 80.9415356 0.572970529"></polygon>
                    <polygon id="Fill-20" fill="#06B9BF" mask="url(#mask-6)" points="0 115.489394 80.9415356 115.489394 80.9415356 58.0301412 0 58.0301412"></polygon>
                    <path d="M132.795642,222.011369 C132.795642,215.253447 139.314161,209.775809 147.35497,209.775809 L181.922639,209.775809 C189.963448,209.775809 196.479365,215.253447 196.479365,222.011369 C196.479365,228.769291 189.963448,234.246929 181.922639,234.246929 L147.35497,234.246929 C139.314161,234.246929 132.795642,228.769291 132.795642,222.011369" id="Fill-21" fill="#F9BAA9" mask="url(#mask-6)"></path>
                    <path d="M146.896982,258.49374 C140.201513,258.49374 134.773317,253.065544 134.773317,246.370074 C134.773317,239.674605 140.201513,234.246409 146.896982,234.246409 L182.841217,234.246409 L182.841217,234.347895 C183.179504,234.31927 183.504779,234.246409 183.84827,234.246409 C190.543739,234.246409 195.971935,239.674605 195.971935,246.370074 C195.971935,253.065544 190.543739,258.49374 183.84827,258.49374 C183.504779,258.49374 183.179504,258.420878 182.841217,258.392254 L182.841217,258.49374 L146.896982,258.49374 Z" id="Fill-22" fill="#F9BAA9" mask="url(#mask-6)"></path>
                    <path d="M140.527829,269.853138 C140.527829,263.579226 145.612534,258.49452 151.886447,258.49452 L182.842258,258.49452 C189.11617,258.49452 194.203478,263.579226 194.203478,269.853138 C194.203478,276.12705 189.11617,281.211756 182.842258,281.211756 L151.886447,281.211756 C145.612534,281.211756 140.527829,276.12705 140.527829,269.853138" id="Fill-23" fill="#F9BAA9" mask="url(#mask-6)"></path>
                    <path d="M176.276118,183.44099 C183.549277,183.44099 189.443267,189.337583 189.443267,196.608139 C189.443267,203.881298 184.938853,209.775288 176.276118,209.775288 L169.385484,209.775288 L138.689893,209.775288 C131.416734,209.775288 125.522744,203.881298 125.522744,196.608139 C125.522744,189.337583 131.416734,183.44099 138.689893,183.44099 L173.863876,183.44099 L176.276118,183.44099 Z" id="Fill-24" fill="#F9BAA9" mask="url(#mask-6)"></path>
                </g>
            </g>
        </g>
    </g>
</svg>