<?xml version="1.0" encoding="UTF-8" standalone="no"?>
<svg width="211px" height="380px" viewBox="0 0 211 380" version="1.1" xmlns="http://www.w3.org/2000/svg" xmlns:xlink="http://www.w3.org/1999/xlink">
    <!-- Generator: Sketch 41.2 (35397) - http://www.bohemiancoding.com/sketch -->
    <title>Page 1</title>
    <desc>Created with Sketch.</desc>
    <defs>
        <polygon id="path-1" points="0 379.834711 226.66163 379.834711 226.66163 0.370338843 0 0.370338843"></polygon>
        <path d="M42.1020137,14.703 C36.5453562,11.398438 28.6249041,0.671272727 28.6249041,0.671272727 C28.6249041,0.671272727 12.1416301,4.50127273 1.05679452,14.703 C1.0599589,14.7156612 8.41082192,29.7729421 1.99978082,56.9184628 L0.784657534,121.670785 L80.9827945,121.670785 L80.7106575,37.4962479 C59.8288904,24.9522066 72.258589,6.18520661 72.258589,6.18204132 C62.1895205,2.81417355 54.7342329,0.671272727 54.7342329,0.671272727 C51.4337808,9.25553719 42.1020137,14.703 42.1020137,14.703 Z" id="path-3"></path>
        <path d="M35.9745427,0.985354545 L33.8429726,15.1205868 L11.167,13.1739339 C4.95535483,9.44249041 1.69133666,5.16039686 0.171031811,0.985354545 L35.9745427,0.985354545 L35.9745427,0.985354545 Z" id="path-5"></path>
        <path d="M36.2698744,15.1541388 L37.849137,4.68146281 C35.1017536,3.36665863 32.187976,2.07339897 29.1984617,0.818543802 L0.280348968,0.818543802 C-0.344973014,5.05406702 0.10475502,10.201568 3.65571364,15.1541388 L36.2698744,15.1541388 L36.2698744,15.1541388 Z" id="path-7"></path>
        <path d="M37.7270384,14.9870116 L37.849137,14.1773306 C27.2136438,9.08754545 14.0846164,4.32061983 3.72126027,0.854628099 L3.71809589,0.85146281 C3.71625512,0.853304107 -0.490632845,7.20468816 0.100871487,14.9870116 L37.7270384,14.9870116 L37.7270384,14.9870116 Z" id="path-9"></path>
        <path d="M5.11376449,0.949416529 C3.4956488,3.16727416 1.99807505,5.58412613 0.616945205,8.11003152 L0.616945205,55.8110686 L0.87009589,55.9880992 L11.5657123,36.9267273 C15.5657304,19.9879442 14.2084565,7.75615407 12.6210905,0.949416529 L5.11376449,0.949416529 L5.11376449,0.949416529 Z" id="path-11"></path>
        <path d="M17.5122145,0.510390909 C12.4323582,6.17422232 8.37884408,13.9309611 5.25276712,21.6098926 C3.56311751,26.0064548 2.10000518,30.4510939 0.890347945,34.4680237 L0.890347945,52.528906 L6.14970416,56.2068207 L12.0166091,56.2068207 L21.058863,40.0920165 C25.9109256,19.5451002 22.8803027,5.92402377 21.1181,0.510390909 L17.5122145,0.510390909 L17.5122145,0.510390909 Z" id="path-13"></path>
        <path d="M20.5022479,0.706057784 C15.503899,6.35210792 11.5073804,14.0190168 8.41715068,21.6098926 C3.10731507,35.4263802 0.0346986301,49.7176612 0.0346986301,49.7176612 L4.15997799,52.6025058 L17.2034268,52.6025058 L20.5022479,46.7234565 L20.5022479,0.706057784 L20.5022479,0.706057784 Z" id="path-15"></path>
    </defs>
    <g id="Page-1" stroke="none" stroke-width="1" fill="none" fill-rule="evenodd">
        <g id="06---Autoridades-designadas-Copy-2" transform="translate(-552.000000, -1669.000000)">
            <g id="Page-1" transform="translate(547.000000, 1668.000000)">
                <g id="Group-28" transform="translate(0.000000, 0.794950)">
                    <path d="M82.869826,77.7591289 C82.869826,77.7591289 60.3805521,81.1681455 55.883963,76.6164595 C54.8966753,75.6162281 55.883963,70.9664182 55.883963,70.9664182 L81.3129493,70.9664182 L82.869826,77.7591289 Z" id="Fill-1" fill="#062738"></path>
                    <path d="M79.1469288,73.1222967 L58.0215041,73.1222967 C58.0215041,74.898024 55.9836411,77.4840653 54.4552438,78.1171231 L53.5154219,92.6394702 L83.884011,93.1744041 L83.884011,78.224743 C81.8872849,78.0031727 79.2956548,75.1639083 79.1469288,73.1222967" id="Fill-3" fill="#FBD0C5"></path>
                    <path d="M88.4454699,49.7504339 C88.4454699,60.7086653 79.6737986,69.5936322 68.8516068,69.5936322 C58.0294151,69.5936322 49.2545795,60.7086653 49.2545795,49.7504339 C49.2545795,38.7922025 58.0294151,29.9072355 68.8516068,29.9072355 C79.6737986,29.9072355 88.4454699,38.7922025 88.4454699,49.7504339" id="Fill-5" fill="#FBD0C5"></path>
                    <mask id="mask-2" fill="white">
                        <use xlink:href="#path-1"></use>
                    </mask>
                    <g id="Clip-8"></g>
                    <polygon id="Fill-7" fill="#FBD0C5" mask="url(#mask-2)" points="49.2567945 49.7520165 88.4476849 49.7520165 88.4476849 17.4090909 49.2567945 17.4090909"></polygon>
                    <polygon id="Fill-9" fill="#FBD0C5" mask="url(#mask-2)" points="58.022137 80.2749008 79.1159178 80.2749008 79.1159178 58.9155289 58.022137 58.9155289"></polygon>
                    <path d="M95.5745096,8.63111074 C92.7803589,11.4608793 87.1287699,9.01411074 87.1287699,9.01411074 C92.4291123,4.04144132 89.381811,0.369705785 89.381811,0.369705785 C89.381811,4.42127603 78.7304959,2.12960661 78.7304959,2.12960661 C71.7783452,1.1325405 66.5666055,1.21167273 66.5666055,1.21167273 C55.9184548,1.21167273 51.1750438,6.39641653 49.0960438,10.384681 C40.6281534,22.1500612 44.9633589,41.5311273 44.9633589,41.5311273 L49.9852356,41.5311273 L49.9852356,31.186962 C49.9852356,26.8410198 51.4724959,23.6124248 52.801537,21.589805 C59.1651123,24.1220364 67.6108521,24.8500529 67.6108521,24.8500529 C73.8003863,24.8500529 78.6260712,23.8719785 82.3980164,22.4064496 C88.6951397,29.0124083 87.3660986,41.5311273 87.3660986,41.5311273 L93.1569205,41.5311273 C94.6600027,29.5600033 93.5587973,21.5961355 91.4797973,16.2911107 C94.9479616,12.3914744 95.5745096,8.63111074 95.5745096,8.63111074" id="Fill-10" fill="#7B4F42" mask="url(#mask-2)"></path>
                    <path d="M102.488055,263.390683 C105.440425,209.128129 102.219082,191.177774 102.219082,191.177774 L32.463411,191.177774 C32.463411,191.177774 29.691411,221.545559 32.1627945,263.384352 L66.2526986,263.390683 C67.0912603,248.729063 66.7526712,233.412228 67.5849041,225.271104 C67.9108356,222.077327 70.2018493,222.289402 70.6100548,225.271104 C71.7523973,233.570493 71.4169726,248.042195 72.1099726,263.397013 L102.488055,263.390683 Z" id="Fill-11" fill="#062738" mask="url(#mask-2)"></path>
                    <path d="M54.2112699,44.0690562 C54.2112699,46.8386843 51.993037,49.089205 49.2558452,49.089205 C46.5186534,49.089205 44.2972562,46.8386843 44.2972562,44.0690562 C44.2972562,41.2962628 46.5186534,39.0489074 49.2558452,39.0489074 C51.993037,39.0489074 54.2112699,41.2962628 54.2112699,44.0690562" id="Fill-12" fill="#FBD0C5" mask="url(#mask-2)"></path>
                    <path d="M93.4021603,44.0690562 C93.4021603,46.8386843 91.1839274,49.089205 88.4467356,49.089205 C85.7095438,49.089205 83.4881466,46.8386843 83.4881466,44.0690562 C83.4881466,41.2962628 85.7095438,39.0489074 88.4467356,39.0489074 C91.1839274,39.0489074 93.4021603,41.2962628 93.4021603,44.0690562" id="Fill-13" fill="#FBD0C5" mask="url(#mask-2)"></path>
                    <path d="M41.5885438,263.390683 C41.5885438,263.390683 41.5885438,291.966914 44.8763384,354.946674 L58.5749548,354.946674 C60.2172699,300.28846 61.5906123,263.390683 61.5906123,263.390683" id="Fill-14" fill="#FBD0C5" mask="url(#mask-2)"></path>
                    <path d="M95.2878164,263.390683 C95.2878164,263.390683 95.2878164,288.36165 92.0000219,354.946674 L78.3014055,354.946674 C79.1368027,316.687823 75.2889123,263.390683 75.2889123,263.390683" id="Fill-15" fill="#FBD0C5" mask="url(#mask-2)"></path>
                    <path d="M91.4560644,369.223712 L78.4251329,369.223712 C78.4251329,369.223712 77.1245712,292.93391 76.3461329,280.2411 L95.2881329,280.2411 C95.2881329,280.2411 93.6489822,340.299298 91.4560644,369.223712" id="Fill-16" fill="#062738" mask="url(#mask-2)"></path>
                    <polygon id="Fill-17" fill="#F4F2F2" mask="url(#mask-2)" points="95.226111 282.672992 76.473974 282.672992 76.5499192 284.369587 95.1818096 284.369587"></polygon>
                    <polygon id="Fill-18" fill="#F4F2F2" mask="url(#mask-2)" points="95.1302301 286.156709 76.6185863 286.156709 76.681874 287.856469 95.0827644 287.856469"></polygon>
                    <path d="M45.5044685,369.223712 L59.1777699,369.223712 C59.1777699,369.223712 60.7314822,292.93391 61.5067562,280.2411 L41.5869616,280.2411 C41.5869616,280.2411 43.3115507,340.299298 45.5044685,369.223712" id="Fill-19" fill="#062738" mask="url(#mask-2)"></path>
                    <polygon id="Fill-20" fill="#F4F2F2" mask="url(#mask-2)" points="61.3789151 282.663496 41.6489836 282.663496 41.6964493 284.35376 61.3061342 284.35376"></polygon>
                    <polygon id="Fill-21" fill="#F4F2F2" mask="url(#mask-2)" points="61.2336699 286.162723 41.7473959 286.162723 41.7948616 287.852988 61.1703822 287.852988"></polygon>
                    <path d="M58.9733507,369.223712 L58.9733507,377.336348 C58.9733507,377.336348 59.2296658,379.836926 53.6825014,379.836926 L27.3801452,379.836926 C27.3801452,379.836926 23.6809808,374.528736 30.6679397,372.553596 L45.9424192,369.223712 L58.9733507,369.223712 Z" id="Fill-22" fill="#062738" mask="url(#mask-2)"></path>
                    <path d="M78.4238671,369.223712 L78.4238671,377.336348 C78.4238671,377.336348 78.1675521,379.836926 83.7178808,379.836926 L110.017073,379.836926 C110.017073,379.836926 113.716237,374.528736 106.729278,372.553596 L91.4547986,369.223712 L78.4238671,369.223712 Z" id="Fill-23" fill="#062738" mask="url(#mask-2)"></path>
                    <path d="M123.499245,96.3042421 L138.583862,98.7510107 L184.518053,76.3249364 L194.773821,69.263176 C194.773821,69.263176 201.881026,64.0721017 205.982067,69.9563744 C205.982067,69.9563744 207.760451,75.7710107 199.830505,79.439581 L188.552642,84.7667628 L143.371574,116.19492 L120.822177,114.061515 L123.499245,96.3042421 Z" id="Fill-24" fill="#FBD0C5" mask="url(#mask-2)"></path>
                    <path d="M108.372859,198.635195 L28.1747219,198.635195 L29.3898452,133.886038 L18.6910644,152.950575 L5.20129726,143.508517 C5.20129726,143.508517 11.5047493,109.766534 26.2792562,93.8261372 C37.2343521,82.0037818 56.0118041,77.6388479 56.0118041,77.6388479 C56.0118041,77.6388479 63.9354205,88.3691785 69.4920781,91.6705752 C69.4920781,91.6705752 78.8238452,86.2231124 82.1242973,77.6388479 C82.1242973,77.6388479 112.809325,86.4446826 133.782859,96.4754843 L130.77353,116.407311 L108.100722,114.463823 L108.372859,198.635195 Z" id="Fill-25" fill="#F4F2F2" mask="url(#mask-2)"></path>
                    <path d="M55.8845959,70.9648355 C55.8845959,70.9648355 48.8470068,78.9856785 51.9386096,91.1245628 L62.3842397,85.3415793 C54.8973082,77.9664554 55.8845959,70.9648355 55.8845959,70.9648355" id="Fill-26" fill="#062738" mask="url(#mask-2)"></path>
                    <path d="M81.2537753,70.9648355 C81.2537753,70.9648355 89.3640904,76.2635298 86.8420767,90.317414 L77.323611,85.1326702 C83.2821452,78.640662 81.2537753,70.9648355 81.2537753,70.9648355" id="Fill-27" fill="#062738" mask="url(#mask-2)"></path>
                </g>
                <g id="Group-39" transform="translate(27.315068, 77.761893)">
                    <mask id="mask-4" fill="white">
                        <use xlink:href="#path-3"></use>
                    </mask>
                    <g id="Clip-30"></g>
                    <polygon id="Fill-29" fill="#062738" mask="url(#mask-4)" points="47.6808219 124.30114 52.6299178 124.30114 52.6299178 -1.99073554 47.6808219 -1.99073554"></polygon>
                    <polygon id="Fill-31" fill="#062738" mask="url(#mask-4)" points="37.7826301 124.30114 42.731726 124.30114 42.731726 -1.99073554 37.7826301 -1.99073554"></polygon>
                    <polygon id="Fill-32" fill="#062738" mask="url(#mask-4)" points="27.881274 124.30114 32.8303699 124.30114 32.8303699 -1.99073554 27.881274 -1.99073554"></polygon>
                    <polygon id="Fill-33" fill="#062738" mask="url(#mask-4)" points="17.9830822 124.30114 22.9321781 124.30114 22.9321781 -1.99073554 17.9830822 -1.99073554"></polygon>
                    <polygon id="Fill-34" fill="#062738" mask="url(#mask-4)" points="8.08489041 124.30114 13.0339863 124.30114 13.0339863 -1.99073554 8.08489041 -1.99073554"></polygon>
                    <polygon id="Fill-35" fill="#062738" mask="url(#mask-4)" points="-1.81330137 124.30114 3.13579452 124.30114 3.13579452 -1.99073554 -1.81330137 -1.99073554"></polygon>
                    <polygon id="Fill-36" fill="#062738" mask="url(#mask-4)" points="57.5790137 124.30114 62.5281096 124.30114 62.5281096 -1.99073554 57.5790137 -1.99073554"></polygon>
                    <polygon id="Fill-37" fill="#062738" mask="url(#mask-4)" points="67.4772055 124.30114 72.4263014 124.30114 72.4263014 -1.99073554 67.4772055 -1.99073554"></polygon>
                    <polygon id="Fill-38" fill="#062738" mask="url(#mask-4)" points="77.3753973 124.30114 82.3244932 124.30114 82.3244932 -1.99073554 77.3753973 -1.99073554"></polygon>
                </g>
                <g id="Group-52" transform="translate(95.931507, 83.092471)">
                    <g id="Group-45" transform="translate(1.000000, 18.991736)">
                        <mask id="mask-6" fill="white">
                            <use xlink:href="#path-5"></use>
                        </mask>
                        <g id="Clip-44"></g>
                        <polygon id="Fill-43" fill="#062738" mask="url(#mask-6)" points="-4.92926986 0.985354545 -6.00832466 5.81558595 36.5051685 15.3209496 37.5873877 10.4875529"></polygon>
                    </g>
                    <g id="Group-48" transform="translate(0.000000, 9.495868)">
                        <mask id="mask-8" fill="white">
                            <use xlink:href="#path-7"></use>
                        </mask>
                        <g id="Clip-47"></g>
                        <polygon id="Fill-46" fill="#062738" mask="url(#mask-8)" points="-1.77084384 0.818543802 -2.84989863 5.64877521 39.6635945 15.1541388 40.7458137 10.3207421"></polygon>
                    </g>
                    <g id="Group-51">
                        <mask id="mask-10" fill="white">
                            <use xlink:href="#path-9"></use>
                        </mask>
                        <g id="Clip-50"></g>
                        <polygon id="Fill-49" fill="#062738" mask="url(#mask-10)" points="0.38789863 0.651416529 -0.691156164 5.48164793 41.822337 14.9870116 42.9045562 10.1536149"></polygon>
                    </g>
                </g>
                <g id="Group-62" transform="translate(5.164384, 94.588339)">
                    <g id="Group-55" transform="translate(12.657534, 3.165289)">
                        <mask id="mask-12" fill="white">
                            <use xlink:href="#path-11"></use>
                        </mask>
                        <g id="Clip-54"></g>
                        <polygon id="Fill-53" fill="#062738" mask="url(#mask-12)" points="0.616945205 54.8447967 5.22745205 56.6458463 26.2832603 2.75046612 21.6727534 0.949416529"></polygon>
                    </g>
                    <g id="Group-58" transform="translate(3.164384, 0.000000)">
                        <mask id="mask-14" fill="white">
                            <use xlink:href="#path-13"></use>
                        </mask>
                        <g id="Clip-57"></g>
                        <polygon id="Fill-56" fill="#062738" mask="url(#mask-14)" points="0.890347945 54.4057711 5.50085479 56.2068207 26.556663 2.3114405 21.9461562 0.510390909"></polygon>
                    </g>
                    <g id="Group-61">
                        <mask id="mask-16" fill="white">
                            <use xlink:href="#path-15"></use>
                        </mask>
                        <g id="Clip-60"></g>
                        <polygon id="Fill-59" fill="#062738" mask="url(#mask-16)" points="-5.16406712 50.8014562 -0.553560274 52.6025058 20.5022479 -1.29287438 15.8917411 -3.09392397"></polygon>
                    </g>
                </g>
                <g id="Group-67" transform="translate(8.328767, 55.604868)">
                    <path d="M1.48999863,85.7773545 L26.8999986,39.5166521 L30.7130808,27.5708504 C30.7130808,27.5708504 33.1781356,19.053057 39.9815603,21.1484785 C39.9815603,21.1484785 44.9116699,24.633462 40.8770808,32.458057 L35.2033411,43.6758421 L17.8023959,92.4529496 C17.8023959,92.4529496 13.5368068,104.576007 4.44553288,99.1696934 C-1.67438493,95.5296107 1.48999863,85.7773545 1.48999863,85.7773545" id="Fill-63" fill="#FBD0C5"></path>
                    <polygon id="Fill-65" fill="#E85D34" points="203.869099 22.828614 188.635756 20.4071678 191.777989 0.605118182 207.014496 3.02656446"></polygon>
                </g>
            </g>
        </g>
    </g>
</svg>