<?xml version="1.0" encoding="UTF-8" standalone="no"?>
<svg width="215px" height="129px" viewBox="0 0 215 129" version="1.1" xmlns="http://www.w3.org/2000/svg" xmlns:xlink="http://www.w3.org/1999/xlink">
    <!-- Generator: Sketch 41.2 (35397) - http://www.bohemiancoding.com/sketch -->
    <title>Group 3</title>
    <desc>Created with Sketch.</desc>
    <defs></defs>
    <g id="Page-1" stroke="none" stroke-width="1" fill="none" fill-rule="evenodd">
        <g id="06---Autoridades-designadas-Copy-2" transform="translate(-945.000000, -282.000000)">
            <g id="Group-3" transform="translate(945.000000, 282.000000)">
                <g id="Page-1">
                    <path d="M201.371345,11.6808 C201.371345,5.75842687 196.570982,0.956397015 190.650664,0.956397015 L23.6660273,0.956397015 C17.7476636,0.956397015 12.9453455,5.75842687 12.9453455,11.6808 L12.9453455,120.160531 L201.310755,120.160531 L201.371345,11.6808 Z" id="Fill-1" fill="#24516D"></path>
                    <g id="Group-5" transform="translate(0.000000, 116.726170)" fill="#43768E">
                        <path d="M206.834105,12.0445806 L7.48219545,12.0445806 C3.36592273,12.0445806 0.000195454546,8.67572985 0.000195454546,4.55998358 L0.000195454546,0.418819403 L214.316105,0.418819403 L214.316105,4.55998358 C214.316105,8.67572985 210.948423,12.0445806 206.834105,12.0445806" id="Fill-3"></path>
                    </g>
                    <polygon id="Fill-8" fill="#FFFFFF" points="23.6656364 109.306693 190.650273 109.306693 190.650273 18.7055284 23.6656364 18.7055284"></polygon>
                    <path d="M28.3463818,15.5243791 C28.3463818,16.2419463 27.7639273,16.824603 27.0446545,16.824603 C26.3273364,16.824603 25.7468364,16.2419463 25.7468364,15.5243791 C25.7468364,14.8068119 26.3273364,14.2241552 27.0446545,14.2241552 C27.7639273,14.2241552 28.3463818,14.8068119 28.3463818,15.5243791" id="Fill-9" fill="#FFFFFF"></path>
                    <path d="M31.75335,15.5243791 C31.75335,16.2419463 31.1708955,16.824603 30.4535773,16.824603 C29.7362591,16.824603 29.1538045,16.2419463 29.1538045,15.5243791 C29.1538045,14.8068119 29.7362591,14.2241552 30.4535773,14.2241552 C31.1708955,14.2241552 31.75335,14.8068119 31.75335,15.5243791" id="Fill-10" fill="#FFFFFF"></path>
                    <path d="M35.4581909,15.5243791 C35.4581909,16.2419463 34.8757364,16.824603 34.1584182,16.824603 C33.4411,16.824603 32.8586455,16.2419463 32.8586455,15.5243791 C32.8586455,14.8068119 33.4411,14.2241552 34.1584182,14.2241552 C34.8757364,14.2241552 35.4581909,14.8068119 35.4581909,15.5243791" id="Fill-11" fill="#FFFFFF"></path>
                    <polygon id="Fill-12" fill="#A0D9DE" points="37.0073636 64.4245284 177.365227 64.4245284 177.365227 23.9377075 37.0073636 23.9377075"></polygon>
                    <polygon id="Fill-13" fill="#10BAC1" points="37.0093182 72.7068567 82.1827727 72.7068567 82.1827727 68.7123343 37.0093182 68.7123343"></polygon>
                    <polygon id="Fill-14" fill="#10BAC1" points="84.6005455 72.7068567 129.772045 72.7068567 129.772045 68.7123343 84.6005455 68.7123343"></polygon>
                    <polygon id="Fill-15" fill="#10BAC1" points="132.191773 72.7068567 177.365227 72.7068567 177.365227 68.7123343 132.191773 68.7123343"></polygon>
                    <polygon id="Fill-16" fill="#10BAC1" points="159.561273 76.6466328 177.365227 76.6466328 177.365227 75.8840955 159.561273 75.8840955"></polygon>
                    <polygon id="Fill-17" fill="#10BAC1" points="139.447045 76.6466328 157.251 76.6466328 157.251 75.8840955 139.447045 75.8840955"></polygon>
                    <polygon id="Fill-18" fill="#10BAC1" points="132.305136 76.6466328 137.795455 76.6466328 137.795455 75.8840955 132.305136 75.8840955"></polygon>
                    <polygon id="Fill-19" fill="#10BAC1" points="132.305136 78.1443343 177.365227 78.1443343 177.365227 77.381797 132.305136 77.381797"></polygon>
                    <polygon id="Fill-20" fill="#10BAC1" points="132.305136 80.979409 177.365227 80.979409 177.365227 80.2168716 132.305136 80.2168716"></polygon>
                    <polygon id="Fill-21" fill="#10BAC1" points="132.307091 75.2525582 153.130818 75.2525582 153.130818 74.4880657 132.307091 74.4880657"></polygon>
                    <polygon id="Fill-22" fill="#10BAC1" points="165.794318 75.2525582 177.365227 75.2525582 177.365227 74.4880657 165.794318 74.4880657"></polygon>
                    <polygon id="Fill-23" fill="#10BAC1" points="155.386364 75.2525582 163.732273 75.2525582 163.732273 74.4880657 155.386364 74.4880657"></polygon>
                    <polygon id="Fill-24" fill="#10BAC1" points="132.191773 79.6537672 153.0155 79.6537672 153.0155 78.8892746 132.191773 78.8892746"></polygon>
                    <polygon id="Fill-25" fill="#10BAC1" points="165.679 79.6537672 177.249909 79.6537672 177.249909 78.8892746 165.679 78.8892746"></polygon>
                    <polygon id="Fill-26" fill="#10BAC1" points="155.273 79.6537672 163.618909 79.6537672 163.618909 78.8892746 155.273 78.8892746"></polygon>
                    <polygon id="Fill-27" fill="#10BAC1" points="159.561273 89.7036179 177.365227 89.7036179 177.365227 88.9410806 159.561273 88.9410806"></polygon>
                    <polygon id="Fill-28" fill="#10BAC1" points="139.447045 89.7036179 157.251 89.7036179 157.251 88.9410806 139.447045 88.9410806"></polygon>
                    <polygon id="Fill-29" fill="#10BAC1" points="132.305136 89.7036179 137.795455 89.7036179 137.795455 88.9410806 132.305136 88.9410806"></polygon>
                    <polygon id="Fill-30" fill="#10BAC1" points="159.561273 82.4849313 177.365227 82.4849313 177.365227 81.652006 159.561273 81.652006"></polygon>
                    <polygon id="Fill-31" fill="#10BAC1" points="139.447045 82.4849313 157.251 82.4849313 157.251 81.652006 139.447045 81.652006"></polygon>
                    <polygon id="Fill-32" fill="#10BAC1" points="132.305136 82.4849313 137.795455 82.4849313 137.795455 81.652006 132.305136 81.652006"></polygon>
                    <polygon id="Fill-33" fill="#10BAC1" points="132.305136 91.2032746 177.365227 91.2032746 177.365227 90.4407373 132.305136 90.4407373"></polygon>
                    <polygon id="Fill-34" fill="#10BAC1" points="132.305136 94.0383493 177.365227 94.0383493 177.365227 93.2738567 132.305136 93.2738567"></polygon>
                    <polygon id="Fill-35" fill="#10BAC1" points="132.307091 88.3114985 153.130818 88.3114985 153.130818 87.5489612 132.307091 87.5489612"></polygon>
                    <polygon id="Fill-36" fill="#10BAC1" points="165.794318 88.3114985 177.365227 88.3114985 177.365227 87.5489612 165.794318 87.5489612"></polygon>
                    <polygon id="Fill-37" fill="#10BAC1" points="155.386364 88.3114985 163.732273 88.3114985 163.732273 87.5489612 155.386364 87.5489612"></polygon>
                    <polygon id="Fill-38" fill="#10BAC1" points="132.191773 92.7127075 153.0155 92.7127075 153.0155 91.9501701 132.191773 91.9501701"></polygon>
                    <polygon id="Fill-39" fill="#10BAC1" points="165.679 92.7127075 177.249909 92.7127075 177.249909 91.9501701 165.679 91.9501701"></polygon>
                    <polygon id="Fill-40" fill="#10BAC1" points="155.273 92.7127075 163.618909 92.7127075 163.618909 91.9501701 155.273 91.9501701"></polygon>
                    <polygon id="Fill-41" fill="#10BAC1" points="132.305136 95.3581254 177.365227 95.3581254 177.365227 94.5955881 132.305136 94.5955881"></polygon>
                    <polygon id="Fill-42" fill="#10BAC1" points="132.191773 96.8675582 153.0155 96.8675582 153.0155 96.1050209 132.191773 96.1050209"></polygon>
                    <polygon id="Fill-43" fill="#10BAC1" points="165.679 96.8675582 177.249909 96.8675582 177.249909 96.1050209 165.679 96.1050209"></polygon>
                    <polygon id="Fill-44" fill="#10BAC1" points="155.273 96.8675582 163.618909 96.8675582 163.618909 96.1050209 155.273 96.1050209"></polygon>
                    <polygon id="Fill-45" fill="#10BAC1" points="132.305136 86.8431254 141.948864 86.8431254 141.948864 86.0805881 132.305136 86.0805881"></polygon>
                    <polygon id="Fill-46" fill="#10BAC1" points="143.385455 86.8431254 151.694227 86.8431254 151.694227 86.0805881 143.385455 86.0805881"></polygon>
                    <polygon id="Fill-47" fill="#10BAC1" points="170.733455 86.8431254 177.365227 86.8431254 177.365227 86.0805881 170.733455 86.0805881"></polygon>
                    <polygon id="Fill-48" fill="#10BAC1" points="153.895045 86.8431254 169.163955 86.8431254 169.163955 86.0805881 153.895045 86.0805881"></polygon>
                    <polygon id="Fill-49" fill="#10BAC1" points="132.305136 85.407991 160.405636 85.407991 160.405636 84.5281403 132.305136 84.5281403"></polygon>
                    <polygon id="Fill-50" fill="#10BAC1" points="162.158864 85.407991 177.365227 85.407991 177.365227 84.5281403 162.158864 84.5281403"></polygon>
                    <polygon id="Fill-51" fill="#10BAC1" points="132.305136 83.835991 177.365227 83.835991 177.365227 83.0695433 132.305136 83.0695433"></polygon>
                    <polygon id="Fill-52" fill="#10BAC1" points="111.970045 76.6466328 129.772045 76.6466328 129.772045 75.8840955 111.970045 75.8840955"></polygon>
                    <polygon id="Fill-53" fill="#10BAC1" points="91.8538636 76.6466328 109.657818 76.6466328 109.657818 75.8840955 91.8538636 75.8840955"></polygon>
                    <polygon id="Fill-54" fill="#10BAC1" points="84.7139091 76.6466328 90.2022727 76.6466328 90.2022727 75.8840955 84.7139091 75.8840955"></polygon>
                    <polygon id="Fill-55" fill="#10BAC1" points="84.7139091 78.1443343 129.772045 78.1443343 129.772045 77.381797 84.7139091 77.381797"></polygon>
                    <polygon id="Fill-56" fill="#10BAC1" points="84.7139091 80.979409 129.772045 80.979409 129.772045 80.2168716 84.7139091 80.2168716"></polygon>
                    <polygon id="Fill-57" fill="#10BAC1" points="84.7158636 75.2525582 105.539591 75.2525582 105.539591 74.4880657 84.7158636 74.4880657"></polygon>
                    <polygon id="Fill-58" fill="#10BAC1" points="118.203091 75.2525582 129.772045 75.2525582 129.772045 74.4880657 118.203091 74.4880657"></polygon>
                    <polygon id="Fill-59" fill="#10BAC1" points="107.797091 75.2525582 116.143 75.2525582 116.143 74.4880657 107.797091 74.4880657"></polygon>
                    <polygon id="Fill-60" fill="#10BAC1" points="84.6005455 79.6537672 105.424273 79.6537672 105.424273 78.8892746 84.6005455 78.8892746"></polygon>
                    <polygon id="Fill-61" fill="#10BAC1" points="118.089727 79.6537672 129.658682 79.6537672 129.658682 78.8892746 118.089727 78.8892746"></polygon>
                    <polygon id="Fill-62" fill="#10BAC1" points="107.681773 79.6537672 116.027682 79.6537672 116.027682 78.8892746 107.681773 78.8892746"></polygon>
                    <polygon id="Fill-63" fill="#10BAC1" points="111.970045 89.7036179 129.772045 89.7036179 129.772045 88.9410806 111.970045 88.9410806"></polygon>
                    <polygon id="Fill-64" fill="#10BAC1" points="91.8538636 89.7036179 109.657818 89.7036179 109.657818 88.9410806 91.8538636 88.9410806"></polygon>
                    <polygon id="Fill-65" fill="#10BAC1" points="84.7139091 89.7036179 90.2022727 89.7036179 90.2022727 88.9410806 84.7139091 88.9410806"></polygon>
                    <polygon id="Fill-66" fill="#10BAC1" points="111.970045 82.4849313 129.772045 82.4849313 129.772045 81.652006 111.970045 81.652006"></polygon>
                    <polygon id="Fill-67" fill="#10BAC1" points="91.8538636 82.4849313 109.657818 82.4849313 109.657818 81.652006 91.8538636 81.652006"></polygon>
                    <polygon id="Fill-68" fill="#10BAC1" points="84.7139091 82.4849313 90.2022727 82.4849313 90.2022727 81.652006 84.7139091 81.652006"></polygon>
                    <polygon id="Fill-69" fill="#10BAC1" points="84.7139091 91.2032746 129.772045 91.2032746 129.772045 90.4407373 84.7139091 90.4407373"></polygon>
                    <polygon id="Fill-70" fill="#10BAC1" points="84.7139091 94.0383493 129.772045 94.0383493 129.772045 93.2738567 84.7139091 93.2738567"></polygon>
                    <polygon id="Fill-71" fill="#10BAC1" points="84.7158636 88.3114985 105.539591 88.3114985 105.539591 87.5489612 84.7158636 87.5489612"></polygon>
                    <polygon id="Fill-72" fill="#10BAC1" points="118.203091 88.3114985 129.772045 88.3114985 129.772045 87.5489612 118.203091 87.5489612"></polygon>
                    <polygon id="Fill-73" fill="#10BAC1" points="107.797091 88.3114985 116.143 88.3114985 116.143 87.5489612 107.797091 87.5489612"></polygon>
                    <polygon id="Fill-74" fill="#10BAC1" points="84.6005455 92.7127075 105.424273 92.7127075 105.424273 91.9501701 84.6005455 91.9501701"></polygon>
                    <polygon id="Fill-75" fill="#10BAC1" points="118.089727 92.7127075 129.658682 92.7127075 129.658682 91.9501701 118.089727 91.9501701"></polygon>
                    <polygon id="Fill-76" fill="#10BAC1" points="107.681773 92.7127075 116.027682 92.7127075 116.027682 91.9501701 107.681773 91.9501701"></polygon>
                    <polygon id="Fill-77" fill="#10BAC1" points="84.7139091 95.3581254 129.772045 95.3581254 129.772045 94.5955881 84.7139091 94.5955881"></polygon>
                    <polygon id="Fill-78" fill="#10BAC1" points="84.6005455 96.8675582 105.424273 96.8675582 105.424273 96.1050209 84.6005455 96.1050209"></polygon>
                    <polygon id="Fill-79" fill="#10BAC1" points="118.089727 96.8675582 129.658682 96.8675582 129.658682 96.1050209 118.089727 96.1050209"></polygon>
                    <polygon id="Fill-80" fill="#10BAC1" points="107.681773 96.8675582 116.027682 96.8675582 116.027682 96.1050209 107.681773 96.1050209"></polygon>
                    <polygon id="Fill-81" fill="#10BAC1" points="84.7139091 86.8431254 94.3576364 86.8431254 94.3576364 86.0805881 84.7139091 86.0805881"></polygon>
                    <polygon id="Fill-82" fill="#10BAC1" points="95.7942273 86.8431254 104.103 86.8431254 104.103 86.0805881 95.7942273 86.0805881"></polygon>
                    <polygon id="Fill-83" fill="#10BAC1" points="123.142227 86.8431254 129.772045 86.8431254 129.772045 86.0805881 123.142227 86.0805881"></polygon>
                    <polygon id="Fill-84" fill="#10BAC1" points="106.301864 86.8431254 121.570773 86.8431254 121.570773 86.0805881 106.301864 86.0805881"></polygon>
                    <polygon id="Fill-85" fill="#10BAC1" points="84.7158636 85.407991 112.814409 85.407991 112.814409 84.5281403 84.7158636 84.5281403"></polygon>
                    <polygon id="Fill-86" fill="#10BAC1" points="114.565682 85.407991 129.772045 85.407991 129.772045 84.5281403 114.565682 84.5281403"></polygon>
                    <polygon id="Fill-87" fill="#10BAC1" points="84.7139091 83.835991 129.772045 83.835991 129.772045 83.0695433 84.7139091 83.0695433"></polygon>
                    <polygon id="Fill-88" fill="#10BAC1" points="64.3788182 76.6466328 82.1827727 76.6466328 82.1827727 75.8840955 64.3788182 75.8840955"></polygon>
                    <polygon id="Fill-89" fill="#10BAC1" points="44.2645909 76.6466328 62.0685455 76.6466328 62.0685455 75.8840955 44.2645909 75.8840955"></polygon>
                    <polygon id="Fill-90" fill="#10BAC1" points="37.1226818 76.6466328 42.613 76.6466328 42.613 75.8840955 37.1226818 75.8840955"></polygon>
                    <polygon id="Fill-91" fill="#10BAC1" points="37.1226818 78.1443343 82.1827727 78.1443343 82.1827727 77.381797 37.1226818 77.381797"></polygon>
                    <polygon id="Fill-92" fill="#10BAC1" points="37.1226818 80.979409 82.1827727 80.979409 82.1827727 80.2168716 37.1226818 80.2168716"></polygon>
                    <polygon id="Fill-93" fill="#10BAC1" points="37.1226818 75.2525582 57.9464091 75.2525582 57.9464091 74.4880657 37.1226818 74.4880657"></polygon>
                    <polygon id="Fill-94" fill="#10BAC1" points="70.6118636 75.2525582 82.1827727 75.2525582 82.1827727 74.4880657 70.6118636 74.4880657"></polygon>
                    <polygon id="Fill-95" fill="#10BAC1" points="60.2039091 75.2525582 68.5498182 75.2525582 68.5498182 74.4880657 60.2039091 74.4880657"></polygon>
                    <polygon id="Fill-96" fill="#10BAC1" points="37.0093182 79.6537672 57.8330455 79.6537672 57.8330455 78.8892746 37.0093182 78.8892746"></polygon>
                    <polygon id="Fill-97" fill="#10BAC1" points="70.4965455 79.6537672 82.0674545 79.6537672 82.0674545 78.8892746 70.4965455 78.8892746"></polygon>
                    <polygon id="Fill-98" fill="#10BAC1" points="60.0905455 79.6537672 68.4364545 79.6537672 68.4364545 78.8892746 60.0905455 78.8892746"></polygon>
                    <polygon id="Fill-99" fill="#10BAC1" points="64.3788182 89.7036179 82.1827727 89.7036179 82.1827727 88.9410806 64.3788182 88.9410806"></polygon>
                    <polygon id="Fill-100" fill="#10BAC1" points="44.2645909 89.7036179 62.0685455 89.7036179 62.0685455 88.9410806 44.2645909 88.9410806"></polygon>
                    <polygon id="Fill-101" fill="#10BAC1" points="37.1226818 89.7036179 42.613 89.7036179 42.613 88.9410806 37.1226818 88.9410806"></polygon>
                    <polygon id="Fill-102" fill="#10BAC1" points="64.3788182 82.4849313 82.1827727 82.4849313 82.1827727 81.652006 64.3788182 81.652006"></polygon>
                    <polygon id="Fill-103" fill="#10BAC1" points="44.2645909 82.4849313 62.0685455 82.4849313 62.0685455 81.652006 44.2645909 81.652006"></polygon>
                    <polygon id="Fill-104" fill="#10BAC1" points="37.1226818 82.4849313 42.613 82.4849313 42.613 81.652006 37.1226818 81.652006"></polygon>
                    <polygon id="Fill-105" fill="#10BAC1" points="37.1226818 91.2032746 82.1827727 91.2032746 82.1827727 90.4407373 37.1226818 90.4407373"></polygon>
                    <polygon id="Fill-106" fill="#10BAC1" points="37.1226818 94.0383493 82.1827727 94.0383493 82.1827727 93.2738567 37.1226818 93.2738567"></polygon>
                    <polygon id="Fill-107" fill="#10BAC1" points="37.1226818 88.3114985 57.9464091 88.3114985 57.9464091 87.5489612 37.1226818 87.5489612"></polygon>
                    <polygon id="Fill-108" fill="#10BAC1" points="70.6118636 88.3114985 82.1827727 88.3114985 82.1827727 87.5489612 70.6118636 87.5489612"></polygon>
                    <polygon id="Fill-109" fill="#10BAC1" points="60.2039091 88.3114985 68.5498182 88.3114985 68.5498182 87.5489612 60.2039091 87.5489612"></polygon>
                    <polygon id="Fill-110" fill="#10BAC1" points="37.0093182 92.7127075 57.8330455 92.7127075 57.8330455 91.9501701 37.0093182 91.9501701"></polygon>
                    <polygon id="Fill-111" fill="#10BAC1" points="70.4965455 92.7127075 82.0674545 92.7127075 82.0674545 91.9501701 70.4965455 91.9501701"></polygon>
                    <polygon id="Fill-112" fill="#10BAC1" points="60.0905455 92.7127075 68.4364545 92.7127075 68.4364545 91.9501701 60.0905455 91.9501701"></polygon>
                    <polygon id="Fill-113" fill="#10BAC1" points="37.1226818 95.3581254 82.1827727 95.3581254 82.1827727 94.5955881 37.1226818 94.5955881"></polygon>
                    <polygon id="Fill-114" fill="#10BAC1" points="37.0093182 96.8675582 57.8330455 96.8675582 57.8330455 96.1050209 37.0093182 96.1050209"></polygon>
                    <polygon id="Fill-115" fill="#10BAC1" points="70.4965455 96.8675582 82.0674545 96.8675582 82.0674545 96.1050209 70.4965455 96.1050209"></polygon>
                    <polygon id="Fill-116" fill="#10BAC1" points="60.0905455 96.8675582 68.4364545 96.8675582 68.4364545 96.1050209 60.0905455 96.1050209"></polygon>
                    <polygon id="Fill-117" fill="#10BAC1" points="37.1226818 86.8431254 46.7664091 86.8431254 46.7664091 86.0805881 37.1226818 86.0805881"></polygon>
                    <polygon id="Fill-118" fill="#10BAC1" points="48.203 86.8431254 56.5117727 86.8431254 56.5117727 86.0805881 48.203 86.0805881"></polygon>
                    <polygon id="Fill-119" fill="#10BAC1" points="75.551 86.8431254 82.1827727 86.8431254 82.1827727 86.0805881 75.551 86.0805881"></polygon>
                    <polygon id="Fill-120" fill="#10BAC1" points="58.7106364 86.8431254 73.9795455 86.8431254 73.9795455 86.0805881 58.7106364 86.0805881"></polygon>
                    <polygon id="Fill-121" fill="#10BAC1" points="37.1226818 85.407991 65.2231818 85.407991 65.2231818 84.5281403 37.1226818 84.5281403"></polygon>
                    <polygon id="Fill-122" fill="#10BAC1" points="66.9744545 85.407991 82.1827727 85.407991 82.1827727 84.5281403 66.9744545 84.5281403"></polygon>
                    <polygon id="Fill-123" fill="#10BAC1" points="37.1226818 83.835991 82.1827727 83.835991 82.1827727 83.0695433 37.1226818 83.0695433"></polygon>
                    <polygon id="Fill-124" fill="#10BAC1" points="159.561273 99.6557075 177.365227 99.6557075 177.365227 98.8931701 159.561273 98.8931701"></polygon>
                    <polygon id="Fill-125" fill="#10BAC1" points="139.447045 99.6557075 157.251 99.6557075 157.251 98.8931701 139.447045 98.8931701"></polygon>
                    <polygon id="Fill-126" fill="#10BAC1" points="132.305136 99.6557075 137.795455 99.6557075 137.795455 98.8931701 132.305136 98.8931701"></polygon>
                    <polygon id="Fill-127" fill="#10BAC1" points="132.305136 101.155364 177.365227 101.155364 177.365227 100.392827 132.305136 100.392827"></polygon>
                    <polygon id="Fill-128" fill="#10BAC1" points="132.305136 103.988484 177.365227 103.988484 177.365227 103.225946 132.305136 103.225946"></polygon>
                    <polygon id="Fill-129" fill="#10BAC1" points="132.307091 98.2616328 153.130818 98.2616328 153.130818 97.4971403 132.307091 97.4971403"></polygon>
                    <polygon id="Fill-130" fill="#10BAC1" points="165.794318 98.2616328 177.365227 98.2616328 177.365227 97.4971403 165.794318 97.4971403"></polygon>
                    <polygon id="Fill-131" fill="#10BAC1" points="155.386364 98.2616328 163.732273 98.2616328 163.732273 97.4971403 155.386364 97.4971403"></polygon>
                    <polygon id="Fill-132" fill="#10BAC1" points="132.191773 102.660887 153.0155 102.660887 153.0155 101.898349 132.191773 101.898349"></polygon>
                    <polygon id="Fill-133" fill="#10BAC1" points="165.679 102.660887 177.249909 102.660887 177.249909 101.898349 165.679 101.898349"></polygon>
                    <polygon id="Fill-134" fill="#10BAC1" points="155.273 102.660887 163.618909 102.660887 163.618909 101.898349 155.273 101.898349"></polygon>
                    <polygon id="Fill-135" fill="#10BAC1" points="111.970045 99.6557075 129.772045 99.6557075 129.772045 98.8931701 111.970045 98.8931701"></polygon>
                    <polygon id="Fill-136" fill="#10BAC1" points="91.8538636 99.6557075 109.657818 99.6557075 109.657818 98.8931701 91.8538636 98.8931701"></polygon>
                    <polygon id="Fill-137" fill="#10BAC1" points="84.7139091 99.6557075 90.2022727 99.6557075 90.2022727 98.8931701 84.7139091 98.8931701"></polygon>
                    <polygon id="Fill-138" fill="#10BAC1" points="84.7139091 101.155364 129.772045 101.155364 129.772045 100.392827 84.7139091 100.392827"></polygon>
                    <polygon id="Fill-139" fill="#10BAC1" points="84.7139091 103.988484 129.772045 103.988484 129.772045 103.225946 84.7139091 103.225946"></polygon>
                    <polygon id="Fill-140" fill="#10BAC1" points="84.7158636 98.2616328 105.539591 98.2616328 105.539591 97.4971403 84.7158636 97.4971403"></polygon>
                    <polygon id="Fill-141" fill="#10BAC1" points="118.203091 98.2616328 129.772045 98.2616328 129.772045 97.4971403 118.203091 97.4971403"></polygon>
                    <polygon id="Fill-142" fill="#10BAC1" points="107.797091 98.2616328 116.143 98.2616328 116.143 97.4971403 107.797091 97.4971403"></polygon>
                    <polygon id="Fill-143" fill="#10BAC1" points="84.6005455 102.660887 105.424273 102.660887 105.424273 101.898349 84.6005455 101.898349"></polygon>
                    <polygon id="Fill-144" fill="#10BAC1" points="118.089727 102.660887 129.658682 102.660887 129.658682 101.898349 118.089727 101.898349"></polygon>
                    <polygon id="Fill-145" fill="#10BAC1" points="107.681773 102.660887 116.027682 102.660887 116.027682 101.898349 107.681773 101.898349"></polygon>
                    <polygon id="Fill-146" fill="#10BAC1" points="64.3788182 99.6557075 82.1827727 99.6557075 82.1827727 98.8931701 64.3788182 98.8931701"></polygon>
                    <polygon id="Fill-147" fill="#10BAC1" points="44.2645909 99.6557075 62.0685455 99.6557075 62.0685455 98.8931701 44.2645909 98.8931701"></polygon>
                    <polygon id="Fill-148" fill="#10BAC1" points="37.1226818 99.6557075 42.613 99.6557075 42.613 98.8931701 37.1226818 98.8931701"></polygon>
                    <polygon id="Fill-149" fill="#10BAC1" points="37.1226818 101.155364 82.1827727 101.155364 82.1827727 100.392827 37.1226818 100.392827"></polygon>
                    <polygon id="Fill-150" fill="#10BAC1" points="37.1226818 103.988484 82.1827727 103.988484 82.1827727 103.225946 37.1226818 103.225946"></polygon>
                    <polygon id="Fill-151" fill="#10BAC1" points="37.1226818 98.2616328 57.9464091 98.2616328 57.9464091 97.4971403 37.1226818 97.4971403"></polygon>
                    <polygon id="Fill-152" fill="#10BAC1" points="70.6118636 98.2616328 82.1827727 98.2616328 82.1827727 97.4971403 70.6118636 97.4971403"></polygon>
                    <polygon id="Fill-153" fill="#10BAC1" points="60.2039091 98.2616328 68.5498182 98.2616328 68.5498182 97.4971403 60.2039091 97.4971403"></polygon>
                    <polygon id="Fill-154" fill="#10BAC1" points="37.0093182 102.660887 57.8330455 102.660887 57.8330455 101.898349 37.0093182 101.898349"></polygon>
                    <polygon id="Fill-155" fill="#10BAC1" points="70.4965455 102.660887 82.0674545 102.660887 82.0674545 101.898349 70.4965455 101.898349"></polygon>
                    <polygon id="Fill-156" fill="#10BAC1" points="60.0905455 102.660887 68.4364545 102.660887 68.4364545 101.898349 60.0905455 101.898349"></polygon>
                    <path d="M163.559295,45.4713701 L159.650205,45.4713701 C159.650205,41.9206836 156.761386,39.0289075 153.211932,39.0289075 L153.211932,35.1184597 C158.91725,35.1184597 163.559295,39.7621164 163.559295,45.4713701" id="Fill-157" fill="#FFFFFF"></path>
                    <path d="M153.211932,55.8240851 C147.504659,55.8240851 142.862614,51.1804284 142.862614,45.4711746 C142.862614,39.7619209 147.504659,35.1182642 153.211932,35.1182642 L153.211932,39.0287119 C149.662477,39.0287119 146.771705,41.9204881 146.771705,45.4711746 C146.771705,49.0218612 149.662477,51.9136373 153.211932,51.9136373 C156.761386,51.9136373 159.650205,49.0218612 159.650205,45.4711746 L163.559295,45.4711746 C163.559295,51.1804284 158.91725,55.8240851 153.211932,55.8240851" id="Fill-158" fill="#FFFFFF"></path>
                    <path d="M115.888518,45.4713701 L111.979427,45.4713701 C111.979427,41.9206836 109.088655,39.0289075 105.5392,39.0289075 L105.5392,35.1184597 C111.246473,35.1184597 115.888518,39.7621164 115.888518,45.4713701" id="Fill-159" fill="#FFFFFF"></path>
                    <path d="M105.539395,55.8240851 C99.8321227,55.8240851 95.1900773,51.1804284 95.1900773,45.4711746 C95.1900773,39.7619209 99.8321227,35.1182642 105.539395,35.1182642 L105.539395,39.0287119 C101.989941,39.0287119 99.0991682,41.9204881 99.0991682,45.4711746 C99.0991682,49.0218612 101.989941,51.9136373 105.539395,51.9136373 C109.08885,51.9136373 111.979623,49.0218612 111.979623,45.4711746 L115.888714,45.4711746 C115.888714,51.1804284 111.246668,55.8240851 105.539395,55.8240851" id="Fill-160" fill="#FFFFFF"></path>
                    <path d="M68.2961182,45.4713701 L64.3870273,45.4713701 C64.3870273,41.9206836 61.4962545,39.0289075 57.9468,39.0289075 L57.9468,35.1184597 C63.6540727,35.1184597 68.2961182,39.7621164 68.2961182,45.4713701" id="Fill-161" fill="#FFFFFF"></path>
                    <path d="M57.9469955,55.8240851 C52.2416773,55.8240851 47.5996318,51.1804284 47.5996318,45.4711746 C47.5996318,39.7619209 52.2416773,35.1182642 57.9469955,35.1182642 L57.9469955,39.0287119 C54.3975409,39.0287119 51.5087227,41.9204881 51.5087227,45.4711746 C51.5087227,49.0218612 54.3975409,51.9136373 57.9469955,51.9136373 C61.49645,51.9136373 64.3872227,49.0218612 64.3872227,45.4711746 L68.2963136,45.4711746 C68.2963136,51.1804284 63.6542682,55.8240851 57.9469955,55.8240851" id="Fill-162" fill="#FFFFFF"></path>
                    <path d="M165.126255,44.3774224 L161.217164,44.3774224 C161.217164,40.8267358 158.328345,37.9349597 154.778891,37.9349597 L154.778891,34.0245119 C160.484209,34.0245119 165.126255,38.6681687 165.126255,44.3774224" id="Fill-163" fill="#F48369"></path>
                    <path d="M154.779086,54.7301373 C149.071814,54.7301373 144.429768,50.0864806 144.429768,44.3772269 C144.429768,38.6679731 149.071814,34.0243164 154.779086,34.0243164 L154.779086,37.9347642 C151.229632,37.9347642 148.338859,40.8265403 148.338859,44.3772269 C148.338859,47.9279134 151.229632,50.8196896 154.779086,50.8196896 C158.328541,50.8196896 161.217359,47.9279134 161.217359,44.3772269 L165.12645,44.3772269 C165.12645,50.0864806 160.484405,54.7301373 154.779086,54.7301373" id="Fill-164" fill="#24516D"></path>
                    <path d="M107.192355,54.7301373 C101.485082,54.7301373 96.8430364,50.0864806 96.8430364,44.3772269 C96.8430364,38.6679731 101.485082,34.0243164 107.192355,34.0243164 L107.192355,37.9347642 C103.6429,37.9347642 100.752127,40.8265403 100.752127,44.3772269 C100.752127,47.9279134 103.6429,50.8196896 107.192355,50.8196896 L107.192355,54.7301373 Z" id="Fill-165" fill="#24516D"></path>
                    <path d="M107.192355,54.7301373 L107.192355,50.8196896 C110.741809,50.8196896 113.630627,47.9279134 113.630627,44.3772269 C113.630627,40.8265403 110.741809,37.9347642 107.192355,37.9347642 L107.192355,34.0243164 C112.897673,34.0243164 117.539718,38.6679731 117.539718,44.3772269 C117.539718,50.0864806 112.897673,54.7301373 107.192355,54.7301373" id="Fill-166" fill="#F48369"></path>
                    <path d="M59.5962409,54.7301373 C56.5334682,54.7301373 53.6426955,53.3849433 51.6686045,51.0347642 L54.6629682,48.518391 C55.8904227,49.9808985 57.6886045,50.8196896 59.5962409,50.8196896 C63.1456955,50.8196896 66.0345136,47.9279134 66.0345136,44.3772269 C66.0345136,40.8265403 63.1456955,37.9347642 59.5962409,37.9347642 L59.5962409,34.0243164 C65.3015591,34.0243164 69.9436045,38.6679731 69.9436045,44.3772269 C69.9436045,50.0864806 65.3015591,54.7301373 59.5962409,54.7301373" id="Fill-167" fill="#F48369"></path>
                    <path d="M51.6691909,51.0333955 C50.1075091,49.1720224 49.2475091,46.8081567 49.2475091,44.3778134 C49.2475091,38.6685597 53.8895545,34.024903 59.5968273,34.024903 L59.5968273,37.9353507 C56.0454182,37.9353507 53.1566,40.8251716 53.1566,44.3778134 C53.1566,45.8911567 53.6901909,47.3614851 54.6616,48.5209328 L51.6691909,51.0333955 Z" id="Fill-168" fill="#24516D"></path>
                </g>
            </g>
        </g>
    </g>
</svg>