<?xml version="1.0" encoding="UTF-8" standalone="no"?>
<svg width="168px" height="187px" viewBox="0 0 168 187" version="1.1" xmlns="http://www.w3.org/2000/svg" xmlns:xlink="http://www.w3.org/1999/xlink">
    <!-- Generator: Sketch 41.2 (35397) - http://www.bohemiancoding.com/sketch -->
    <title>Page 1</title>
    <desc>Created with Sketch.</desc>
    <defs>
        <polygon id="path-1" points="0 186.027907 167.741538 186.027907 167.741538 0.723851163 0 0.723851163"></polygon>
    </defs>
    <g id="Page-1" stroke="none" stroke-width="1" fill="none" fill-rule="evenodd">
        <g id="06---Autoridades-designadas-Copy-2" transform="translate(-969.000000, -870.000000)">
            <g id="Page-1" transform="translate(969.000000, 870.000000)">
                <polygon id="Fill-1" fill="#A0D9DE" points="0 170.71427 130.467692 170.71427 130.467692 0.972093023 0 0.972093023"></polygon>
                <polygon id="Fill-2" fill="#FFFFFF" points="14.3815385 28.2003163 84.9046154 28.2003163 84.9046154 21.3062326 14.3815385 21.3062326"></polygon>
                <g id="Group-31" transform="translate(0.000000, 0.248242)">
                    <path d="M41.0178462,93.5018623 C36.9064615,93.5018623 33.5630769,96.8393135 33.5630769,100.939295 C33.5630769,105.041118 36.9064615,108.376727 41.0178462,108.376727 C45.1292308,108.376727 48.4726154,105.041118 48.4726154,100.939295 C48.4726154,96.8393135 45.1292308,93.5018623 41.0178462,93.5018623 Z M41.0178462,115.744169 C32.8338462,115.744169 26.1784615,109.104262 26.1784615,100.939295 C26.1784615,92.7743274 32.8338462,86.1344205 41.0178462,86.1344205 C49.2018462,86.1344205 55.8572308,92.7743274 55.8572308,100.939295 C55.8572308,109.104262 49.2018462,115.744169 41.0178462,115.744169 Z" id="Fill-3" fill="#FFFFFF"></path>
                    <path d="M55.8574154,100.939479 L48.4728,100.939479 C48.4728,96.8376558 45.1275692,93.5020465 41.0180308,93.5020465 L41.0180308,86.1346047 C49.2020308,86.1346047 55.8574154,92.7745116 55.8574154,100.939479" id="Fill-5" fill="#FFFFFF"></path>
                    <mask id="mask-2" fill="white">
                        <use xlink:href="#path-1"></use>
                    </mask>
                    <g id="Clip-8"></g>
                    <polygon id="Fill-7" fill="#FFFFFF" mask="url(#mask-2)" points="21.4283077 153.725358 28.8129231 153.725358 28.8129231 138.200316 21.4283077 138.200316"></polygon>
                    <polygon id="Fill-9" fill="#FFFFFF" mask="url(#mask-2)" points="51.5907692 153.725358 58.9753846 153.725358 58.9753846 131.564093 51.5907692 131.564093"></polygon>
                    <polygon id="Fill-10" fill="#FFFFFF" mask="url(#mask-2)" points="31.4824615 153.725358 38.8670769 153.725358 38.8670769 133.490679 31.4824615 133.490679"></polygon>
                    <polygon id="Fill-11" fill="#FFFFFF" mask="url(#mask-2)" points="41.5347692 153.725358 48.9193846 153.725358 48.9193846 125.460167 41.5347692 125.460167"></polygon>
                    <polygon id="Fill-12" fill="#24516D" mask="url(#mask-2)" points="23.0584615 151.408298 30.4430769 151.408298 30.4430769 135.883256 23.0584615 135.883256"></polygon>
                    <polygon id="Fill-13" fill="#24516D" mask="url(#mask-2)" points="53.2209231 151.408298 60.6055385 151.408298 60.6055385 129.248874 53.2209231 129.248874"></polygon>
                    <polygon id="Fill-14" fill="#24516D" mask="url(#mask-2)" points="33.1144615 151.408298 40.4990769 151.408298 40.4990769 131.17546 33.1144615 131.17546"></polygon>
                    <polygon id="Fill-15" fill="#E95D35" mask="url(#mask-2)" points="43.1686154 151.408298 50.5532308 151.408298 50.5532308 123.144949 43.1686154 123.144949"></polygon>
                    <path d="M42.6982154,113.658078 C34.5142154,113.658078 27.8588308,107.018171 27.8588308,98.8532037 C27.8588308,90.6882363 34.5142154,84.0483293 42.6982154,84.0483293 L42.6982154,91.4157712 C38.5868308,91.4157712 35.2434462,94.7513805 35.2434462,98.8532037 C35.2434462,102.953185 38.5868308,106.290636 42.6982154,106.290636 C46.8096,106.290636 50.1529846,102.953185 50.1529846,98.8532037 L57.5376,98.8532037 C57.5376,107.018171 50.8822154,113.658078 42.6982154,113.658078" id="Fill-16" fill="#24516D" mask="url(#mask-2)"></path>
                    <path d="M57.5377846,98.8530195 L50.1531692,98.8530195 C50.1531692,94.7511963 46.8079385,91.415587 42.6984,91.415587 L42.6984,84.0481451 C50.8824,84.0481451 57.5377846,90.6880521 57.5377846,98.8530195" id="Fill-17" fill="#E95D35" mask="url(#mask-2)"></path>
                    <polygon id="Fill-18" fill="#24516D" mask="url(#mask-2)" points="15.816 42.7164279 114.655385 42.7164279 114.655385 39.270307 15.816 39.270307"></polygon>
                    <polygon id="Fill-19" fill="#24516D" mask="url(#mask-2)" points="15.816 50.8519256 114.655385 50.8519256 114.655385 47.4058047 15.816 47.4058047"></polygon>
                    <polygon id="Fill-20" fill="#24516D" mask="url(#mask-2)" points="15.816 58.9874233 114.655385 58.9874233 114.655385 55.5413023 15.816 55.5413023"></polygon>
                    <polygon id="Fill-21" fill="#24516D" mask="url(#mask-2)" points="15.816 67.1229209 114.655385 67.1229209 114.655385 63.6749581 15.816 63.6749581"></polygon>
                    <polygon id="Fill-22" fill="#24516D" mask="url(#mask-2)" points="15.816 75.2584186 114.655385 75.2584186 114.655385 71.8104558 15.816 71.8104558"></polygon>
                    <polygon id="Fill-23" fill="#24516D" mask="url(#mask-2)" points="15.816 26.2833488 86.3390769 26.2833488 86.3390769 19.3874233 15.816 19.3874233"></polygon>
                    <path d="M166.976492,175.824368 L140.264492,140.646675 L133.679262,145.625224 L139.459569,141.256331 L136.625723,137.524722 L135.658338,138.25594 L130.937723,132.03782 C136.263877,126.221224 139.513108,118.479885 139.513108,109.98154 C139.513108,91.9128893 124.834338,77.2682567 106.725415,77.2682567 C88.6164923,77.2682567 73.9377231,91.9128893 73.9377231,109.98154 C73.9377231,128.04835 88.6164923,142.692982 106.725415,142.692982 C111.959262,142.692982 116.903262,141.464461 121.291569,139.287382 L126.032492,145.531289 L128.2608,143.847829 L125.065108,146.260666 L127.898954,149.994117 L127.092185,150.603773 L153.804185,185.779624 C154.4688,186.65635 157.956185,185.136815 161.594954,182.386917 C165.231877,179.63702 167.641108,176.701094 166.976492,175.824368" id="Fill-24" fill="#FFFFFF" mask="url(#mask-2)"></path>
                    <g id="Group-30" mask="url(#mask-2)">
                        <g transform="translate(73.846154, 73.674419)">
                            <path d="M33.5340923,0.514984186 C15.4251692,0.514984186 0.744553846,15.1614586 0.744553846,33.2282679 C0.744553846,51.2950772 15.4251692,65.9397098 33.5340923,65.9397098 C38.7679385,65.9397098 43.7119385,64.7111888 48.1002462,62.5359516 C51.7537846,60.7235609 55.0233231,58.2591516 57.7445538,55.284547 C63.0725538,49.4679516 66.3236308,41.728454 66.3236308,33.2282679 C66.3236308,15.1614586 51.6430154,0.514984186 33.5340923,0.514984186" id="Fill-25" fill="#E95D35"></path>
                            <path d="M62.8761231,33.2277153 C62.8761231,17.061706 49.7388923,3.95318512 33.5333538,3.95318512 C17.3278154,3.95318512 4.19243077,17.061706 4.19243077,33.2277153 C4.19243077,49.3955665 17.3278154,62.5022456 33.5333538,62.5022456 C49.7388923,62.5022456 62.8761231,49.3955665 62.8761231,33.2277153" id="Fill-26" fill="#FFFFFF"></path>
                            <polygon id="Fill-27" fill="#FAC6BE" points="66.2673231 64.503427 54.7067077 73.241213 51.8728615 69.5096037 63.4334769 60.7736595"></polygon>
                            <path d="M48.0996923,62.5355833 L52.8406154,68.7794902 L62.4664615,61.5022995 L57.7458462,55.2841786 C55.0227692,58.2587833 51.7532308,60.7250344 48.0996923,62.5355833" id="Fill-28" fill="#F48369"></path>
                            <path d="M53.9012308,73.8512372 L80.6132308,109.02893 C81.276,109.901972 84.7652308,108.384279 88.4021538,105.636223 C92.0390769,102.886326 94.4501538,99.9467163 93.7855385,99.0718326 L67.0753846,63.8959814 L53.9012308,73.8512372 Z" id="Fill-29" fill="#E95D35"></path>
                        </g>
                    </g>
                </g>
            </g>
        </g>
    </g>
</svg>