<?xml version="1.0" encoding="UTF-8" standalone="no"?>
<svg width="124px" height="96px" viewBox="0 0 124 96" version="1.1" xmlns="http://www.w3.org/2000/svg" xmlns:xlink="http://www.w3.org/1999/xlink">
    <!-- Generator: Sketch 41.2 (35397) - http://www.bohemiancoding.com/sketch -->
    <title>Page 1</title>
    <desc>Created with Sketch.</desc>
    <defs>
        <polygon id="path-1" points="1.06699261e-19 0.0721897719 1.06699261e-19 56.4845557 55.9940698 56.4845557 55.9940698 0.0721897719 0 0.0721897719"></polygon>
        <polygon id="path-3" points="0.316101587 56.4847539 56.3109587 56.4847539 56.3109587 0.0735773349 0.316101587 0.0735773349 0.316101587 56.4847539"></polygon>
        <polygon id="path-5" points="0 95.3032451 123.232381 95.3032451 123.232381 0.851830012 0 0.851830012"></polygon>
    </defs>
    <g id="Page-1" stroke="none" stroke-width="1" fill="none" fill-rule="evenodd">
        <g id="06---Autoridades-designadas-Copy-2" transform="translate(-238.000000, -587.000000)">
            <g id="Page-1" transform="translate(238.000000, 587.000000)">
                <path d="M49.0980952,15.8846878 C49.7987937,14.4812669 50.2298413,12.9192674 50.2298413,11.2422984 C50.2298413,5.5057164 45.6123175,0.853415798 39.912254,0.853415798 C34.3814603,0.853415798 29.907619,5.24207942 29.643873,10.7447579 C31.5097778,10.0807099 33.503619,9.68426334 35.5978413,9.68426334 C40.9888889,9.68426334 45.8111111,12.0906941 49.0980952,15.8846878 Z" id="Fill-1" fill="#F28269"></path>
                <path d="M28.0066794,38.8914739 C42.0206476,38.8914739 53.633346,49.2585519 55.6882032,62.7952204 L53.4621079,26.2587037 L53.5270603,27.7394316 C53.5270603,23.1981361 51.8481397,19.0572516 49.0984889,15.8856789 C45.8115048,12.089703 40.9892825,9.68525445 35.5962667,9.68525445 C33.5040127,9.68525445 31.5101714,10.081701 29.6442667,10.7457491 C25.609346,12.1789034 22.2239492,14.9897097 20.0982349,18.6588228 L20.1100444,18.6647695 L3.1496,54.1070936 C7.81633016,45.0681116 17.1930921,38.8914739 28.0066794,38.8914739" id="Fill-3" fill="#093451"></path>
                <polygon id="Fill-5" fill="#062739" points="55.9946603 67.8158198 55.9946603 67.8633934 55.9985968 67.8653757"></polygon>
                <path d="M56.0139492,67.0976569 C56.0139492,65.634769 55.9017587,64.1956679 55.6891873,62.7942292 L55.9942667,67.8152252 C56.0001714,67.5773572 56.0139492,67.3394893 56.0139492,67.0976569" id="Fill-7" fill="#10BAC1"></path>
                <g id="Group-11" transform="translate(0.000000, 38.818491)">
                    <mask id="mask-2" fill="white">
                        <use xlink:href="#path-1"></use>
                    </mask>
                    <g id="Clip-10"></g>
                    <path d="M55.6889905,23.9759362 C53.6321651,10.44125 42.0214349,0.0721897719 28.0074667,0.0721897719 C17.1919111,0.0721897719 7.81711746,6.2508097 3.1503873,15.2878095 C2.89254603,15.7853499 2.65241905,16.2928015 2.42410159,16.8061999 L2.42213333,16.8121466 C0.867212698,20.3147521 -0.000787301587,24.1939818 -0.000787301587,28.2793638 C-0.000787301587,43.8557499 12.5389587,56.4845557 28.0074667,56.4845557 C43.2181333,56.4845557 55.5886095,44.2680544 55.9940698,29.046488 L55.9940698,29.0147722 L55.6889905,23.9759362 Z" id="Fill-9" fill="#10BAC1" mask="url(#mask-2)"></path>
                </g>
                <path d="M95.8518032,11.7285401 C95.8596762,11.5640148 95.8990413,11.4094006 95.8990413,11.2428931 C95.8990413,5.50432884 91.2815175,0.854010468 85.581454,0.854010468 C79.8833587,0.854010468 75.2618984,5.50432884 75.2618984,11.2428931 C75.2618984,12.2934765 75.4646286,13.2885574 75.7519937,14.2459759 C78.916946,11.4173296 83.0699619,9.68485801 87.6343429,9.68485801 C90.6024698,9.68485801 93.385581,10.4440532 95.8518032,11.7285401" id="Fill-12" fill="#F28269"></path>
                <polygon id="Fill-14" fill="#062739" points="67.2333905 67.8659703 67.237327 67.8639881 67.237327 67.8144323"></polygon>
                <path d="M95.2251111,38.8914739 C106.038698,38.8914739 115.413492,45.0661294 120.080222,54.1051114 L103.121746,18.6647695 L103.133556,18.6588228 C101.419206,15.7013313 98.8781905,13.3087762 95.8510159,11.7289366 C93.3847937,10.4424674 90.6016825,9.68525445 87.6355238,9.68525445 C83.0691746,9.68525445 78.9161587,11.417726 75.7512063,14.2443901 C72.0508889,17.5507546 69.7047302,22.3655983 69.7047302,27.7394316 L69.7696825,26.2587037 L67.5435873,62.7952204 C69.5984444,49.2585519 81.2111429,38.8914739 95.2251111,38.8914739" id="Fill-16" fill="#093451"></path>
                <path d="M67.2178413,67.0976569 C67.2178413,67.337507 67.231619,67.575375 67.2375238,67.8132429 L67.5426032,62.7942292 C67.3300317,64.1976501 67.2178413,65.634769 67.2178413,67.0976569" id="Fill-18" fill="#10BAC1"></path>
                <g id="Group-22" transform="translate(66.920635, 38.818491)">
                    <mask id="mask-4" fill="white">
                        <use xlink:href="#path-3"></use>
                    </mask>
                    <g id="Clip-21"></g>
                    <path d="M53.8900063,16.8115519 L53.8900063,16.8115519 L53.8880381,16.8075874 C53.6597206,16.2922069 53.4176254,15.782773 53.1597841,15.2852326 C48.493054,6.2482328 39.1182603,0.0735773349 28.304673,0.0735773349 C14.2907048,0.0735773349 2.67800635,10.4406554 0.623149206,23.9753416 L0.316101587,28.9943552 L0.316101587,29.0458933 C0.721561905,44.2694419 13.0920381,56.4859432 28.304673,56.4859432 C43.7712127,56.4859432 56.3109587,43.8571375 56.3109587,28.2787692 C56.3109587,24.1953694 55.4429587,20.3161396 53.8900063,16.8115519" id="Fill-20" fill="#10BAC1" mask="url(#mask-4)"></path>
                </g>
                <path d="M50.2302349,67.0976569 C50.2302349,54.7364525 40.2807111,44.7162653 28.0066794,44.7162653 C15.7326476,44.7162653 5.78312381,54.7364525 5.78312381,67.0976569 C5.78312381,79.4588612 15.7326476,89.4790485 28.0066794,89.4790485 C40.2807111,89.4790485 50.2302349,79.4588612 50.2302349,67.0976569" id="Fill-23" fill="#FFFFFF"></path>
                <path d="M73.0015556,67.0976569 C73.0015556,54.7364525 82.9510794,44.7162653 95.2251111,44.7162653 C107.499143,44.7162653 117.448667,54.7364525 117.448667,67.0976569 C117.448667,79.4588612 107.499143,89.4790485 95.2251111,89.4790485 C82.9510794,89.4790485 73.0015556,79.4588612 73.0015556,67.0976569" id="Fill-25" fill="#FFFFFF"></path>
                <mask id="mask-6" fill="white">
                    <use xlink:href="#path-5"></use>
                </mask>
                <g id="Clip-28"></g>
                <polygon id="Fill-27" fill="#093451" mask="url(#mask-6)" points="50.2298413 41.0951222 73.3312381 41.0951222 73.3312381 27.185794 50.2298413 27.185794"></polygon>
                <polygon id="Fill-29" fill="#10BAC1" mask="url(#mask-6)" points="50.2302349 46.3091876 73.3316317 46.3091876 72.2274413 41.0939329 51.3363937 41.0939329"></polygon>
            </g>
        </g>
    </g>
</svg>