<?xml version="1.0" encoding="UTF-8" standalone="no"?>
<svg width="563px" height="345px" viewBox="0 0 563 345" version="1.1" xmlns="http://www.w3.org/2000/svg" xmlns:xlink="http://www.w3.org/1999/xlink">
    <!-- Generator: Sketch 3.8.2 (29753) - http://www.bohemiancoding.com/sketch -->
    <title>Group 3</title>
    <desc>Created with Sketch.</desc>
    <defs>
        <polygon id="path-1" points="78.7215073 249.092308 0 249.092308 0 0.351892308 78.7215073 0.351892308 157.443015 0.351892308 157.443015 249.092308 78.7215073 249.092308"></polygon>
        <polygon id="path-3" points="62.4460887 175.226554 62.4460887 0.4112 0.972084677 0.4112 0.972084677 175.226554 62.4460887 175.226554"></polygon>
        <polygon id="path-5" points="0 250.058364 320.09125 250.058364 320.09125 1.31794872 0 1.31794872"></polygon>
        <polygon id="path-7" points="12.9862385 0.00209575881 0.615461538 0.00209575881 0.615461538 335.213348 12.9862385 335.213348 12.9862385 0.00209575881"></polygon>
        <polygon id="path-9" points="0 335.400911 377.090354 335.400911 377.090354 0.189072716 0 0.189072716"></polygon>
        <polygon id="path-11" points="12.9862385 0.00209575881 0.615461538 0.00209575881 0.615461538 335.213348 12.9862385 335.213348 12.9862385 0.00209575881"></polygon>
        <polygon id="path-13" points="0 335.400911 377.090354 335.400911 377.090354 0.189072716 0 0.189072716"></polygon>
        <polygon id="path-15" points="12.9862385 0.00209575881 0.615461538 0.00209575881 0.615461538 335.213348 12.9862385 335.213348 12.9862385 0.00209575881"></polygon>
        <polygon id="path-17" points="0 335.400911 377.090354 335.400911 377.090354 0.189072716 0 0.189072716"></polygon>
    </defs>
    <g id="Page-1" stroke="none" stroke-width="1" fill="none" fill-rule="evenodd">
        <g id="06---Autoridades-designadas-Copy" transform="translate(-717.000000, -148.000000)">
            <g id="Group-3" transform="translate(717.000000, 148.000000)">
                <g id="Group-8" transform="translate(0.000000, 88.000000)">
                    <polygon id="Page-1-Copy" fill="#EF5630" points="5.25806452 250.058364 325.349315 250.058364 325.349315 1.31794872 5.25806452 1.31794872"></polygon>
                    <polygon id="Page-1-Copy-2" fill="#FFFFFF" points="0 256.648108 320.09125 256.648108 320.09125 7.90769231 0 7.90769231"></polygon>
                    <g id="Page-1-Copy-3" style="mix-blend-mode: multiply;" transform="translate(5.258065, 0.000000)">
                        <path d="M253.412419,151.972667 L253.412419,99.4023282 C246.566419,106.408544 242.728032,115.727759 242.728032,125.687497 C242.728032,135.649872 246.566419,144.967769 253.412419,151.972667 L253.412419,151.972667 Z" id="Fill-1" fill="#1AC0A4"></path>
                        <path d="M122.533935,125.687497 C122.533935,145.570072 137.962411,161.870462 157.442226,163.275395 L157.442226,88.1022359 C137.962411,89.5071692 122.533935,105.804923 122.533935,125.687497" id="Fill-3" fill="#1AC0A4"></path>
                        <path d="M66.9083452,99.4021964 L66.9083452,151.972535 C73.7543452,144.966319 77.5927323,135.647104 77.5927323,125.687366 C77.5927323,115.727627 73.7543452,106.40973 66.9083452,99.4021964" id="Fill-5" fill="#1AC0A4"></path>
                        <path d="M197.786698,125.687497 C197.786698,105.727164 182.234657,89.3846 162.647052,88.0903744 L162.647052,163.287256 C182.234657,161.993031 197.786698,145.647831 197.786698,125.687497" id="Fill-7" fill="#1AC0A4"></path>
                        <polygon id="Fill-9" fill="#1AC0A4" points="19.1990339 86.2237636 0.000525806452 86.2237636 0.000525806452 165.150441 19.1990339 165.150441"></polygon>
                        <g id="Group-13" transform="translate(0.000000, 0.966056)">
                            <mask id="mask-2" fill="white">
                                <use xlink:href="#path-1"></use>
                            </mask>
                            <g id="Clip-12"></g>
                            <path d="M117.32924,124.721441 C117.32924,101.961785 135.092297,83.3338974 157.443015,81.9184205 L157.443015,0.351892308 L-0.000525806452,0.351892308 L-0.000525806452,32.0960051 L64.3056032,32.0960051 C65.7449984,32.0960051 66.9083452,33.2637077 66.9083452,34.7055436 L66.9083452,91.466959 C76.9959419,99.6764615 82.7969016,111.697472 82.7969016,124.721441 C82.7969016,137.74541 76.9959419,149.765103 66.9083452,157.975923 L66.9083452,214.737338 C66.9083452,216.179174 65.7449984,217.346877 64.3056032,217.346877 L-0.000525806452,217.346877 L-0.000525806452,249.092308 L157.443015,249.092308 L157.443015,167.527097 C135.092297,166.111621 117.32924,147.481097 117.32924,124.721441" id="Fill-11" fill="#1AC0A4" mask="url(#mask-2)"></path>
                        </g>
                        <g id="Group-16" transform="translate(257.645161, 37.868621)">
                            <mask id="mask-4" fill="white">
                                <use xlink:href="#path-3"></use>
                            </mask>
                            <g id="Clip-15"></g>
                            <path d="M0.972084677,55.7597744 L0.972084677,119.877979 L0.972084677,175.226554 L62.446746,175.226554 L62.446746,132.501292 L40.8742218,132.501292 C39.4361411,132.501292 38.2714798,131.33359 38.2714798,129.891754 L38.2714798,45.746 C38.2714798,44.3041641 39.4361411,43.1364615 40.8742218,43.1364615 L62.446746,43.1364615 L62.446746,0.4112 L0.972084677,0.4112 L0.972084677,55.7597744 Z" id="Fill-14" fill="#1AC0A4" mask="url(#mask-4)"></path>
                        </g>
                        <mask id="mask-6" fill="white">
                            <use xlink:href="#path-5"></use>
                        </mask>
                        <g id="Clip-18"></g>
                        <polygon id="Fill-17" fill="#1AC0A4" mask="url(#mask-6)" points="301.121468 165.150836 320.09125 165.150836 320.09125 86.224159 301.121468 86.224159"></polygon>
                        <path d="M61.7035185,157.7466 L61.7035185,93.6283949 L61.7035185,38.2798205 L0.000131451613,38.2798205 L0.000131451613,81.0050821 L21.8013815,81.0050821 C23.2394621,81.0050821 24.4041234,82.1727846 24.4041234,83.6146205 L24.4041234,167.760374 C24.4041234,169.20221 23.2394621,170.369913 21.8013815,170.369913 L0.000131451613,170.369913 L0.000131451613,213.095174 L61.7035185,213.095174 L61.7035185,157.7466 Z" id="Fill-19" fill="#1AC0A4" mask="url(#mask-6)"></path>
                        <path d="M202.991524,125.687497 C202.991524,148.523595 185.104903,167.201564 162.64771,168.505015 L162.64771,250.058364 L320.09125,250.058364 L320.09125,218.312933 L256.015161,218.312933 C254.577081,218.312933 253.412419,217.145231 253.412419,215.703395 L253.412419,158.941979 C243.324823,150.735113 237.523863,138.714103 237.523863,125.687497 C237.523863,112.663528 243.324823,100.642518 253.412419,92.4330154 L253.412419,35.6716 C253.412419,34.2297641 254.577081,33.0620615 256.015161,33.0620615 L320.09125,33.0620615 L320.09125,1.31794872 L162.64771,1.31794872 L162.64771,82.8712974 C185.104903,84.1747487 202.991524,102.8514 202.991524,125.687497" id="Fill-20" fill="#1AC0A4" mask="url(#mask-6)"></path>
                    </g>
                </g>
                <g id="Group-10" transform="translate(206.000000, 0.000000)">
                    <g id="Page-1" transform="translate(2.930769, 0.000000)">
                        <path d="M377.090061,292.788199 L281.192361,292.788199 C281.192361,292.788199 266.755392,316.039058 234.015768,316.039058 L192.771053,316.039058 L192.771053,244.221756 L377.090061,215.087162 L377.090061,292.788199 L377.090061,292.788199 Z" id="Fill-1" fill="#EF5630"></path>
                        <path d="M377.090061,215.085991 L284.929092,215.085991 C269.463422,200.565553 239.267707,175.900138 229.130176,160.834964 C222.764545,151.375299 216.466322,121.608109 216.466322,121.608109 C204.76083,121.608109 195.144976,132.57019 195.144976,143.344835 C195.144976,151.984467 195.786815,158.369008 202.298984,170.651928 C206.879776,179.291559 214.244799,184.334761 214.244799,193.811997 C214.244799,200.266827 212.026207,206.001199 202.187615,206.001199 L195.816122,206.001199 L195.816122,249.410221 L377.090061,249.410221" id="Fill-3" fill="#EF5630"></path>
                        <path d="M152.770742,251.571008 C152.770742,243.965203 160.112319,237.800314 169.168396,237.800314 L208.100735,237.800314 C217.156812,237.800314 224.495458,243.965203 224.495458,251.571008 C224.495458,259.176812 217.156812,265.341701 208.100735,265.341701 L169.168396,265.341701 C160.112319,265.341701 152.770742,259.176812 152.770742,251.571008" id="Fill-5" fill="#EF5630"></path>
                        <path d="M168.652581,292.630636 C161.111712,292.630636 154.998127,286.521392 154.998127,278.985876 C154.998127,271.45036 161.111712,265.341116 168.652581,265.341116 L209.135296,265.341116 L209.135296,265.455334 C209.516296,265.423119 209.882642,265.341116 210.269504,265.341116 C217.810373,265.341116 223.923958,271.45036 223.923958,278.985876 C223.923958,286.521392 217.810373,292.630636 210.269504,292.630636 C209.882642,292.630636 209.516296,292.548633 209.135296,292.516417 L209.135296,292.630636 L168.652581,292.630636 Z" id="Fill-7" fill="#EF5630"></path>
                        <path d="M161.47923,305.41524 C161.47923,298.354172 167.205953,292.631515 174.272038,292.631515 L209.136468,292.631515 C216.202553,292.631515 221.932207,298.354172 221.932207,305.41524 C221.932207,312.476308 216.202553,318.198966 209.136468,318.198966 L174.272038,318.198966 C167.205953,318.198966 161.47923,312.476308 161.47923,305.41524" id="Fill-9" fill="#EF5630"></path>
                        <path d="M201.741552,208.1614 C209.933052,208.1614 216.571244,214.797808 216.571244,222.980564 C216.571244,231.166249 211.498082,237.799728 201.741552,237.799728 L193.980875,237.799728 L159.409521,237.799728 C151.218021,237.799728 144.579828,231.166249 144.579828,222.980564 C144.579828,214.797808 151.218021,208.1614 159.409521,208.1614 L199.024728,208.1614 L201.741552,208.1614 Z" id="Fill-11" fill="#EF5630"></path>
                        <g id="Group-15" transform="translate(181.707692, 0.186977)">
                            <mask id="mask-8" fill="white">
                                <use xlink:href="#path-7"></use>
                            </mask>
                            <g id="Clip-14"></g>
                            <polygon id="Fill-13" fill="#EF5630" mask="url(#mask-8)" points="0.615461538 0.00151002109 12.9862385 0.00151002109 12.9862385 335.213348 0.615461538 335.213348"></polygon>
                        </g>
                        <polygon id="Fill-16" fill="#EF5630" points="0 129.523475 182.323154 129.523475 182.323154 0.189658454 0 0.189658454"></polygon>
                        <mask id="mask-10" fill="white">
                            <use xlink:href="#path-9"></use>
                        </mask>
                        <g id="Clip-19"></g>
                        <polygon id="Fill-18" fill="#EF5630" mask="url(#mask-10)" points="91.1615769 64.8574454 182.323154 64.8574454 182.323154 0.189072716 91.1615769 0.189072716"></polygon>
                        <polygon id="Fill-20" fill="#EF5630" mask="url(#mask-10)" points="0 129.523475 91.1615769 129.523475 91.1615769 64.8551025 0 64.8551025"></polygon>
                        <path d="M149.563015,249.410221 C149.563015,241.804417 156.904592,235.639527 165.960669,235.639527 L204.893008,235.639527 C213.949085,235.639527 221.287731,241.804417 221.287731,249.410221 C221.287731,257.016025 213.949085,263.180915 204.893008,263.180915 L165.960669,263.180915 C156.904592,263.180915 149.563015,257.016025 149.563015,249.410221" id="Fill-21" fill="#EF5630" mask="url(#mask-10)"></path>
                        <path d="M165.444854,290.469849 C157.903985,290.469849 151.7904,284.360605 151.7904,276.825089 C151.7904,269.289574 157.903985,263.180329 165.444854,263.180329 L205.927569,263.180329 L205.927569,263.294548 C206.308569,263.262332 206.674915,263.180329 207.061777,263.180329 C214.602646,263.180329 220.716231,269.289574 220.716231,276.825089 C220.716231,284.360605 214.602646,290.469849 207.061777,290.469849 C206.674915,290.469849 206.308569,290.387846 205.927569,290.355631 L205.927569,290.469849 L165.444854,290.469849 Z" id="Fill-22" fill="#EF5630" mask="url(#mask-10)"></path>
                        <path d="M158.271503,303.254454 C158.271503,296.193386 163.998226,290.470728 171.064311,290.470728 L205.928742,290.470728 C212.994826,290.470728 218.72448,296.193386 218.72448,303.254454 C218.72448,310.315522 212.994826,316.038179 205.928742,316.038179 L171.064311,316.038179 C163.998226,316.038179 158.271503,310.315522 158.271503,303.254454" id="Fill-23" fill="#EF5630" mask="url(#mask-10)"></path>
                        <path d="M198.533532,206.000613 C206.725032,206.000613 213.363224,212.637022 213.363224,220.819777 C213.363224,229.005462 208.290062,235.638942 198.533532,235.638942 L190.772855,235.638942 L156.201501,235.638942 C148.010001,235.638942 141.371808,229.005462 141.371808,220.819777 C141.371808,212.637022 148.010001,206.000613 156.201501,206.000613 L195.816708,206.000613 L198.533532,206.000613 Z" id="Fill-24" fill="#EF5630" mask="url(#mask-10)"></path>
                    </g>
                    <g id="Page-1" transform="translate(0.000000, 5.857377)">
                        <path d="M377.090061,292.788199 L281.192361,292.788199 C281.192361,292.788199 266.755392,316.039058 234.015768,316.039058 L192.771053,316.039058 L192.771053,244.221756 L377.090061,215.087162 L377.090061,292.788199 L377.090061,292.788199 Z" id="Fill-1" fill="#FFFFFF"></path>
                        <path d="M377.090061,215.085991 L284.929092,215.085991 C269.463422,200.565553 239.267707,175.900138 229.130176,160.834964 C222.764545,151.375299 216.466322,121.608109 216.466322,121.608109 C204.76083,121.608109 195.144976,132.57019 195.144976,143.344835 C195.144976,151.984467 195.786815,158.369008 202.298984,170.651928 C206.879776,179.291559 214.244799,184.334761 214.244799,193.811997 C214.244799,200.266827 212.026207,206.001199 202.187615,206.001199 L195.816122,206.001199 L195.816122,249.410221 L377.090061,249.410221" id="Fill-3" fill="#FFFFFF"></path>
                        <path d="M152.770742,251.571008 C152.770742,243.965203 160.112319,237.800314 169.168396,237.800314 L208.100735,237.800314 C217.156812,237.800314 224.495458,243.965203 224.495458,251.571008 C224.495458,259.176812 217.156812,265.341701 208.100735,265.341701 L169.168396,265.341701 C160.112319,265.341701 152.770742,259.176812 152.770742,251.571008" id="Fill-5" fill="#FFFFFF"></path>
                        <path d="M168.652581,292.630636 C161.111712,292.630636 154.998127,286.521392 154.998127,278.985876 C154.998127,271.45036 161.111712,265.341116 168.652581,265.341116 L209.135296,265.341116 L209.135296,265.455334 C209.516296,265.423119 209.882642,265.341116 210.269504,265.341116 C217.810373,265.341116 223.923958,271.45036 223.923958,278.985876 C223.923958,286.521392 217.810373,292.630636 210.269504,292.630636 C209.882642,292.630636 209.516296,292.548633 209.135296,292.516417 L209.135296,292.630636 L168.652581,292.630636 Z" id="Fill-7" fill="#FFFFFF"></path>
                        <path d="M161.47923,305.41524 C161.47923,298.354172 167.205953,292.631515 174.272038,292.631515 L209.136468,292.631515 C216.202553,292.631515 221.932207,298.354172 221.932207,305.41524 C221.932207,312.476308 216.202553,318.198966 209.136468,318.198966 L174.272038,318.198966 C167.205953,318.198966 161.47923,312.476308 161.47923,305.41524" id="Fill-9" fill="#FFFFFF"></path>
                        <path d="M201.741552,208.1614 C209.933052,208.1614 216.571244,214.797808 216.571244,222.980564 C216.571244,231.166249 211.498082,237.799728 201.741552,237.799728 L193.980875,237.799728 L159.409521,237.799728 C151.218021,237.799728 144.579828,231.166249 144.579828,222.980564 C144.579828,214.797808 151.218021,208.1614 159.409521,208.1614 L199.024728,208.1614 L201.741552,208.1614 Z" id="Fill-11" fill="#FFFFFF"></path>
                        <g id="Group-15" transform="translate(181.707692, 0.186977)">
                            <mask id="mask-12" fill="white">
                                <use xlink:href="#path-11"></use>
                            </mask>
                            <g id="Clip-14"></g>
                            <polygon id="Fill-13" fill="#FFFFFF" mask="url(#mask-12)" points="0.615461538 0.00151002109 12.9862385 0.00151002109 12.9862385 335.213348 0.615461538 335.213348"></polygon>
                        </g>
                        <polygon id="Fill-16" fill="#FFFFFF" points="0 129.523475 182.323154 129.523475 182.323154 0.189658454 0 0.189658454"></polygon>
                        <mask id="mask-14" fill="white">
                            <use xlink:href="#path-13"></use>
                        </mask>
                        <g id="Clip-19"></g>
                        <polygon id="Fill-18" fill="#FFFFFF" mask="url(#mask-14)" points="91.1615769 64.8574454 182.323154 64.8574454 182.323154 0.189072716 91.1615769 0.189072716"></polygon>
                        <polygon id="Fill-20" fill="#FFFFFF" mask="url(#mask-14)" points="0 129.523475 91.1615769 129.523475 91.1615769 64.8551025 0 64.8551025"></polygon>
                        <path d="M149.563015,249.410221 C149.563015,241.804417 156.904592,235.639527 165.960669,235.639527 L204.893008,235.639527 C213.949085,235.639527 221.287731,241.804417 221.287731,249.410221 C221.287731,257.016025 213.949085,263.180915 204.893008,263.180915 L165.960669,263.180915 C156.904592,263.180915 149.563015,257.016025 149.563015,249.410221" id="Fill-21" fill="#FFFFFF" mask="url(#mask-14)"></path>
                        <path d="M165.444854,290.469849 C157.903985,290.469849 151.7904,284.360605 151.7904,276.825089 C151.7904,269.289574 157.903985,263.180329 165.444854,263.180329 L205.927569,263.180329 L205.927569,263.294548 C206.308569,263.262332 206.674915,263.180329 207.061777,263.180329 C214.602646,263.180329 220.716231,269.289574 220.716231,276.825089 C220.716231,284.360605 214.602646,290.469849 207.061777,290.469849 C206.674915,290.469849 206.308569,290.387846 205.927569,290.355631 L205.927569,290.469849 L165.444854,290.469849 Z" id="Fill-22" fill="#FFFFFF" mask="url(#mask-14)"></path>
                        <path d="M158.271503,303.254454 C158.271503,296.193386 163.998226,290.470728 171.064311,290.470728 L205.928742,290.470728 C212.994826,290.470728 218.72448,296.193386 218.72448,303.254454 C218.72448,310.315522 212.994826,316.038179 205.928742,316.038179 L171.064311,316.038179 C163.998226,316.038179 158.271503,310.315522 158.271503,303.254454" id="Fill-23" fill="#FFFFFF" mask="url(#mask-14)"></path>
                        <path d="M198.533532,206.000613 C206.725032,206.000613 213.363224,212.637022 213.363224,220.819777 C213.363224,229.005462 208.290062,235.638942 198.533532,235.638942 L190.772855,235.638942 L156.201501,235.638942 C148.010001,235.638942 141.371808,229.005462 141.371808,220.819777 C141.371808,212.637022 148.010001,206.000613 156.201501,206.000613 L195.816708,206.000613 L198.533532,206.000613 Z" id="Fill-24" fill="#FFFFFF" mask="url(#mask-14)"></path>
                    </g>
                    <g id="Page-1" style="mix-blend-mode: multiply;" transform="translate(2.930769, 0.000000)">
                        <path d="M377.090061,292.788199 L281.192361,292.788199 C281.192361,292.788199 266.755392,316.039058 234.015768,316.039058 L192.771053,316.039058 L192.771053,244.221756 L377.090061,215.087162 L377.090061,292.788199 L377.090061,292.788199 Z" id="Fill-1" fill="#F9BAA9"></path>
                        <path d="M377.090061,215.085991 L284.929092,215.085991 C269.463422,200.565553 239.267707,175.900138 229.130176,160.834964 C222.764545,151.375299 216.466322,121.608109 216.466322,121.608109 C204.76083,121.608109 195.144976,132.57019 195.144976,143.344835 C195.144976,151.984467 195.786815,158.369008 202.298984,170.651928 C206.879776,179.291559 214.244799,184.334761 214.244799,193.811997 C214.244799,200.266827 212.026207,206.001199 202.187615,206.001199 L195.816122,206.001199 L195.816122,249.410221 L377.090061,249.410221" id="Fill-3" fill="#F9BAA9"></path>
                        <path d="M152.770742,251.571008 C152.770742,243.965203 160.112319,237.800314 169.168396,237.800314 L208.100735,237.800314 C217.156812,237.800314 224.495458,243.965203 224.495458,251.571008 C224.495458,259.176812 217.156812,265.341701 208.100735,265.341701 L169.168396,265.341701 C160.112319,265.341701 152.770742,259.176812 152.770742,251.571008" id="Fill-5" fill="#FFFFFF"></path>
                        <path d="M168.652581,292.630636 C161.111712,292.630636 154.998127,286.521392 154.998127,278.985876 C154.998127,271.45036 161.111712,265.341116 168.652581,265.341116 L209.135296,265.341116 L209.135296,265.455334 C209.516296,265.423119 209.882642,265.341116 210.269504,265.341116 C217.810373,265.341116 223.923958,271.45036 223.923958,278.985876 C223.923958,286.521392 217.810373,292.630636 210.269504,292.630636 C209.882642,292.630636 209.516296,292.548633 209.135296,292.516417 L209.135296,292.630636 L168.652581,292.630636 Z" id="Fill-7" fill="#FFFFFF"></path>
                        <path d="M161.47923,305.41524 C161.47923,298.354172 167.205953,292.631515 174.272038,292.631515 L209.136468,292.631515 C216.202553,292.631515 221.932207,298.354172 221.932207,305.41524 C221.932207,312.476308 216.202553,318.198966 209.136468,318.198966 L174.272038,318.198966 C167.205953,318.198966 161.47923,312.476308 161.47923,305.41524" id="Fill-9" fill="#FFFFFF"></path>
                        <path d="M201.741552,208.1614 C209.933052,208.1614 216.571244,214.797808 216.571244,222.980564 C216.571244,231.166249 211.498082,237.799728 201.741552,237.799728 L193.980875,237.799728 L159.409521,237.799728 C151.218021,237.799728 144.579828,231.166249 144.579828,222.980564 C144.579828,214.797808 151.218021,208.1614 159.409521,208.1614 L199.024728,208.1614 L201.741552,208.1614 Z" id="Fill-11" fill="#FFFFFF"></path>
                        <g id="Group-15" transform="translate(181.707692, 0.186977)">
                            <mask id="mask-16" fill="white">
                                <use xlink:href="#path-15"></use>
                            </mask>
                            <g id="Clip-14"></g>
                            <polygon id="Fill-13" fill="#062739" mask="url(#mask-16)" points="0.615461538 0.00151002109 12.9862385 0.00151002109 12.9862385 335.213348 0.615461538 335.213348"></polygon>
                        </g>
                        <polygon id="Fill-16" fill="#FFFFFF" points="0 129.523475 182.323154 129.523475 182.323154 0.189658454 0 0.189658454"></polygon>
                        <mask id="mask-18" fill="white">
                            <use xlink:href="#path-17"></use>
                        </mask>
                        <g id="Clip-19"></g>
                        <polygon id="Fill-18" fill="#06B9BF" mask="url(#mask-18)" points="91.1615769 64.8574454 182.323154 64.8574454 182.323154 0.189072716 91.1615769 0.189072716"></polygon>
                        <polygon id="Fill-20" fill="#06B9BF" mask="url(#mask-18)" points="0 129.523475 91.1615769 129.523475 91.1615769 64.8551025 0 64.8551025"></polygon>
                        <path d="M149.563015,249.410221 C149.563015,241.804417 156.904592,235.639527 165.960669,235.639527 L204.893008,235.639527 C213.949085,235.639527 221.287731,241.804417 221.287731,249.410221 C221.287731,257.016025 213.949085,263.180915 204.893008,263.180915 L165.960669,263.180915 C156.904592,263.180915 149.563015,257.016025 149.563015,249.410221" id="Fill-21" fill="#F9BAA9" mask="url(#mask-18)"></path>
                        <path d="M165.444854,290.469849 C157.903985,290.469849 151.7904,284.360605 151.7904,276.825089 C151.7904,269.289574 157.903985,263.180329 165.444854,263.180329 L205.927569,263.180329 L205.927569,263.294548 C206.308569,263.262332 206.674915,263.180329 207.061777,263.180329 C214.602646,263.180329 220.716231,269.289574 220.716231,276.825089 C220.716231,284.360605 214.602646,290.469849 207.061777,290.469849 C206.674915,290.469849 206.308569,290.387846 205.927569,290.355631 L205.927569,290.469849 L165.444854,290.469849 Z" id="Fill-22" fill="#F9BAA9" mask="url(#mask-18)"></path>
                        <path d="M158.271503,303.254454 C158.271503,296.193386 163.998226,290.470728 171.064311,290.470728 L205.928742,290.470728 C212.994826,290.470728 218.72448,296.193386 218.72448,303.254454 C218.72448,310.315522 212.994826,316.038179 205.928742,316.038179 L171.064311,316.038179 C163.998226,316.038179 158.271503,310.315522 158.271503,303.254454" id="Fill-23" fill="#F9BAA9" mask="url(#mask-18)"></path>
                        <path d="M198.533532,206.000613 C206.725032,206.000613 213.363224,212.637022 213.363224,220.819777 C213.363224,229.005462 208.290062,235.638942 198.533532,235.638942 L190.772855,235.638942 L156.201501,235.638942 C148.010001,235.638942 141.371808,229.005462 141.371808,220.819777 C141.371808,212.637022 148.010001,206.000613 156.201501,206.000613 L195.816708,206.000613 L198.533532,206.000613 Z" id="Fill-24" fill="#F9BAA9" mask="url(#mask-18)"></path>
                    </g>
                </g>
            </g>
        </g>
    </g>
</svg>